B612-Regular.ufo
<glyph name="exclam" format="1">
  <advance width="700"/>
  <unicode hex="0021"/>
  <outline>
    <contour>
      <point x="405" y="1500" type="line" name="sh01"/>
      <point x="405" y="450" type="line"/>
      <point x="195" y="429" type="line" name="fh01"/>
      <point x="195" y="1500" type="line" name="sh02"/>
    </contour>
    <contour>
      <point x="169" y="120" type="qcurve" name="dh01"/>
      <point x="169" y="147"/>
      <point x="190" y="195"/>
      <point x="226" y="231"/>
      <point x="273" y="252"/>
      <point x="300" y="252" type="qcurve" name="mh01"/>
      <point x="327" y="252"/>
      <point x="375" y="231"/>
      <point x="411" y="195"/>
      <point x="432" y="147"/>
      <point x="432" y="120" type="qcurve" name="dh02"/>
      <point x="432" y="93"/>
      <point x="411" y="44"/>
      <point x="376" y="8"/>
      <point x="329" y="-14"/>
      <point x="302" y="-14" type="qcurve" name="ab01"/>
      <point x="274" y="-14"/>
      <point x="226" y="8"/>
      <point x="190" y="44"/>
      <point x="169" y="93"/>
    </contour>
  </outline>
</glyph>
<glyph name="numbersign" format="1">
  <advance width="1700"/>
  <unicode hex="0023"/>
  <outline>
    <contour>
      <point x="1328" y="950" type="line"/>
      <point x="1278" y="550" type="line"/>
      <point x="1600" y="550" type="line"/>
      <point x="1580" y="400" type="line"/>
      <point x="1261" y="400" type="line"/>
      <point x="1211" y="0" type="line"/>
      <point x="1000" y="-20" type="line"/>
      <point x="1054" y="400" type="line"/>
      <point x="601" y="400" type="line"/>
      <point x="553" y="0" type="line"/>
      <point x="343" y="-20" type="line"/>
      <point x="394" y="400" type="line"/>
      <point x="100" y="400" type="line"/>
      <point x="100" y="550" type="line"/>
      <point x="411" y="550" type="line"/>
      <point x="462" y="950" type="line"/>
      <point x="100" y="950" type="line"/>
      <point x="120" y="1100" type="line"/>
      <point x="479" y="1100" type="line"/>
      <point x="503" y="1285" type="line"/>
      <point x="503" y="1500" type="line"/>
      <point x="739" y="1520" type="line"/>
      <point x="686" y="1100" type="line"/>
      <point x="1139" y="1100" type="line"/>
      <point x="1187" y="1500" type="line"/>
      <point x="1398" y="1520" type="line"/>
      <point x="1347" y="1100" type="line"/>
      <point x="1600" y="1100" type="line"/>
      <point x="1600" y="950" type="line"/>
    </contour>
    <contour>
      <point x="1120" y="950" type="line"/>
      <point x="669" y="950" type="line"/>
      <point x="620" y="550" type="line"/>
      <point x="1071" y="550" type="line"/>
    </contour>
  </outline>
</glyph>
<glyph name="percent" format="1">
  <advance width="1800"/>
  <unicode hex="0025"/>
  <outline>
    <contour>
      <point x="590" y="0" type="line"/>
      <point x="400" y="0" type="line"/>
      <point x="1220" y="1500" type="line"/>
      <point x="1400" y="1500" type="line"/>
    </contour>
    <contour>
      <point x="398" y="764" type="qcurve"/>
      <point x="324" y="764"/>
      <point x="202" y="822"/>
      <point x="114" y="924"/>
      <point x="65" y="1063"/>
      <point x="65" y="1144" type="qcurve"/>
      <point x="65" y="1224"/>
      <point x="112" y="1361"/>
      <point x="198" y="1461"/>
      <point x="321" y="1517"/>
      <point x="398" y="1517" type="qcurve"/>
      <point x="471" y="1517"/>
      <point x="593" y="1461"/>
      <point x="681" y="1361"/>
      <point x="730" y="1224"/>
      <point x="730" y="1144" type="qcurve"/>
      <point x="730" y="1063"/>
      <point x="683" y="924"/>
      <point x="596" y="822"/>
      <point x="474" y="764"/>
    </contour>
    <contour>
      <point x="574" y="1133" type="qcurve"/>
      <point x="574" y="1178"/>
      <point x="554" y="1266"/>
      <point x="512" y="1335"/>
      <point x="445" y="1378"/>
      <point x="397" y="1378" type="qcurve"/>
      <point x="352" y="1378"/>
      <point x="287" y="1341"/>
      <point x="246" y="1279"/>
      <point x="226" y="1201"/>
      <point x="226" y="1159" type="qcurve"/>
      <point x="226" y="1113"/>
      <point x="246" y="1026"/>
      <point x="288" y="958"/>
      <point x="355" y="916"/>
      <point x="402" y="916" type="qcurve"/>
      <point x="447" y="916"/>
      <point x="512" y="953"/>
      <point x="554" y="1014"/>
      <point x="574" y="1092"/>
    </contour>
    <contour>
      <point x="1400" y="-17" type="qcurve"/>
      <point x="1326" y="-17"/>
      <point x="1204" y="41"/>
      <point x="1116" y="143"/>
      <point x="1067" y="282"/>
      <point x="1067" y="363" type="qcurve"/>
      <point x="1067" y="443"/>
      <point x="1114" y="580"/>
      <point x="1200" y="680"/>
      <point x="1323" y="736"/>
      <point x="1400" y="736" type="qcurve"/>
      <point x="1473" y="736"/>
      <point x="1595" y="680"/>
      <point x="1683" y="580"/>
      <point x="1732" y="443"/>
      <point x="1732" y="363" type="qcurve"/>
      <point x="1732" y="282"/>
      <point x="1685" y="143"/>
      <point x="1598" y="41"/>
      <point x="1476" y="-17"/>
    </contour>
    <contour>
      <point x="1576" y="352" type="qcurve"/>
      <point x="1576" y="397"/>
      <point x="1556" y="485"/>
      <point x="1514" y="554"/>
      <point x="1447" y="597"/>
      <point x="1399" y="597" type="qcurve"/>
      <point x="1354" y="597"/>
      <point x="1289" y="560"/>
      <point x="1248" y="498"/>
      <point x="1228" y="420"/>
      <point x="1228" y="378" type="qcurve"/>
      <point x="1228" y="332"/>
      <point x="1248" y="245"/>
      <point x="1290" y="177"/>
      <point x="1357" y="135"/>
      <point x="1404" y="135" type="qcurve"/>
      <point x="1449" y="135"/>
      <point x="1514" y="172"/>
      <point x="1556" y="233"/>
      <point x="1576" y="311"/>
    </contour>
  </outline>
</glyph>
<glyph name="ampersand" format="1">
  <advance width="1400"/>
  <unicode hex="0026"/>
  <outline>
    <contour>
      <point x="1306" y="713" type="curve"/>
      <point x="1112" y="692" type="line"/>
      <point x="1110" y="572"/>
      <point x="1082" y="454"/>
      <point x="1027" y="355" type="curve"/>
      <point x="536" y="1005"/>
      <point x="506" y="1052"/>
      <point x="489" y="1112" type="curve" smooth="yes"/>
      <point x="482" y="1136"/>
      <point x="479" y="1157"/>
      <point x="479" y="1175" type="curve" smooth="yes"/>
      <point x="479" y="1298"/>
      <point x="580" y="1359"/>
      <point x="676" y="1359" type="curve" smooth="yes"/>
      <point x="824" y="1359"/>
      <point x="910" y="1271"/>
      <point x="958" y="1220" type="curve"/>
      <point x="1038" y="1338" type="line"/>
      <point x="970" y="1432"/>
      <point x="856" y="1520"/>
      <point x="676" y="1520" type="curve" smooth="yes"/>
      <point x="457" y="1520"/>
      <point x="304" y="1395"/>
      <point x="304" y="1176" type="curve" smooth="yes"/>
      <point x="304" y="1079"/>
      <point x="341" y="985"/>
      <point x="391" y="909" type="curve"/>
      <point x="237" y="811"/>
      <point x="120" y="656"/>
      <point x="120" y="474" type="curve" smooth="yes"/>
      <point x="120" y="181"/>
      <point x="398" y="-20"/>
      <point x="672" y="-20" type="curve" smooth="yes"/>
      <point x="799" y="-20"/>
      <point x="911" y="11"/>
      <point x="1011" y="77" type="curve"/>
      <point x="1083" y="-20" type="line"/>
      <point x="1306" y="-20" type="line"/>
      <point x="1173" y="157" type="line"/>
      <point x="1092" y="141" type="line"/>
      <point x="1240" y="300"/>
      <point x="1306" y="503"/>
    </contour>
    <contour>
      <point x="672" y="149" type="curve"/>
      <point x="472" y="157"/>
      <point x="289" y="281"/>
      <point x="289" y="475" type="curve" smooth="yes"/>
      <point x="289" y="574"/>
      <point x="346" y="667"/>
      <point x="452" y="745" type="curve"/>
      <point x="452" y="828" type="line"/>
      <point x="906" y="217" type="line"/>
      <point x="832" y="168"/>
      <point x="756" y="149"/>
    </contour>
  </outline>
</glyph>
<glyph name="quotesingle" format="1">
  <advance width="400"/>
  <unicode hex="0027"/>
  <outline>
    <contour>
      <point x="150" y="1500" type="line" name="dh01"/>
      <point x="325" y="1500" type="line" name="dh02"/>
      <point x="325" y="1400" type="line"/>
      <point x="325" y="1326"/>
      <point x="254" y="1155"/>
      <point x="184" y="1067" type="qcurve" name="av01"/>
      <point x="140" y="1067" type="line" name="sh01"/>
      <point x="142" y="1143"/>
      <point x="145" y="1209" type="qcurve" name="sh02"/>
      <point x="146" y="1237"/>
      <point x="147" y="1295"/>
      <point x="149" y="1346"/>
      <point x="150" y="1388"/>
      <point x="150" y="1400" type="qcurve"/>
    </contour>
  </outline>
</glyph>
<glyph name="parenright" format="1">
  <advance width="900"/>
  <unicode hex="0029"/>
  <outline>
    <contour>
      <point x="699" y="0" type="line" name="hr00"/>
      <point x="699" y="-89"/>
      <point x="681" y="-243"/>
      <point x="620" y="-356"/>
      <point x="501" y="-420"/>
      <point x="399" y="-420" type="qcurve"/>
      <point x="380" y="-420"/>
      <point x="338" y="-417"/>
      <point x="300" y="-411"/>
      <point x="269" y="-401"/>
      <point x="260" y="-395" type="qcurve"/>
      <point x="329" y="-269" type="line"/>
      <point x="335" y="-271"/>
      <point x="343" y="-272" type="qcurve"/>
      <point x="350" y="-273"/>
      <point x="368" y="-274"/>
      <point x="379" y="-274" type="qcurve"/>
      <point x="423" y="-274"/>
      <point x="472" y="-232"/>
      <point x="495" y="-160"/>
      <point x="499" y="-66"/>
      <point x="499" y="-14" type="qcurve"/>
      <point x="499" y="1194" type="line"/>
      <point x="499" y="1246"/>
      <point x="495" y="1340"/>
      <point x="472" y="1412"/>
      <point x="423" y="1454"/>
      <point x="379" y="1454" type="qcurve"/>
      <point x="368" y="1454"/>
      <point x="350" y="1452"/>
      <point x="343" y="1451" type="qcurve"/>
      <point x="335" y="1450"/>
      <point x="329" y="1449" type="qcurve"/>
      <point x="260" y="1575" type="line"/>
      <point x="269" y="1581"/>
      <point x="300" y="1591"/>
      <point x="338" y="1597"/>
      <point x="380" y="1600"/>
      <point x="399" y="1600" type="qcurve"/>
      <point x="501" y="1600"/>
      <point x="620" y="1536"/>
      <point x="681" y="1423"/>
      <point x="699" y="1269"/>
      <point x="699" y="1180" type="qcurve"/>
    </contour>
  </outline>
</glyph>
<glyph name="asterisk" format="1">
  <advance width="1100"/>
  <unicode hex="002A"/>
  <outline>
    <contour>
      <point x="568" y="1037" type="line"/>
      <point x="647" y="1040" type="line"/>
      <point x="889" y="1118" type="line"/>
      <point x="835" y="1240" type="line"/>
      <point x="610" y="1168" type="line"/>
      <point x="544" y="1118" type="line"/>
      <point x="570" y="1198" type="line"/>
      <point x="570" y="1450" type="line"/>
      <point x="437" y="1436" type="line"/>
      <point x="437" y="1202" type="line"/>
      <point x="459" y="1120" type="line"/>
      <point x="393" y="1172" type="line"/>
      <point x="155" y="1249" type="line"/>
      <point x="128" y="1118" type="line"/>
      <point x="351" y="1045" type="line"/>
      <point x="432" y="1041" type="line"/>
      <point x="367" y="996" type="line"/>
      <point x="219" y="793" type="line"/>
      <point x="335" y="726" type="line"/>
      <point x="475" y="918" type="line"/>
      <point x="499" y="990" type="line"/>
      <point x="523" y="918" type="line"/>
      <point x="672" y="712" type="line"/>
      <point x="771" y="802" type="line"/>
      <point x="631" y="994" type="line"/>
    </contour>
  </outline>
</glyph>
<glyph name="plus" format="1">
  <advance width="1200"/>
  <unicode hex="002B"/>
  <outline>
    <contour>
      <point x="100" y="700" type="line" name="hr00"/>
      <point x="473" y="700" type="line"/>
      <point x="473" y="1121" type="line"/>
      <point x="628" y="1121" type="line"/>
      <point x="628" y="700" type="line"/>
      <point x="1000" y="700" type="line"/>
      <point x="1000" y="545" type="line"/>
      <point x="628" y="545" type="line"/>
      <point x="628" y="122" type="line"/>
      <point x="473" y="122" type="line"/>
      <point x="473" y="545" type="line"/>
      <point x="100" y="545" type="line"/>
    </contour>
  </outline>
</glyph>
<glyph name="comma" format="1">
  <advance width="500"/>
  <unicode hex="002C"/>
  <outline>
    <contour>
      <point x="102" y="133" type="qcurve" name="hr00"/>
      <point x="102" y="162"/>
      <point x="125" y="215"/>
      <point x="166" y="253"/>
      <point x="220" y="277"/>
      <point x="250" y="277" type="qcurve"/>
      <point x="279" y="277"/>
      <point x="332" y="256"/>
      <point x="373" y="216"/>
      <point x="398" y="155"/>
      <point x="398" y="116" type="qcurve"/>
      <point x="398" y="63"/>
      <point x="385" y="-36"/>
      <point x="344" y="-138"/>
      <point x="268" y="-244"/>
      <point x="206" y="-301" type="qcurve"/>
      <point x="154" y="-278" type="line"/>
      <point x="177" y="-234"/>
      <point x="195" y="-187" type="qcurve"/>
      <point x="210" y="-148"/>
      <point x="235" y="-55"/>
      <point x="235" y="-11" type="qcurve"/>
      <point x="210" y="-10"/>
      <point x="162" y="10"/>
      <point x="124" y="45"/>
      <point x="102" y="99"/>
    </contour>
  </outline>
</glyph>
<glyph name="hyphen" format="1">
  <advance width="900"/>
  <unicode hex="002D"/>
  <outline>
    <contour>
      <point x="200" y="600" type="line" name="hr00"/>
      <point x="700" y="600" type="line" name="dv02"/>
      <point x="700" y="445" type="line" name="dv01"/>
      <point x="200" y="445" type="line"/>
    </contour>
  </outline>
</glyph>
<glyph name="period" format="1">
  <advance width="600"/>
  <unicode hex="002E"/>
  <outline>
    <contour>
      <point x="86" y="150" type="qcurve" name="hr00"/>
      <point x="86" y="184"/>
      <point x="112" y="244"/>
      <point x="157" y="289"/>
      <point x="216" y="315"/>
      <point x="250" y="315" type="qcurve"/>
      <point x="284" y="315"/>
      <point x="344" y="289"/>
      <point x="389" y="244"/>
      <point x="415" y="184"/>
      <point x="415" y="150" type="qcurve"/>
      <point x="415" y="116"/>
      <point x="389" y="55"/>
      <point x="345" y="10"/>
      <point x="286" y="-17"/>
      <point x="252" y="-17" type="qcurve"/>
      <point x="218" y="-17"/>
      <point x="157" y="10"/>
      <point x="112" y="55"/>
      <point x="86" y="116"/>
    </contour>
  </outline>
</glyph>
<glyph name="slash" format="1">
  <advance width="1100"/>
  <unicode hex="002F"/>
  <outline>
    <contour>
      <point x="285" y="-100" type="line" name="av02"/>
      <point x="75" y="-100" type="line"/>
      <point x="785" y="1600" type="line" name="av01"/>
      <point x="985" y="1600" type="line"/>
    </contour>
  </outline>
</glyph>
<glyph name="zero" format="1">
  <advance width="1300"/>
  <unicode hex="0030"/>
  <outline>
    <contour>
      <point x="600" y="-17" type="qcurve" name="ab01"/>
      <point x="515" y="-17"/>
      <point x="373" y="48"/>
      <point x="260" y="160"/>
      <point x="175" y="310"/>
      <point x="118" y="481"/>
      <point x="90" y="662"/>
      <point x="90" y="750" type="qcurve" name="sh01"/>
      <point x="90" y="840"/>
      <point x="114" y="1024"/>
      <point x="166" y="1194"/>
      <point x="247" y="1343"/>
      <point x="360" y="1453"/>
      <point x="507" y="1517"/>
      <point x="600" y="1517" type="qcurve" name="at01"/>
      <point x="685" y="1517"/>
      <point x="827" y="1452"/>
      <point x="940" y="1340"/>
      <point x="1025" y="1190"/>
      <point x="1082" y="1019"/>
      <point x="1110" y="837"/>
      <point x="1110" y="750" type="qcurve" name="sh02"/>
      <point x="1110" y="660"/>
      <point x="1086" y="476"/>
      <point x="1034" y="306"/>
      <point x="953" y="157"/>
      <point x="840" y="47"/>
      <point x="692" y="-17"/>
    </contour>
    <contour>
      <point x="297" y="793" type="qcurve" name="sh03"/>
      <point x="297" y="735"/>
      <point x="305" y="596"/>
      <point x="329" y="455"/>
      <point x="372" y="323"/>
      <point x="441" y="220"/>
      <point x="540" y="158"/>
      <point x="608" y="158" type="qcurve" name="sv01"/>
      <point x="669" y="158"/>
      <point x="760" y="205"/>
      <point x="826" y="286"/>
      <point x="868" y="393"/>
      <point x="893" y="515"/>
      <point x="903" y="645"/>
      <point x="903" y="707" type="qcurve" name="ah01"/>
      <point x="903" y="765"/>
      <point x="895" y="904"/>
      <point x="871" y="1044"/>
      <point x="828" y="1177"/>
      <point x="759" y="1279"/>
      <point x="660" y="1341"/>
      <point x="592" y="1341" type="qcurve" name="sv02"/>
      <point x="531" y="1341"/>
      <point x="440" y="1294"/>
      <point x="374" y="1214"/>
      <point x="332" y="1106"/>
      <point x="307" y="984"/>
      <point x="297" y="855"/>
    </contour>
  </outline>
</glyph>
<glyph name="five" format="1">
  <advance width="1300"/>
  <unicode hex="0035"/>
  <outline>
    <contour>
      <point x="408" y="982" type="line" name="hr00"/>
      <point x="415" y="986"/>
      <point x="450" y="1004"/>
      <point x="502" y="1022"/>
      <point x="569" y="1035"/>
      <point x="610" y="1035" type="qcurve" name="dv01"/>
      <point x="714" y="1035"/>
      <point x="877" y="970"/>
      <point x="990" y="857"/>
      <point x="1049" y="705"/>
      <point x="1049" y="619" type="qcurve" name="dh02"/>
      <point x="1049" y="518"/>
      <point x="977" y="347"/>
      <point x="852" y="210"/>
      <point x="685" y="106"/>
      <point x="496" y="35"/>
      <point x="296" y="0"/>
      <point x="200" y="0" type="qcurve" name="av01"/>
      <point x="200" y="160" type="line" name="sh01"/>
      <point x="275" y="162"/>
      <point x="429" y="195"/>
      <point x="572" y="250"/>
      <point x="697" y="328"/>
      <point x="790" y="423"/>
      <point x="844" y="535"/>
      <point x="844" y="598" type="qcurve" name="dh01"/>
      <point x="844" y="649"/>
      <point x="811" y="745"/>
      <point x="746" y="820"/>
      <point x="648" y="866"/>
      <point x="583" y="866" type="qcurve" name="dv02"/>
      <point x="532" y="866"/>
      <point x="450" y="853"/>
      <point x="385" y="834"/>
      <point x="339" y="810"/>
      <point x="324" y="800" type="qcurve"/>
      <point x="200" y="800" type="line" name="sh02"/>
      <point x="200" y="1500" type="line" name="at01"/>
      <point x="953" y="1500" type="line" name="at02"/>
      <point x="953" y="1340" type="line" name="sv01"/>
      <point x="408" y="1340" type="line" name="sh03"/>
    </contour>
  </outline>
</glyph>
<glyph name="seven" format="1">
  <advance width="1300"/>
  <unicode hex="0037"/>
  <outline>
    <contour>
      <point x="200" y="1500" type="line" name="at01"/>
      <point x="1100" y="1500" type="line" name="at02"/>
      <point x="1100" y="1370" type="line" name="sh01"/>
      <point x="1100" y="1327"/>
      <point x="1035" y="1192"/>
      <point x="935" y="1024"/>
      <point x="817" y="831"/>
      <point x="709" y="628"/>
      <point x="629" y="424"/>
      <point x="618" y="329" type="qcurve" name="sh04"/>
      <point x="613" y="288"/>
      <point x="608" y="201"/>
      <point x="605" y="115"/>
      <point x="605" y="34"/>
      <point x="605" y="0" type="qcurve" name="sh03"/>
      <point x="400" y="0" type="line" name="sh02"/>
      <point x="400" y="30"/>
      <point x="401" y="131"/>
      <point x="405" y="243"/>
      <point x="414" y="353"/>
      <point x="422" y="392" type="qcurve"/>
      <point x="445" y="499"/>
      <point x="531" y="706"/>
      <point x="632" y="897"/>
      <point x="738" y="1067"/>
      <point x="824" y="1206"/>
      <point x="879" y="1310"/>
      <point x="879" y="1340" type="qcurve" name="sv01"/>
      <point x="200" y="1340" type="line"/>
    </contour>
  </outline>
</glyph>
<glyph name="nine" format="1">
  <advance width="1300"/>
  <unicode hex="0039"/>
  <outline>
    <contour>
      <point x="848" y="663" type="line" name="hr00"/>
      <point x="789" y="617"/>
      <point x="670" y="573"/>
      <point x="595" y="573" type="qcurve" name="dv01"/>
      <point x="497" y="573"/>
      <point x="327" y="638"/>
      <point x="201" y="758"/>
      <point x="129" y="927"/>
      <point x="129" y="1031" type="qcurve" name="dh02"/>
      <point x="129" y="1139"/>
      <point x="198" y="1317"/>
      <point x="325" y="1446"/>
      <point x="506" y="1517"/>
      <point x="618" y="1517" type="qcurve" name="at01"/>
      <point x="718" y="1517"/>
      <point x="871" y="1455"/>
      <point x="983" y="1353"/>
      <point x="1058" y="1221"/>
      <point x="1103" y="1079"/>
      <point x="1122" y="939"/>
      <point x="1122" y="880" type="qcurve" name="sh01"/>
      <point x="1122" y="763"/>
      <point x="1075" y="543"/>
      <point x="984" y="347"/>
      <point x="852" y="182"/>
      <point x="683" y="61"/>
      <point x="478" y="-12"/>
      <point x="361" y="-17" type="qcurve" name="ab01"/>
      <point x="330" y="150" type="line" name="sh02"/>
      <point x="450" y="156"/>
      <point x="661" y="258"/>
      <point x="822" y="427"/>
      <point x="921" y="652"/>
      <point x="928" y="780" type="qcurve" name="sh03"/>
    </contour>
    <contour>
      <point x="916" y="953" type="qcurve" name="ah01"/>
      <point x="913" y="1028"/>
      <point x="875" y="1169"/>
      <point x="805" y="1280"/>
      <point x="698" y="1347"/>
      <point x="626" y="1347" type="qcurve" name="sv01"/>
      <point x="558" y="1347"/>
      <point x="450" y="1303"/>
      <point x="374" y="1225"/>
      <point x="333" y="1115"/>
      <point x="333" y="1049" type="qcurve" name="dh01"/>
      <point x="333" y="984"/>
      <point x="366" y="872"/>
      <point x="433" y="790"/>
      <point x="536" y="743"/>
      <point x="605" y="743" type="qcurve" name="dv02"/>
      <point x="658" y="743"/>
      <point x="755" y="777"/>
      <point x="836" y="834"/>
      <point x="898" y="910"/>
    </contour>
  </outline>
</glyph>
<glyph name="equal" format="1">
  <advance width="1000"/>
  <unicode hex="003D"/>
  <outline>
    <contour>
      <point x="100" y="700" type="line" name="hr00"/>
      <point x="900" y="700" type="line"/>
      <point x="900" y="560" type="line"/>
      <point x="100" y="560" type="line"/>
    </contour>
    <contour>
      <point x="100" y="400" type="line"/>
      <point x="900" y="400" type="line"/>
      <point x="900" y="260" type="line"/>
      <point x="100" y="260" type="line"/>
    </contour>
  </outline>
</glyph>
<glyph name="greater" format="1">
  <advance width="1300"/>
  <unicode hex="003E"/>
  <outline>
    <contour>
      <point x="1100" y="757" type="line"/>
      <point x="1100" y="548" type="line"/>
      <point x="200" y="91" type="line"/>
      <point x="200" y="266" type="line"/>
      <point x="888" y="630" type="line"/>
      <point x="965" y="650" type="line"/>
      <point x="887" y="670" type="line"/>
      <point x="200" y="1036" type="line"/>
      <point x="200" y="1211" type="line"/>
    </contour>
  </outline>
</glyph>
<glyph name="B" format="1">
  <advance width="1300"/>
  <unicode hex="0042"/>
  <outline>
    <contour>
      <point x="400" y="1147" type="line" name="sh01"/>
      <point x="400" y="885" type="line"/>
      <point x="510" y="885" type="line" name="ih02"/>
      <point x="575" y="885"/>
      <point x="697" y="914"/>
      <point x="792" y="977"/>
      <point x="850" y="1077"/>
      <point x="850" y="1148" type="qcurve" name="dh03"/>
      <point x="850" y="1214"/>
      <point x="794" y="1302"/>
      <point x="703" y="1354"/>
      <point x="589" y="1375"/>
      <point x="532" y="1375" type="qcurve" name="sv01"/>
      <point x="515" y="1375"/>
      <point x="475" y="1373"/>
      <point x="434" y="1368"/>
      <point x="395" y="1362"/>
      <point x="380" y="1359" type="qcurve"/>
    </contour>
    <contour>
      <point x="190" y="0" type="line" name="dh01"/>
      <point x="190" y="1290" type="line"/>
      <point x="160" y="1490" type="line"/>
      <point x="190" y="1494"/>
      <point x="269" y="1502"/>
      <point x="353" y="1507"/>
      <point x="435" y="1510"/>
      <point x="467" y="1510" type="qcurve" name="at01"/>
      <point x="578" y="1510"/>
      <point x="785" y="1481"/>
      <point x="945" y="1405"/>
      <point x="1041" y="1272"/>
      <point x="1041" y="1169" type="qcurve" name="dh04"/>
      <point x="1041" y="1060"/>
      <point x="936" y="902"/>
      <point x="850" y="860" type="qcurve"/>
      <point x="696" y="816" type="line" name="ih01"/>
      <point x="843" y="802" type="line"/>
      <point x="904" y="784"/>
      <point x="1013" y="727"/>
      <point x="1095" y="645"/>
      <point x="1142" y="533"/>
      <point x="1142" y="460" type="qcurve" name="sh03"/>
      <point x="1142" y="375"/>
      <point x="1096" y="241"/>
      <point x="1018" y="139"/>
      <point x="912" y="66"/>
      <point x="791" y="21"/>
      <point x="662" y="0"/>
      <point x="600" y="0" type="qcurve"/>
    </contour>
    <contour>
      <point x="400" y="160" type="line" name="dh02"/>
      <point x="540" y="160" type="line"/>
      <point x="639" y="160"/>
      <point x="789" y="189"/>
      <point x="891" y="256"/>
      <point x="942" y="367"/>
      <point x="942" y="450" type="qcurve" name="sh02"/>
      <point x="942" y="525"/>
      <point x="890" y="631"/>
      <point x="795" y="699"/>
      <point x="661" y="730"/>
      <point x="580" y="730" type="qcurve" name="ih03"/>
      <point x="400" y="730" type="line"/>
    </contour>
  </outline>
</glyph>
<glyph name="E" format="1">
  <advance width="1200"/>
  <unicode hex="0045"/>
  <outline>
    <contour>
      <point x="1045" y="160" type="line" name="dh04"/>
      <point x="1025" y="0" type="line" name="ab01"/>
      <point x="175" y="0" type="line" name="ab02"/>
      <point x="190" y="200" type="line" name="dh01"/>
      <point x="190" y="1290" type="line"/>
      <point x="160" y="1500" type="line" name="at01"/>
      <point x="1010" y="1500" type="line" name="at02"/>
      <point x="1010" y="1340" type="line"/>
      <point x="380" y="1340" type="line" name="sv01"/>
      <point x="400" y="1150" type="line" name="sh01"/>
      <point x="400" y="885" type="line"/>
      <point x="940" y="885" type="line" name="dv01"/>
      <point x="940" y="740" type="line" name="dh03"/>
      <point x="400" y="740" type="line"/>
      <point x="400" y="340" type="line" name="dh02"/>
      <point x="390" y="160" type="line"/>
    </contour>
  </outline>
</glyph>
<glyph name="F" format="1">
  <advance width="1100"/>
  <unicode hex="0046"/>
  <outline>
    <contour>
      <point x="400" y="0" type="line" name="dh02"/>
      <point x="190" y="0" type="line" name="dh01"/>
      <point x="190" y="1290" type="line"/>
      <point x="160" y="1500" type="line" name="at01"/>
      <point x="1045" y="1500" type="line" name="dh04"/>
      <point x="1025" y="1340" type="line" name="sv01"/>
      <point x="380" y="1340" type="line"/>
      <point x="400" y="1150" type="line" name="sh01"/>
      <point x="400" y="885" type="line"/>
      <point x="940" y="885" type="line" name="dh03"/>
      <point x="940" y="740" type="line" name="dv01"/>
      <point x="400" y="740" type="line"/>
    </contour>
  </outline>
</glyph>
<glyph name="G" format="1">
  <advance width="1300"/>
  <unicode hex="0047"/>
  <outline>
    <contour>
      <point x="1200" y="197" type="line" name="sh01"/>
      <point x="1159" y="152"/>
      <point x="1057" y="73"/>
      <point x="935" y="16"/>
      <point x="791" y="-17"/>
      <point x="708" y="-17" type="qcurve" name="ab01"/>
      <point x="564" y="-17"/>
      <point x="334" y="108"/>
      <point x="173" y="322"/>
      <point x="88" y="608"/>
      <point x="88" y="770" type="qcurve" name="sh02"/>
      <point x="88" y="921"/>
      <point x="165" y="1192"/>
      <point x="324" y="1397"/>
      <point x="566" y="1517"/>
      <point x="731" y="1517" type="qcurve" name="at01"/>
      <point x="846" y="1517"/>
      <point x="1051" y="1444"/>
      <point x="1123" y="1375" type="qcurve" name="fh01"/>
      <point x="1033" y="1268" type="line"/>
      <point x="985" y="1300"/>
      <point x="840" y="1348"/>
      <point x="747" y="1348" type="qcurve" name="sv01"/>
      <point x="625" y="1348"/>
      <point x="455" y="1256"/>
      <point x="347" y="1099"/>
      <point x="298" y="890"/>
      <point x="298" y="773" type="qcurve" name="sh03"/>
      <point x="298" y="704"/>
      <point x="320" y="559"/>
      <point x="365" y="421"/>
      <point x="436" y="299"/>
      <point x="533" y="207"/>
      <point x="657" y="153"/>
      <point x="734" y="153" type="qcurve" name="sv02"/>
      <point x="779" y="153"/>
      <point x="863" y="172"/>
      <point x="935" y="202"/>
      <point x="992" y="239"/>
      <point x="1010" y="258" type="qcurve" name="ah01"/>
      <point x="1010" y="645" type="line" name="sv03"/>
      <point x="700" y="665" type="line"/>
      <point x="700" y="805" type="line"/>
      <point x="1200" y="805" type="line" name="av01"/>
    </contour>
  </outline>
</glyph>
<glyph name="H" format="1">
  <advance width="1400"/>
  <unicode hex="0048"/>
  <outline>
    <contour>
      <point x="1015" y="0" type="line" name="ah01"/>
      <point x="1015" y="725" type="line" name="dv01"/>
      <point x="385" y="725" type="line"/>
      <point x="385" y="0" type="line" name="sh02"/>
      <point x="180" y="0" type="line" name="sh01"/>
      <point x="180" y="1290" type="line"/>
      <point x="151" y="1500" type="line"/>
      <point x="385" y="1520" type="line" name="sh03"/>
      <point x="385" y="885" type="line"/>
      <point x="1015" y="885" type="line" name="sh04"/>
      <point x="1015" y="1502" type="line"/>
      <point x="1220" y="1520" type="line" name="at01"/>
      <point x="1220" y="0" type="line" name="sh05"/>
    </contour>
  </outline>
</glyph>
<glyph name="I" format="1">
  <advance width="600"/>
  <unicode hex="0049"/>
  <outline>
    <contour>
      <point x="190" y="0" type="line" name="dh01"/>
      <point x="190" y="1290" type="line"/>
      <point x="160" y="1500" type="line"/>
      <point x="400" y="1520" type="line" name="at01"/>
      <point x="400" y="0" type="line" name="dh02"/>
    </contour>
  </outline>
</glyph>
<glyph name="J" format="1">
  <advance width="900"/>
  <unicode hex="004A"/>
  <outline>
    <contour>
      <point x="270" y="1497" type="line" name="hr00"/>
      <point x="700" y="1520" type="line" name="at01"/>
      <point x="700" y="430" type="line" name="dh02"/>
      <point x="700" y="238"/>
      <point x="493" y="-12"/>
      <point x="297" y="-17" type="qcurve" name="ab01"/>
      <point x="129" y="-17"/>
      <point x="0" y="115" type="qcurve" name="fh01"/>
      <point x="92" y="233" type="line"/>
      <point x="102" y="223"/>
      <point x="141" y="196"/>
      <point x="193" y="172"/>
      <point x="254" y="156"/>
      <point x="287" y="156" type="qcurve" name="sv01"/>
      <point x="391" y="156"/>
      <point x="490" y="312"/>
      <point x="490" y="470" type="qcurve" name="dh01"/>
      <point x="490" y="1148" type="line"/>
      <point x="510" y="1338" type="line"/>
      <point x="290" y="1325" type="line" name="sv02"/>
    </contour>
  </outline>
</glyph>
<glyph name="M" format="1">
  <advance width="1800"/>
  <unicode hex="004D"/>
  <outline>
    <contour>
      <point x="1400" y="0" type="line" name="sh01"/>
      <point x="1400" y="1000" type="line" name="fh01"/>
      <point x="1444" y="1320" type="line" name="fh02"/>
      <point x="1439" y="1321" type="line" name="ih01"/>
      <point x="1338" y="1020" type="line" name="ih03"/>
      <point x="923" y="130" type="line" name="fh03"/>
      <point x="854" y="130" type="line" name="fh04"/>
      <point x="485" y="920" type="line" name="ih06"/>
      <point x="353" y="1321" type="line" name="ih04"/>
      <point x="347" y="1320" type="line" name="fh05"/>
      <point x="400" y="901" type="line" name="fv01"/>
      <point x="400" y="0" type="line" name="dh01"/>
      <point x="200" y="0" type="line" name="dh02"/>
      <point x="200" y="1290" type="line"/>
      <point x="172" y="1500" type="line" name="ih05"/>
      <point x="406" y="1520" type="line" name="sh02"/>
      <point x="845" y="580" type="line" name="fh06"/>
      <point x="900" y="320" type="line" name="ah01"/>
      <point x="955" y="580" type="line" name="fh07"/>
      <point x="1384" y="1500" type="line" name="sh03"/>
      <point x="1610" y="1520" type="line" name="ih02"/>
      <point x="1610" y="0" type="line" name="ah02"/>
    </contour>
  </outline>
</glyph>
<glyph name="O" format="1">
  <advance width="1600"/>
  <unicode hex="004F"/>
  <outline>
    <contour>
      <point x="800" y="-17" type="qcurve" name="ab01"/>
      <point x="642" y="-17"/>
      <point x="392" y="99"/>
      <point x="217" y="304"/>
      <point x="124" y="585"/>
      <point x="124" y="750" type="qcurve" name="sh01"/>
      <point x="124" y="915"/>
      <point x="214" y="1196"/>
      <point x="387" y="1401"/>
      <point x="639" y="1517"/>
      <point x="800" y="1517" type="qcurve" name="at01"/>
      <point x="957" y="1517"/>
      <point x="1208" y="1401"/>
      <point x="1383" y="1196"/>
      <point x="1476" y="915"/>
      <point x="1476" y="750" type="qcurve" name="sh02"/>
      <point x="1476" y="585"/>
      <point x="1386" y="304"/>
      <point x="1213" y="99"/>
      <point x="961" y="-17"/>
    </contour>
    <contour>
      <point x="1268" y="719" type="qcurve" name="ah01"/>
      <point x="1268" y="799"/>
      <point x="1246" y="954"/>
      <point x="1198" y="1093"/>
      <point x="1122" y="1212"/>
      <point x="1017" y="1298"/>
      <point x="880" y="1347"/>
      <point x="794" y="1347" type="qcurve" name="sv01"/>
      <point x="671" y="1347"/>
      <point x="496" y="1252"/>
      <point x="384" y="1094"/>
      <point x="332" y="892"/>
      <point x="332" y="785" type="qcurve" name="sh03"/>
      <point x="332" y="704"/>
      <point x="355" y="548"/>
      <point x="403" y="407"/>
      <point x="478" y="288"/>
      <point x="583" y="202"/>
      <point x="720" y="153"/>
      <point x="806" y="153" type="qcurve" name="sv02"/>
      <point x="887" y="153"/>
      <point x="1019" y="198"/>
      <point x="1122" y="276"/>
      <point x="1196" y="384"/>
      <point x="1245" y="509"/>
      <point x="1268" y="648"/>
    </contour>
  </outline>
</glyph>
<glyph name="T" format="1">
  <advance width="1200"/>
  <unicode hex="0054"/>
  <outline>
    <contour>
      <point x="495" y="0" type="line" name="dh01"/>
      <point x="495" y="1340" type="line" name="sv01"/>
      <point x="80" y="1340" type="line"/>
      <point x="80" y="1500" type="line" name="at01"/>
      <point x="1115" y="1500" type="line"/>
      <point x="1115" y="1340" type="line" name="sv02"/>
      <point x="705" y="1340" type="line" name="sv03"/>
      <point x="705" y="0" type="line" name="dh02"/>
    </contour>
  </outline>
</glyph>
<glyph name="W" format="1">
  <advance width="1900"/>
  <unicode hex="0057"/>
  <outline>
    <contour>
      <point x="872" y="1500" type="line" name="sh01"/>
      <point x="1029" y="1500" type="line" name="sh02"/>
      <point x="1288" y="460" type="line"/>
      <point x="1352" y="100" type="line" name="ah03"/>
      <point x="1356" y="100" type="line" name="iv01"/>
      <point x="1379" y="460" type="line"/>
      <point x="1639" y="1500" type="line" name="sh03"/>
      <point x="1814" y="1500" type="line" name="sh04"/>
      <point x="1440" y="0" type="line" name="ab01"/>
      <point x="1208" y="0" type="line" name="sh05"/>
      <point x="987" y="885" type="line"/>
      <point x="958" y="1243" type="line" name="ah01"/>
      <point x="894" y="885" type="line" name="fh01"/>
      <point x="673" y="0" type="line" name="sh06"/>
      <point x="441" y="0" type="line" name="fh02"/>
      <point x="67" y="1500" type="line" name="sh08"/>
      <point x="258" y="1520" type="line" name="sh07"/>
      <point x="522" y="460" type="line"/>
      <point x="586" y="100" type="line" name="ah02"/>
      <point x="590" y="100" type="line" name="iv02"/>
      <point x="612" y="460" type="line" name="fh03"/>
    </contour>
  </outline>
</glyph>
<glyph name="Z" format="1">
  <advance width="1200"/>
  <unicode hex="005A"/>
  <outline>
    <contour>
      <point x="1090" y="160" type="line" name="sv01"/>
      <point x="1110" y="0" type="line" name="ab01"/>
      <point x="81" y="0" type="line"/>
      <point x="61" y="50" type="line"/>
      <point x="716" y="1200" type="line"/>
      <point x="900" y="1380" type="line" name="iv01"/>
      <point x="635" y="1340" type="line" name="sv02"/>
      <point x="150" y="1340" type="line" name="iv02"/>
      <point x="130" y="1500" type="line" name="at01"/>
      <point x="1076" y="1500" type="line"/>
      <point x="1091" y="1478" type="line"/>
      <point x="430" y="300" type="line"/>
      <point x="252" y="120" type="line" name="iv03"/>
      <point x="517" y="160" type="line"/>
    </contour>
  </outline>
</glyph>
<glyph name="bracketleft" format="1">
  <advance width="900"/>
  <unicode hex="005B"/>
  <outline>
    <contour>
      <point x="122" y="1320" type="line" name="dh01"/>
      <point x="100" y="1520" type="line" name="at01"/>
      <point x="672" y="1520" type="line"/>
      <point x="672" y="1370" type="line" name="sv01"/>
      <point x="300" y="1370" type="line"/>
      <point x="320" y="1170" type="line" name="dh02"/>
      <point x="320" y="-70" type="line"/>
      <point x="300" y="-270" type="line"/>
      <point x="672" y="-270" type="line" name="dv02"/>
      <point x="672" y="-420" type="line" name="dv01"/>
      <point x="100" y="-420" type="line"/>
      <point x="122" y="-220" type="line"/>
    </contour>
  </outline>
</glyph>
<glyph name="backslash" format="1">
  <advance width="1100"/>
  <unicode hex="005C"/>
  <outline>
    <contour>
      <point x="75" y="1600" type="line"/>
      <point x="275" y="1600" type="line"/>
      <point x="985" y="-100" type="line"/>
      <point x="775" y="-100" type="line"/>
    </contour>
  </outline>
</glyph>
<glyph name="a" format="1">
  <advance width="1050"/>
  <unicode hex="0061"/>
  <outline>
    <contour>
      <point x="920" y="0" type="line" name="ab01"/>
      <point x="710" y="0" type="line"/>
      <point x="710" y="162" type="line" name="ah01"/>
      <point x="616" y="50" type="line"/>
      <point x="599" y="37"/>
      <point x="555" y="13"/>
      <point x="510" y="-6"/>
      <point x="465" y="-17"/>
      <point x="446" y="-17" type="qcurve" name="ab02"/>
      <point x="371" y="-17"/>
      <point x="234" y="30"/>
      <point x="131" y="121"/>
      <point x="70" y="256"/>
      <point x="70" y="344" type="qcurve" name="sh01"/>
      <point x="70" y="437"/>
      <point x="145" y="574"/>
      <point x="262" y="665"/>
      <point x="406" y="710"/>
      <point x="475" y="710" type="qcurve" name="dv02"/>
      <point x="532" y="710"/>
      <point x="619" y="698"/>
      <point x="649" y="690" type="qcurve"/>
      <point x="684" y="681"/>
      <point x="710" y="670" type="qcurve" name="sh02"/>
      <point x="710" y="705" type="line"/>
      <point x="710" y="764"/>
      <point x="696" y="858"/>
      <point x="653" y="923"/>
      <point x="572" y="957"/>
      <point x="505" y="957" type="qcurve" name="sv01"/>
      <point x="451" y="957"/>
      <point x="351" y="942"/>
      <point x="312" y="933" type="qcurve"/>
      <point x="266" y="922"/>
      <point x="227" y="910" type="qcurve" name="ih01"/>
      <point x="155" y="1044" type="line"/>
      <point x="199" y="1064"/>
      <point x="255" y="1080" type="qcurve" name="sh04"/>
      <point x="303" y="1094"/>
      <point x="435" y="1117"/>
      <point x="515" y="1117" type="qcurve" name="av01"/>
      <point x="630" y="1117"/>
      <point x="780" y="1055"/>
      <point x="866" y="943"/>
      <point x="900" y="786"/>
      <point x="900" y="690" type="qcurve"/>
      <point x="900" y="180" type="line" name="sh05"/>
    </contour>
    <contour>
      <point x="710" y="533" type="line" name="sh06"/>
      <point x="682" y="537"/>
      <point x="650" y="541" type="qcurve" name="sv02"/>
      <point x="623" y="544"/>
      <point x="553" y="550"/>
      <point x="515" y="550" type="qcurve" name="dv01"/>
      <point x="459" y="550"/>
      <point x="366" y="528"/>
      <point x="298" y="479"/>
      <point x="260" y="401"/>
      <point x="260" y="345" type="qcurve" name="sh03"/>
      <point x="260" y="300"/>
      <point x="290" y="226"/>
      <point x="342" y="172"/>
      <point x="413" y="143"/>
      <point x="454" y="143" type="qcurve" name="sv03"/>
      <point x="473" y="143"/>
      <point x="516" y="154"/>
      <point x="559" y="172"/>
      <point x="602" y="196"/>
      <point x="621" y="208" type="qcurve"/>
      <point x="666" y="237"/>
      <point x="710" y="274" type="qcurve"/>
    </contour>
  </outline>
</glyph>
<glyph name="d" format="1">
  <advance width="1200"/>
  <unicode hex="0064"/>
  <outline>
    <contour>
      <point x="656" y="940" type="line" name="sv01"/>
      <point x="564" y="940"/>
      <point x="430" y="871"/>
      <point x="342" y="753"/>
      <point x="300" y="593"/>
      <point x="300" y="502" type="qcurve" name="sh02"/>
      <point x="300" y="413"/>
      <point x="342" y="279"/>
      <point x="409" y="189"/>
      <point x="495" y="144"/>
      <point x="540" y="144" type="qcurve" name="sv02"/>
      <point x="587" y="144"/>
      <point x="668" y="176"/>
      <point x="736" y="224"/>
      <point x="790" y="281"/>
      <point x="810" y="306" type="qcurve" name="sh03"/>
      <point x="810" y="940" type="line"/>
    </contour>
    <contour>
      <point x="810" y="0" type="line" name="ab02"/>
      <point x="810" y="162" type="line" name="ah01"/>
      <point x="715" y="49" type="line"/>
      <point x="697" y="37"/>
      <point x="655" y="13"/>
      <point x="603" y="-5"/>
      <point x="540" y="-17"/>
      <point x="501" y="-17" type="qcurve" name="ab01"/>
      <point x="419" y="-17"/>
      <point x="277" y="64"/>
      <point x="172" y="208"/>
      <point x="111" y="407"/>
      <point x="111" y="526" type="qcurve" name="sh01"/>
      <point x="111" y="646"/>
      <point x="188" y="855"/>
      <point x="330" y="1011"/>
      <point x="531" y="1100"/>
      <point x="655" y="1100" type="qcurve" name="av02"/>
      <point x="810" y="1100" type="line" name="sh04"/>
      <point x="810" y="1620" type="line" name="av01"/>
      <point x="1000" y="1600" type="line"/>
      <point x="1000" y="180" type="line" name="sh05"/>
      <point x="1020" y="0" type="line"/>
    </contour>
  </outline>
</glyph>
<glyph name="g" format="1">
  <advance width="1200"/>
  <unicode hex="0067"/>
  <outline>
    <contour>
      <point x="810" y="135" type="line" name="iv01"/>
      <point x="723" y="25" type="line"/>
      <point x="714" y="19"/>
      <point x="681" y="5"/>
      <point x="633" y="-8"/>
      <point x="569" y="-17"/>
      <point x="530" y="-17" type="qcurve" name="ab01"/>
      <point x="439" y="-17"/>
      <point x="282" y="72"/>
      <point x="166" y="225"/>
      <point x="100" y="430"/>
      <point x="100" y="545" type="qcurve" name="sh01"/>
      <point x="100" y="662"/>
      <point x="160" y="870"/>
      <point x="280" y="1026"/>
      <point x="458" y="1117"/>
      <point x="576" y="1117" type="qcurve" name="av01"/>
      <point x="613" y="1117"/>
      <point x="684" y="1111"/>
      <point x="715" y="1100" type="qcurve"/>
      <point x="810" y="958" type="line" name="sh02"/>
      <point x="810" y="1120" type="line" name="av02"/>
      <point x="1000" y="1100" type="line"/>
      <point x="1000" y="-46" type="line" name="sh03"/>
      <point x="1000" y="-144"/>
      <point x="933" y="-316"/>
      <point x="807" y="-443"/>
      <point x="626" y="-517"/>
      <point x="512" y="-517" type="qcurve" name="ab02"/>
      <point x="433" y="-517"/>
      <point x="314" y="-477"/>
      <point x="272" y="-453" type="qcurve"/>
      <point x="224" y="-425"/>
      <point x="189" y="-388" type="qcurve"/>
      <point x="287" y="-278" type="line" name="sh05"/>
      <point x="316" y="-300"/>
      <point x="352" y="-318" type="qcurve"/>
      <point x="383" y="-333"/>
      <point x="465" y="-357"/>
      <point x="513" y="-357" type="qcurve" name="sv03"/>
      <point x="575" y="-357"/>
      <point x="683" y="-306"/>
      <point x="764" y="-218"/>
      <point x="810" y="-99"/>
      <point x="810" y="-31" type="qcurve" name="ah01"/>
    </contour>
    <contour>
      <point x="810" y="834" type="line" name="sh06"/>
      <point x="783" y="868"/>
      <point x="747" y="895" type="qcurve"/>
      <point x="716" y="918"/>
      <point x="628" y="957"/>
      <point x="571" y="957" type="qcurve" name="sv02"/>
      <point x="511" y="957"/>
      <point x="423" y="919"/>
      <point x="360" y="855"/>
      <point x="321" y="770"/>
      <point x="298" y="675"/>
      <point x="290" y="578"/>
      <point x="290" y="533" type="qcurve" name="sh04"/>
      <point x="290" y="448"/>
      <point x="327" y="305"/>
      <point x="394" y="202"/>
      <point x="489" y="144"/>
      <point x="546" y="144" type="qcurve" name="sv01"/>
      <point x="597" y="144"/>
      <point x="677" y="166"/>
      <point x="741" y="203"/>
      <point x="790" y="250"/>
      <point x="810" y="275" type="qcurve"/>
    </contour>
  </outline>
</glyph>
<glyph name="h" format="1">
  <advance width="1200"/>
  <unicode hex="0068"/>
  <outline>
    <contour>
      <point x="390" y="0" type="line" name="sh02"/>
      <point x="200" y="0" type="line" name="sh01"/>
      <point x="200" y="1400" type="line"/>
      <point x="180" y="1600" type="line"/>
      <point x="390" y="1620" type="line" name="sh03"/>
      <point x="390" y="950" type="line" name="iv01"/>
      <point x="479" y="1065" type="line"/>
      <point x="518" y="1087"/>
      <point x="626" y="1117"/>
      <point x="690" y="1117" type="qcurve" name="av01"/>
      <point x="840" y="1117"/>
      <point x="1000" y="917"/>
      <point x="1000" y="730" type="qcurve"/>
      <point x="1000" y="0" type="line" name="sh04"/>
      <point x="810" y="0" type="line" name="ah01"/>
      <point x="810" y="709" type="line"/>
      <point x="810" y="776"/>
      <point x="787" y="870"/>
      <point x="745" y="930"/>
      <point x="683" y="957"/>
      <point x="644" y="957" type="qcurve" name="ih01"/>
      <point x="605" y="957"/>
      <point x="531" y="938"/>
      <point x="465" y="905"/>
      <point x="410" y="860"/>
      <point x="390" y="833" type="qcurve"/>
    </contour>
  </outline>
</glyph>
<glyph name="i" format="1">
  <advance width="600"/>
  <unicode hex="0069"/>
  <outline>
    <contour>
      <point x="390" y="0" type="line" name="dh02"/>
      <point x="200" y="0" type="line" name="dh01"/>
      <point x="200" y="1055" type="line" name="av02"/>
      <point x="390" y="1075" type="line" name="av01"/>
    </contour>
    <contour>
      <point x="194" y="1500" type="line" name="sh01"/>
      <point x="396" y="1500" type="line" name="sh02"/>
      <point x="396" y="1300" type="line" name="sv01"/>
      <point x="194" y="1300" type="line" name="fv01"/>
    </contour>
  </outline>
</glyph>
<glyph name="m" format="1">
  <advance width="1800"/>
  <unicode hex="006D"/>
  <outline>
    <contour>
      <point x="390" y="0" type="line" name="dh02"/>
      <point x="200" y="0" type="line" name="dh01"/>
      <point x="200" y="1100" type="line"/>
      <point x="390" y="1120" type="line" name="sh01"/>
      <point x="390" y="937" type="line" name="iv01"/>
      <point x="451" y="1044" type="line"/>
      <point x="469" y="1056"/>
      <point x="523" y="1082"/>
      <point x="591" y="1103"/>
      <point x="669" y="1117"/>
      <point x="710" y="1117" type="qcurve" name="av01"/>
      <point x="822" y="1117"/>
      <point x="962" y="1008"/>
      <point x="983" y="923" type="qcurve" name="ih01"/>
      <point x="1059" y="1040" type="line"/>
      <point x="1094" y="1068"/>
      <point x="1222" y="1117"/>
      <point x="1305" y="1117" type="qcurve" name="av02"/>
      <point x="1381" y="1117"/>
      <point x="1489" y="1066"/>
      <point x="1558" y="970"/>
      <point x="1590" y="834"/>
      <point x="1590" y="750" type="qcurve"/>
      <point x="1590" y="0" type="line" name="sh05"/>
      <point x="1400" y="0" type="line" name="sh04"/>
      <point x="1400" y="740" type="line"/>
      <point x="1400" y="794"/>
      <point x="1385" y="875"/>
      <point x="1348" y="930"/>
      <point x="1286" y="957"/>
      <point x="1240" y="957" type="qcurve" name="sv01"/>
      <point x="1211" y="957"/>
      <point x="1148" y="937"/>
      <point x="1084" y="904"/>
      <point x="1023" y="861"/>
      <point x="996" y="839" type="qcurve" name="sh06"/>
      <point x="999" y="810"/>
      <point x="1000" y="771"/>
      <point x="1000" y="740" type="qcurve"/>
      <point x="1000" y="0" type="line" name="sh03"/>
      <point x="810" y="0" type="line" name="sh02"/>
      <point x="810" y="740" type="line"/>
      <point x="810" y="848"/>
      <point x="738" y="957"/>
      <point x="645" y="957" type="qcurve" name="sv02"/>
      <point x="615" y="957"/>
      <point x="547" y="939"/>
      <point x="480" y="907"/>
      <point x="416" y="866"/>
      <point x="390" y="844" type="qcurve"/>
    </contour>
  </outline>
</glyph>
<glyph name="n" format="1">
  <advance width="1200"/>
  <unicode hex="006E"/>
  <outline>
    <contour>
      <point x="390" y="0" type="line" name="sh02"/>
      <point x="200" y="0" type="line" name="sh01"/>
      <point x="200" y="1100" type="line"/>
      <point x="390" y="1120" type="line" name="sh03"/>
      <point x="390" y="937" type="line" name="ih01"/>
      <point x="451" y="1044" type="line"/>
      <point x="469" y="1056"/>
      <point x="525" y="1082"/>
      <point x="594" y="1103"/>
      <point x="674" y="1117"/>
      <point x="715" y="1117" type="qcurve" name="av01"/>
      <point x="794" y="1117"/>
      <point x="903" y="1066"/>
      <point x="971" y="970"/>
      <point x="1000" y="834"/>
      <point x="1000" y="750" type="qcurve"/>
      <point x="1000" y="0" type="line" name="sh04"/>
      <point x="810" y="0" type="line" name="ah01"/>
      <point x="810" y="750" type="line"/>
      <point x="810" y="804"/>
      <point x="795" y="882"/>
      <point x="758" y="933"/>
      <point x="696" y="957"/>
      <point x="650" y="957" type="qcurve" name="sv01"/>
      <point x="616" y="957"/>
      <point x="546" y="936"/>
      <point x="479" y="903"/>
      <point x="416" y="863"/>
      <point x="390" y="844" type="qcurve"/>
    </contour>
  </outline>
</glyph>
<glyph name="o" format="1">
  <advance width="1200"/>
  <unicode hex="006F"/>
  <outline>
    <contour>
      <point x="599" y="-17" type="qcurve" name="ab01"/>
      <point x="488" y="-17"/>
      <point x="305" y="70"/>
      <point x="173" y="223"/>
      <point x="100" y="432"/>
      <point x="100" y="553" type="qcurve" name="sh01"/>
      <point x="100" y="674"/>
      <point x="170" y="881"/>
      <point x="300" y="1032"/>
      <point x="485" y="1117"/>
      <point x="599" y="1117" type="qcurve" name="av01"/>
      <point x="710" y="1117"/>
      <point x="894" y="1032"/>
      <point x="1026" y="881"/>
      <point x="1100" y="674"/>
      <point x="1100" y="553" type="qcurve" name="sh02"/>
      <point x="1100" y="432"/>
      <point x="1029" y="223"/>
      <point x="899" y="70"/>
      <point x="713" y="-17"/>
    </contour>
    <contour>
      <point x="910" y="526" type="qcurve" name="ah01"/>
      <point x="910" y="607"/>
      <point x="875" y="763"/>
      <point x="799" y="886"/>
      <point x="679" y="962"/>
      <point x="595" y="962" type="qcurve" name="sv01"/>
      <point x="515" y="962"/>
      <point x="399" y="896"/>
      <point x="325" y="786"/>
      <point x="290" y="646"/>
      <point x="290" y="572" type="qcurve" name="sh03"/>
      <point x="290" y="491"/>
      <point x="325" y="335"/>
      <point x="400" y="213"/>
      <point x="519" y="138"/>
      <point x="603" y="138" type="qcurve" name="sv02"/>
      <point x="682" y="138"/>
      <point x="798" y="204"/>
      <point x="874" y="313"/>
      <point x="910" y="453"/>
    </contour>
  </outline>
</glyph>
<glyph name="q" format="1">
  <advance width="1200"/>
  <unicode hex="0071"/>
  <outline>
    <contour>
      <point x="810" y="935" type="line" name="ah01"/>
      <point x="791" y="939"/>
      <point x="740" y="947"/>
      <point x="683" y="953"/>
      <point x="623" y="957"/>
      <point x="596" y="957" type="qcurve" name="sv01"/>
      <point x="504" y="957"/>
      <point x="388" y="879"/>
      <point x="320" y="755"/>
      <point x="295" y="600"/>
      <point x="295" y="524" type="qcurve" name="sh02"/>
      <point x="295" y="424"/>
      <point x="333" y="280"/>
      <point x="396" y="187"/>
      <point x="479" y="143"/>
      <point x="525" y="143" type="qcurve" name="sv02"/>
      <point x="564" y="143"/>
      <point x="640" y="164"/>
      <point x="712" y="199"/>
      <point x="779" y="245"/>
      <point x="810" y="270" type="qcurve"/>
    </contour>
    <contour>
      <point x="810" y="136" type="line" name="sh03"/>
      <point x="705" y="29" type="line"/>
      <point x="654" y="5"/>
      <point x="554" y="-17"/>
      <point x="506" y="-17" type="qcurve" name="ab01"/>
      <point x="423" y="-17"/>
      <point x="276" y="58"/>
      <point x="165" y="197"/>
      <point x="100" y="398"/>
      <point x="100" y="524" type="qcurve" name="sh01"/>
      <point x="100" y="662"/>
      <point x="174" y="882"/>
      <point x="306" y="1035"/>
      <point x="490" y="1117"/>
      <point x="600" y="1117" type="qcurve" name="av02"/>
      <point x="663" y="1117"/>
      <point x="789" y="1106"/>
      <point x="897" y="1091"/>
      <point x="980" y="1072"/>
      <point x="1000" y="1065" type="qcurve" name="sh04"/>
      <point x="1000" y="-500" type="line" name="av01"/>
      <point x="810" y="-500" type="line"/>
    </contour>
  </outline>
</glyph>
<glyph name="r" format="1">
  <advance width="800"/>
  <unicode hex="0072"/>
  <outline>
    <contour>
      <point x="671" y="948" type="qcurve" name="sv01"/>
      <point x="631" y="948"/>
      <point x="553" y="916"/>
      <point x="481" y="862"/>
      <point x="417" y="790"/>
      <point x="390" y="750" type="qcurve"/>
      <point x="390" y="0" type="line" name="dh02"/>
      <point x="200" y="0" type="line" name="dh01"/>
      <point x="200" y="1100" type="line"/>
      <point x="390" y="1120" type="line" name="sh01"/>
      <point x="390" y="895" type="line" name="iv01"/>
      <point x="490" y="1070" type="line"/>
      <point x="503" y="1078"/>
      <point x="542" y="1095"/>
      <point x="592" y="1108"/>
      <point x="649" y="1117"/>
      <point x="679" y="1117" type="qcurve" name="av01"/>
      <point x="724" y="1117"/>
      <point x="785" y="1101"/>
      <point x="800" y="1094" type="qcurve"/>
      <point x="790" y="928" type="line"/>
      <point x="775" y="933"/>
      <point x="715" y="948"/>
    </contour>
  </outline>
</glyph>
<glyph name="w" format="1">
  <advance width="1500"/>
  <unicode hex="0077"/>
  <outline>
    <contour>
      <point x="997" y="480" type="line" name="mh01"/>
      <point x="1039" y="200" type="line" name="ah02"/>
      <point x="1079" y="480" type="line"/>
      <point x="1250" y="1100" type="line" name="sh01"/>
      <point x="1412" y="1117" type="line" name="sh02"/>
      <point x="1103" y="0" type="line" name="mh02"/>
      <point x="951" y="0" type="line" name="sh03"/>
      <point x="780" y="620" type="line" name="mh03"/>
      <point x="742" y="900" type="line" name="ah03"/>
      <point x="701" y="620" type="line" name="mh04"/>
      <point x="530" y="0" type="line" name="ab01"/>
      <point x="378" y="0" type="line"/>
      <point x="75" y="1100" type="line" name="sh05"/>
      <point x="247" y="1120" type="line" name="sh04"/>
      <point x="423" y="480" type="line" name="fh01"/>
      <point x="466" y="200" type="line" name="ah01"/>
      <point x="506" y="480" type="line" name="fh02"/>
      <point x="677" y="1100" type="line" name="sh06"/>
      <point x="825" y="1100" type="line" name="sh07"/>
    </contour>
  </outline>
</glyph>
<glyph name="z" format="1">
  <advance width="1000"/>
  <unicode hex="007A"/>
  <outline>
    <contour>
      <point x="880" y="160" type="line" name="sv01"/>
      <point x="900" y="0" type="line" name="ab01"/>
      <point x="81" y="0" type="line"/>
      <point x="61" y="50" type="line"/>
      <point x="524" y="826" type="line"/>
      <point x="676" y="980" type="line"/>
      <point x="471" y="940" type="line"/>
      <point x="148" y="940" type="line" name="sv03"/>
      <point x="128" y="1100" type="line" name="sv02"/>
      <point x="832" y="1100" type="line" name="mh01"/>
      <point x="852" y="1051" type="line"/>
      <point x="403" y="280" type="line"/>
      <point x="252" y="120" type="line" name="iv01"/>
      <point x="457" y="160" type="line"/>
    </contour>
  </outline>
</glyph>
<glyph name="braceright" format="1">
  <advance width="1200"/>
  <unicode hex="007D"/>
  <outline>
    <contour>
      <point x="1074" y="625" type="line" name="dv02"/>
      <point x="1074" y="475" type="line" name="dv01"/>
      <point x="952" y="475" type="line"/>
      <point x="903" y="468"/>
      <point x="844" y="428"/>
      <point x="812" y="364"/>
      <point x="802" y="275"/>
      <point x="802" y="220" type="qcurve"/>
      <point x="802" y="-20" type="line" name="dh02"/>
      <point x="802" y="-105"/>
      <point x="771" y="-251"/>
      <point x="695" y="-359"/>
      <point x="568" y="-420"/>
      <point x="472" y="-420" type="qcurve" name="av01"/>
      <point x="426" y="-420"/>
      <point x="361" y="-413"/>
      <point x="310" y="-400"/>
      <point x="269" y="-383"/>
      <point x="248" y="-373" type="qcurve"/>
      <point x="311" y="-250" type="line"/>
      <point x="330" y="-261"/>
      <point x="395" y="-277"/>
      <point x="420" y="-277" type="qcurve"/>
      <point x="428" y="-277"/>
      <point x="444" y="-277"/>
      <point x="452" y="-275" type="qcurve"/>
      <point x="501" y="-268"/>
      <point x="560" y="-228"/>
      <point x="592" y="-164"/>
      <point x="602" y="-75"/>
      <point x="602" y="-20" type="qcurve" name="dh01"/>
      <point x="602" y="220" type="line"/>
      <point x="602" y="271"/>
      <point x="613" y="367"/>
      <point x="639" y="452"/>
      <point x="679" y="523"/>
      <point x="709" y="550" type="qcurve"/>
      <point x="650" y="604"/>
      <point x="602" y="776"/>
      <point x="602" y="880" type="qcurve" name="sh01"/>
      <point x="602" y="1119" type="line"/>
      <point x="602" y="1174"/>
      <point x="592" y="1263"/>
      <point x="560" y="1327"/>
      <point x="501" y="1367"/>
      <point x="452" y="1374" type="qcurve"/>
      <point x="444" y="1376"/>
      <point x="428" y="1376"/>
      <point x="420" y="1376" type="qcurve"/>
      <point x="395" y="1376"/>
      <point x="330" y="1360"/>
      <point x="311" y="1349" type="qcurve"/>
      <point x="248" y="1472" type="line"/>
      <point x="269" y="1482"/>
      <point x="310" y="1499"/>
      <point x="361" y="1512"/>
      <point x="426" y="1519"/>
      <point x="472" y="1519" type="qcurve" name="at01"/>
      <point x="568" y="1519"/>
      <point x="695" y="1458"/>
      <point x="771" y="1350"/>
      <point x="802" y="1204"/>
      <point x="802" y="1119" type="qcurve" name="sh02"/>
      <point x="802" y="880" type="line"/>
      <point x="802" y="825"/>
      <point x="812" y="736"/>
      <point x="844" y="672"/>
      <point x="903" y="632"/>
      <point x="952" y="625" type="qcurve"/>
    </contour>
  </outline>
</glyph>
<glyph name="exclamdown" format="1">
  <advance width="700"/>
  <unicode hex="00A1"/>
  <outline>
    <contour>
      <point x="195" y="-399" type="line" name="sh02"/>
      <point x="195" y="672" type="line"/>
      <point x="405" y="651" type="line"/>
      <point x="405" y="-399" type="line" name="sh01"/>
    </contour>
    <contour>
      <point x="169" y="981" type="qcurve" name="dh01"/>
      <point x="169" y="1008"/>
      <point x="190" y="1057"/>
      <point x="226" y="1093"/>
      <point x="274" y="1115"/>
      <point x="302" y="1115" type="qcurve" name="at01"/>
      <point x="329" y="1115"/>
      <point x="376" y="1093"/>
      <point x="411" y="1057"/>
      <point x="432" y="1008"/>
      <point x="432" y="981" type="qcurve" name="dh02"/>
      <point x="432" y="954"/>
      <point x="411" y="906"/>
      <point x="375" y="870"/>
      <point x="327" y="849"/>
      <point x="300" y="849" type="qcurve"/>
      <point x="273" y="849"/>
      <point x="226" y="870"/>
      <point x="190" y="906"/>
      <point x="169" y="954"/>
    </contour>
  </outline>
</glyph>
<glyph name="cent" format="1">
  <advance width="1000"/>
  <unicode hex="00A2"/>
  <outline>
    <contour>
      <point x="673" y="1320" type="line" name="hr00"/>
      <point x="673" y="1113" type="line"/>
      <point x="725" y="1106"/>
      <point x="770" y="1088" type="qcurve"/>
      <point x="843" y="1060"/>
      <point x="906" y="991" type="qcurve"/>
      <point x="807" y="878" type="line"/>
      <point x="768" y="913"/>
      <point x="714" y="935" type="qcurve"/>
      <point x="687" y="946"/>
      <point x="660" y="951" type="qcurve"/>
      <point x="660" y="153" type="line"/>
      <point x="708" y="157"/>
      <point x="745" y="170" type="qcurve"/>
      <point x="799" y="188"/>
      <point x="828" y="208" type="qcurve"/>
      <point x="900" y="67" type="line"/>
      <point x="844" y="29"/>
      <point x="769" y="6" type="qcurve"/>
      <point x="725" y="-8"/>
      <point x="673" y="-13" type="qcurve"/>
      <point x="673" y="-200" type="line"/>
      <point x="527" y="-200" type="line"/>
      <point x="527" y="-12" type="line"/>
      <point x="447" y="-2"/>
      <point x="382" y="32" type="qcurve"/>
      <point x="288" y="82"/>
      <point x="163" y="247"/>
      <point x="100" y="462"/>
      <point x="100" y="577" type="qcurve"/>
      <point x="100" y="681"/>
      <point x="161" y="876"/>
      <point x="286" y="1026"/>
      <point x="381" y="1071" type="qcurve"/>
      <point x="446" y="1102"/>
      <point x="527" y="1112" type="qcurve"/>
      <point x="527" y="1300" type="line"/>
    </contour>
    <contour>
      <point x="461" y="925" type="qcurve"/>
      <point x="402" y="894"/>
      <point x="329" y="786"/>
      <point x="295" y="643"/>
      <point x="295" y="564" type="qcurve"/>
      <point x="295" y="482"/>
      <point x="326" y="333"/>
      <point x="400" y="219"/>
      <point x="461" y="185" type="qcurve"/>
      <point x="495" y="167"/>
      <point x="539" y="158" type="qcurve"/>
      <point x="539" y="952" type="line"/>
      <point x="496" y="944"/>
    </contour>
  </outline>
</glyph>
<glyph name="ordfeminine" format="1">
  <advance width="800"/>
  <unicode hex="00AA"/>
  <outline>
    <contour>
      <point x="100" y="800" type="line"/>
      <point x="500" y="800" type="line"/>
      <point x="500" y="700" type="line"/>
      <point x="100" y="700" type="line"/>
    </contour>
    <component base="a" xScale="0.5" yScale="0.5" xOffset="45" yOffset="959"/>
  </outline>
</glyph>
<glyph name="registered" format="1">
  <advance width="1100"/>
  <unicode hex="00AE"/>
  <outline>
    <contour>
      <point x="550" y="1517" type="curve" smooth="yes" name="hr00"/>
      <point x="291" y="1517"/>
      <point x="80" y="1306"/>
      <point x="80" y="1047" type="curve" smooth="yes"/>
      <point x="80" y="787"/>
      <point x="291" y="577"/>
      <point x="550" y="577" type="curve" smooth="yes"/>
      <point x="809" y="577"/>
      <point x="1020" y="787"/>
      <point x="1020" y="1047" type="curve" smooth="yes"/>
      <point x="1020" y="1306"/>
      <point x="809" y="1517"/>
    </contour>
    <contour>
      <point x="550" y="663" type="curve" smooth="yes"/>
      <point x="339" y="663"/>
      <point x="166" y="840"/>
      <point x="166" y="1047" type="curve" smooth="yes"/>
      <point x="166" y="1259"/>
      <point x="338" y="1431"/>
      <point x="550" y="1431" type="curve" smooth="yes"/>
      <point x="762" y="1431"/>
      <point x="934" y="1259"/>
      <point x="934" y="1047" type="curve" smooth="yes"/>
      <point x="934" y="836"/>
      <point x="757" y="663"/>
    </contour>
    <contour>
      <point x="474" y="1017" type="line"/>
      <point x="474" y="800" type="line"/>
      <point x="400" y="800" type="line"/>
      <point x="400" y="1222" type="line"/>
      <point x="388" y="1292" type="line"/>
      <point x="417" y="1297"/>
      <point x="480" y="1300"/>
      <point x="519" y="1300" type="curve" smooth="yes"/>
      <point x="638" y="1300"/>
      <point x="700" y="1264"/>
      <point x="700" y="1168" type="curve" smooth="yes"/>
      <point x="700" y="1069"/>
      <point x="654" y="1040"/>
      <point x="562" y="1024" type="curve"/>
      <point x="612" y="1009" type="line"/>
      <point x="769" y="800" type="line"/>
      <point x="690" y="800" type="line"/>
      <point x="533" y="1010" type="line"/>
      <point x="529" y="1017"/>
      <point x="521" y="1017"/>
      <point x="517" y="1017" type="curve" smooth="yes"/>
    </contour>
    <contour>
      <point x="474" y="1171" type="line"/>
      <point x="474" y="1070" type="line"/>
      <point x="527" y="1070" type="line" smooth="yes"/>
      <point x="611" y="1070"/>
      <point x="634" y="1102"/>
      <point x="634" y="1162" type="curve" smooth="yes"/>
      <point x="634" y="1243"/>
      <point x="586" y="1252"/>
      <point x="528" y="1252" type="curve" smooth="yes"/>
      <point x="508" y="1252"/>
      <point x="483" y="1251"/>
      <point x="467" y="1248" type="curve"/>
    </contour>
  </outline>
</glyph>
<glyph name="degree" format="1">
  <advance width="600"/>
  <unicode hex="00B0"/>
  <outline>
    <contour>
      <point x="300" y="1517" type="curve" smooth="yes"/>
      <point x="151" y="1517"/>
      <point x="31" y="1396"/>
      <point x="31" y="1247" type="curve" smooth="yes"/>
      <point x="31" y="1099"/>
      <point x="151" y="977"/>
      <point x="300" y="977" type="curve" smooth="yes"/>
      <point x="449" y="977"/>
      <point x="569" y="1099"/>
      <point x="569" y="1247" type="curve" smooth="yes"/>
      <point x="569" y="1396"/>
      <point x="449" y="1517"/>
    </contour>
    <contour>
      <point x="300" y="1088" type="curve" smooth="yes"/>
      <point x="212" y="1088"/>
      <point x="141" y="1159"/>
      <point x="141" y="1247" type="curve" smooth="yes"/>
      <point x="141" y="1335"/>
      <point x="212" y="1406"/>
      <point x="300" y="1406" type="curve" smooth="yes"/>
      <point x="388" y="1406"/>
      <point x="459" y="1335"/>
      <point x="459" y="1247" type="curve" smooth="yes"/>
      <point x="459" y="1159"/>
      <point x="388" y="1088"/>
    </contour>
  </outline>
</glyph>
<glyph name="plusminus" format="1">
  <advance width="1200"/>
  <unicode hex="00B1"/>
  <outline>
    <contour>
      <point x="100" y="862" type="line"/>
      <point x="473" y="862" type="line"/>
      <point x="473" y="1199" type="line"/>
      <point x="628" y="1199" type="line"/>
      <point x="628" y="862" type="line"/>
      <point x="1000" y="862" type="line"/>
      <point x="1000" y="738" type="line"/>
      <point x="628" y="738" type="line"/>
      <point x="628" y="400" type="line"/>
      <point x="473" y="400" type="line"/>
      <point x="473" y="738" type="line"/>
      <point x="100" y="738" type="line"/>
    </contour>
    <contour>
      <point x="100" y="290" type="line" name="hr01"/>
      <point x="1000" y="290" type="line"/>
      <point x="1000" y="150" type="line"/>
      <point x="100" y="150" type="line"/>
    </contour>
  </outline>
</glyph>
<glyph name="ordmasculine" format="1">
  <advance width="800"/>
  <unicode hex="00BA"/>
  <outline>
    <contour>
      <point x="100" y="800" type="line"/>
      <point x="500" y="800" type="line"/>
      <point x="500" y="700" type="line"/>
      <point x="100" y="700" type="line"/>
    </contour>
    <component base="o" xScale="0.5" yScale="0.5" yOffset="959"/>
  </outline>
</glyph>
<glyph name="onehalf" format="1">
  <advance width="1500"/>
  <unicode hex="00BD"/>
  <outline>
    <contour>
      <point x="454" y="0" type="line"/>
      <point x="319" y="0" type="line"/>
      <point x="1094" y="1500" type="line"/>
      <point x="1220" y="1500" type="line"/>
    </contour>
    <contour>
      <point x="175" y="720" type="line"/>
      <point x="175" y="800" type="line"/>
      <point x="297" y="800" type="line"/>
      <point x="297" y="1283" type="line"/>
      <point x="326" y="1396" type="line"/>
      <point x="258" y="1303" type="line"/>
      <point x="152" y="1209" type="line"/>
      <point x="98" y="1270" type="line"/>
      <point x="327" y="1480" type="line"/>
      <point x="402" y="1470" type="line"/>
      <point x="402" y="800" type="line"/>
      <point x="525" y="800" type="line"/>
      <point x="525" y="720" type="line"/>
    </contour>
    <contour>
      <point x="949" y="0" type="line" name="hr01"/>
      <point x="949" y="84" type="line"/>
      <point x="973" y="122"/>
      <point x="1028" y="195"/>
      <point x="1085" y="264"/>
      <point x="1140" y="325"/>
      <point x="1163" y="351" type="qcurve"/>
      <point x="1188" y="379"/>
      <point x="1234" y="428"/>
      <point x="1269" y="477"/>
      <point x="1290" y="528"/>
      <point x="1290" y="557" type="qcurve"/>
      <point x="1290" y="581"/>
      <point x="1272" y="624"/>
      <point x="1240" y="655"/>
      <point x="1195" y="674"/>
      <point x="1168" y="674" type="qcurve"/>
      <point x="1137" y="674"/>
      <point x="1093" y="657"/>
      <point x="1059" y="630"/>
      <point x="1035" y="597"/>
      <point x="1024" y="580" type="qcurve"/>
      <point x="954" y="610" type="line"/>
      <point x="967" y="642"/>
      <point x="1007" y="697"/>
      <point x="1062" y="736"/>
      <point x="1132" y="758"/>
      <point x="1175" y="758" type="qcurve"/>
      <point x="1226" y="758"/>
      <point x="1305" y="722"/>
      <point x="1359" y="664"/>
      <point x="1388" y="590"/>
      <point x="1388" y="552" type="qcurve"/>
      <point x="1388" y="513"/>
      <point x="1359" y="444"/>
      <point x="1317" y="381"/>
      <point x="1268" y="326"/>
      <point x="1247" y="302" type="qcurve"/>
      <point x="1221" y="272"/>
      <point x="1169" y="213"/>
      <point x="1122" y="156"/>
      <point x="1081" y="104"/>
      <point x="1066" y="80" type="qcurve"/>
      <point x="1401" y="80" type="line"/>
      <point x="1401" y="0" type="line"/>
    </contour>
  </outline>
</glyph>
<glyph name="threequarters" format="1">
  <advance width="1500"/>
  <unicode hex="00BE"/>
  <outline>
    <contour>
      <point x="454" y="0" type="line"/>
      <point x="319" y="0" type="line"/>
      <point x="1094" y="1500" type="line"/>
      <point x="1220" y="1500" type="line"/>
    </contour>
    <contour>
      <point x="1395" y="150" type="line"/>
      <point x="1305" y="150" type="line"/>
      <point x="1305" y="0" type="line"/>
      <point x="1200" y="0" type="line"/>
      <point x="1200" y="150" type="line"/>
      <point x="903" y="150" type="line"/>
      <point x="903" y="235" type="line"/>
      <point x="1145" y="760" type="line"/>
      <point x="1239" y="750" type="line"/>
      <point x="1032" y="300" type="line"/>
      <point x="985" y="230" type="line"/>
      <point x="1200" y="230" type="line"/>
      <point x="1200" y="433" type="line"/>
      <point x="1305" y="425" type="line"/>
      <point x="1305" y="230" type="line"/>
      <point x="1403" y="230" type="line"/>
    </contour>
    <contour>
      <point x="107" y="1390" type="line" name="hr01"/>
      <point x="115" y="1470" type="line"/>
      <point x="480" y="1470" type="line"/>
      <point x="480" y="1400" type="line"/>
      <point x="474" y="1380"/>
      <point x="445" y="1336"/>
      <point x="407" y="1292"/>
      <point x="361" y="1249"/>
      <point x="338" y="1229" type="qcurve"/>
      <point x="272" y="1192" type="line"/>
      <point x="277" y="1193"/>
      <point x="293" y="1194"/>
      <point x="300" y="1194" type="qcurve"/>
      <point x="348" y="1194"/>
      <point x="432" y="1170"/>
      <point x="493" y="1121"/>
      <point x="529" y="1047"/>
      <point x="529" y="996" type="qcurve"/>
      <point x="529" y="948"/>
      <point x="493" y="869"/>
      <point x="430" y="807"/>
      <point x="346" y="763"/>
      <point x="251" y="734"/>
      <point x="149" y="720"/>
      <point x="100" y="720" type="qcurve"/>
      <point x="100" y="800" type="line"/>
      <point x="141" y="801"/>
      <point x="221" y="813"/>
      <point x="293" y="835"/>
      <point x="354" y="866"/>
      <point x="399" y="907"/>
      <point x="424" y="959"/>
      <point x="424" y="991" type="qcurve"/>
      <point x="424" y="1027"/>
      <point x="393" y="1075"/>
      <point x="340" y="1103"/>
      <point x="269" y="1115"/>
      <point x="228" y="1115" type="qcurve"/>
      <point x="212" y="1115"/>
      <point x="174" y="1113"/>
      <point x="159" y="1112" type="qcurve"/>
      <point x="159" y="1190" type="line"/>
      <point x="180" y="1205"/>
      <point x="228" y="1243"/>
      <point x="277" y="1284"/>
      <point x="323" y="1327"/>
      <point x="361" y="1365"/>
      <point x="387" y="1398"/>
      <point x="391" y="1410" type="qcurve"/>
      <point x="315" y="1390" type="line"/>
    </contour>
  </outline>
</glyph>
<glyph name="questiondown" format="1">
  <advance width="1100"/>
  <unicode hex="00BF"/>
  <outline>
    <contour>
      <point x="107" y="-42" type="qcurve" name="hr00"/>
      <point x="107" y="21"/>
      <point x="141" y="121"/>
      <point x="196" y="203"/>
      <point x="267" y="273"/>
      <point x="342" y="340"/>
      <point x="413" y="410"/>
      <point x="468" y="491"/>
      <point x="502" y="590"/>
      <point x="502" y="652" type="qcurve"/>
      <point x="712" y="673" type="line"/>
      <point x="712" y="584"/>
      <point x="678" y="448"/>
      <point x="623" y="343"/>
      <point x="552" y="262"/>
      <point x="477" y="194"/>
      <point x="406" y="135"/>
      <point x="351" y="71"/>
      <point x="317" y="-3"/>
      <point x="317" y="-50" type="qcurve"/>
      <point x="317" y="-103"/>
      <point x="357" y="-178"/>
      <point x="426" y="-226"/>
      <point x="519" y="-249"/>
      <point x="572" y="-249" type="qcurve"/>
      <point x="610" y="-249"/>
      <point x="691" y="-227"/>
      <point x="768" y="-185"/>
      <point x="839" y="-126"/>
      <point x="867" y="-88" type="qcurve"/>
      <point x="1000" y="-198" type="line"/>
      <point x="950" y="-264"/>
      <point x="836" y="-349"/>
      <point x="717" y="-397"/>
      <point x="599" y="-415"/>
      <point x="547" y="-415" type="qcurve"/>
      <point x="462" y="-415"/>
      <point x="304" y="-370"/>
      <point x="181" y="-279"/>
      <point x="107" y="-138"/>
    </contour>
    <contour>
      <point x="738" y="982" type="qcurve"/>
      <point x="738" y="955"/>
      <point x="717" y="907"/>
      <point x="681" y="871"/>
      <point x="634" y="850"/>
      <point x="607" y="850" type="qcurve"/>
      <point x="580" y="850"/>
      <point x="532" y="871"/>
      <point x="496" y="907"/>
      <point x="475" y="955"/>
      <point x="475" y="982" type="qcurve"/>
      <point x="475" y="1009"/>
      <point x="496" y="1058"/>
      <point x="531" y="1094"/>
      <point x="578" y="1116"/>
      <point x="605" y="1116" type="qcurve" name="at01"/>
      <point x="633" y="1116"/>
      <point x="681" y="1094"/>
      <point x="717" y="1058"/>
      <point x="738" y="1009"/>
    </contour>
  </outline>
</glyph>
<glyph name="AE" format="1">
  <advance width="1700"/>
  <unicode hex="00C6"/>
  <outline>
    <contour>
      <point x="990" y="160" type="line"/>
      <point x="1000" y="340" type="line"/>
      <point x="1000" y="740" type="line"/>
      <point x="1539" y="740" type="line"/>
      <point x="1539" y="885" type="line"/>
      <point x="1000" y="885" type="line"/>
      <point x="1000" y="1149" type="line"/>
      <point x="978" y="1340" type="line"/>
      <point x="1610" y="1340" type="line"/>
      <point x="1610" y="1500" type="line"/>
      <point x="619" y="1500" type="line"/>
      <point x="575" y="1300" type="line"/>
      <point x="50" y="0" type="line"/>
      <point x="257" y="0" type="line"/>
      <point x="437" y="450" type="line"/>
      <point x="791" y="450" type="line"/>
      <point x="791" y="200" type="line"/>
      <point x="775" y="0" type="line"/>
      <point x="1625" y="0" type="line"/>
      <point x="1645" y="160" type="line"/>
    </contour>
    <contour>
      <point x="498" y="599" type="line"/>
      <point x="697" y="1099" type="line"/>
      <point x="770" y="1340" type="line"/>
      <point x="791" y="1106" type="line"/>
      <point x="791" y="599" type="line"/>
    </contour>
  </outline>
</glyph>
<glyph name="Ccedilla" format="1">
  <advance width="1300"/>
  <unicode hex="00C7"/>
  <outline>
    <contour>
      <point x="828" y="0" type="line"/>
      <point x="828" y="0"/>
      <point x="911" y="-91"/>
      <point x="911" y="-198" type="curve" smooth="yes"/>
      <point x="911" y="-315"/>
      <point x="805" y="-407"/>
      <point x="687" y="-407" type="curve" smooth="yes"/>
      <point x="556" y="-407"/>
      <point x="426" y="-318"/>
      <point x="426" y="-318" type="curve"/>
      <point x="426" y="-318"/>
      <point x="497" y="-218"/>
      <point x="497" y="-218" type="curve"/>
      <point x="497" y="-218"/>
      <point x="587" y="-279"/>
      <point x="663" y="-279" type="curve" smooth="yes"/>
      <point x="712" y="-279"/>
      <point x="758" y="-244"/>
      <point x="758" y="-189" type="curve" smooth="yes"/>
      <point x="758" y="-101"/>
      <point x="652" y="0"/>
      <point x="652" y="0" type="curve"/>
    </contour>
    <component base="C" xOffset="10"/>
  </outline>
</glyph>
<glyph name="multiply" format="1">
  <advance width="1600"/>
  <unicode hex="00D7"/>
  <outline>
    <contour>
      <point x="1375" y="1052" type="line"/>
      <point x="1251" y="1153" type="line"/>
      <point x="876" y="777" type="line"/>
      <point x="858" y="679" type="line"/>
      <point x="800" y="777" type="line"/>
      <point x="425" y="1153" type="line"/>
      <point x="300" y="1052" type="line"/>
      <point x="726" y="627" type="line"/>
      <point x="300" y="203" type="line"/>
      <point x="425" y="102" type="line"/>
      <point x="800" y="477" type="line"/>
      <point x="818" y="576" type="line"/>
      <point x="876" y="477" type="line"/>
      <point x="1251" y="102" type="line"/>
      <point x="1375" y="203" type="line"/>
      <point x="950" y="627" type="line"/>
    </contour>
  </outline>
</glyph>
<glyph name="Thorn" format="1">
  <advance width="1300"/>
  <unicode hex="00DE"/>
  <outline>
    <contour>
      <point x="180" y="1500" type="line" name="hr00"/>
      <point x="400" y="1500" type="line"/>
      <point x="400" y="1301" type="line"/>
      <point x="600" y="1301" type="line"/>
      <point x="646" y="1301"/>
      <point x="748" y="1283"/>
      <point x="848" y="1244"/>
      <point x="939" y="1181"/>
      <point x="1009" y="1089"/>
      <point x="1050" y="967"/>
      <point x="1050" y="889" type="qcurve"/>
      <point x="1050" y="831"/>
      <point x="1035" y="707"/>
      <point x="988" y="592"/>
      <point x="902" y="492"/>
      <point x="830" y="457" type="qcurve"/>
      <point x="780" y="433"/>
      <point x="653" y="401"/>
      <point x="560" y="401" type="qcurve"/>
      <point x="400" y="401" type="line"/>
      <point x="400" y="0" type="line"/>
      <point x="200" y="0" type="line"/>
      <point x="200" y="1299" type="line"/>
    </contour>
    <contour>
      <point x="400" y="1151" type="line"/>
      <point x="400" y="557" type="line"/>
      <point x="589" y="557" type="line"/>
      <point x="662" y="557"/>
      <point x="768" y="608"/>
      <point x="837" y="697"/>
      <point x="870" y="818"/>
      <point x="870" y="889" type="qcurve"/>
      <point x="870" y="951"/>
      <point x="828" y="1049"/>
      <point x="749" y="1116"/>
      <point x="638" y="1151"/>
      <point x="569" y="1151" type="qcurve"/>
    </contour>
  </outline>
</glyph>
<glyph name="ccedilla" format="1">
  <advance width="1042"/>
  <unicode hex="00E7"/>
  <outline>
    <contour>
      <point x="664" y="0" type="line"/>
      <point x="664" y="0"/>
      <point x="747" y="-91"/>
      <point x="747" y="-198" type="curve" smooth="yes"/>
      <point x="747" y="-315"/>
      <point x="641" y="-407"/>
      <point x="523" y="-407" type="curve" smooth="yes"/>
      <point x="392" y="-407"/>
      <point x="262" y="-318"/>
      <point x="262" y="-318" type="curve"/>
      <point x="262" y="-318"/>
      <point x="333" y="-218"/>
      <point x="333" y="-218" type="curve"/>
      <point x="333" y="-218"/>
      <point x="423" y="-279"/>
      <point x="499" y="-279" type="curve" smooth="yes"/>
      <point x="548" y="-279"/>
      <point x="594" y="-244"/>
      <point x="594" y="-189" type="curve" smooth="yes"/>
      <point x="594" y="-101"/>
      <point x="488" y="0"/>
      <point x="488" y="0" type="curve"/>
    </contour>
    <component base="c" xOffset="-6"/>
  </outline>
</glyph>
<glyph name="iacute" format="1">
  <advance width="600"/>
  <unicode hex="00ED"/>
  <outline>
    <contour>
      <point x="390" y="0" type="line" name="hr00"/>
      <point x="200" y="0" type="line"/>
      <point x="200" y="1055" type="line"/>
      <point x="390" y="1075" type="line"/>
    </contour>
    <component base="acute" xOffset="-250"/>
  </outline>
</glyph>
<glyph name="eth" format="1">
  <advance width="1300"/>
  <unicode hex="00F0"/>
  <outline>
    <contour>
      <point x="440" y="1165" type="line" name="hr00"/>
      <point x="652" y="1344" type="line"/>
      <point x="533" y="1323" type="line"/>
      <point x="467" y="1358"/>
      <point x="403" y="1375"/>
      <point x="332" y="1375" type="curve" smooth="yes"/>
      <point x="315" y="1375"/>
      <point x="301" y="1373"/>
      <point x="297" y="1372" type="curve"/>
      <point x="272" y="1515" type="line"/>
      <point x="293" y="1517"/>
      <point x="313" y="1517"/>
      <point x="333" y="1517" type="curve" smooth="yes"/>
      <point x="479" y="1517"/>
      <point x="610" y="1475"/>
      <point x="721" y="1402" type="curve"/>
      <point x="859" y="1519" type="line"/>
      <point x="956" y="1404" type="line"/>
      <point x="772" y="1249" type="line"/>
      <point x="889" y="1249" type="line"/>
      <point x="1029" y="1085"/>
      <point x="1110" y="855"/>
      <point x="1110" y="617" type="curve" smooth="yes"/>
      <point x="1110" y="401"/>
      <point x="1002" y="-17"/>
      <point x="610" y="-17" type="curve" smooth="yes"/>
      <point x="322" y="-17"/>
      <point x="146" y="179"/>
      <point x="146" y="466" type="curve" smooth="yes"/>
      <point x="146" y="762"/>
      <point x="326" y="924"/>
      <point x="587" y="924" type="curve" smooth="yes"/>
      <point x="677" y="924"/>
      <point x="774" y="905"/>
      <point x="853" y="844" type="curve"/>
      <point x="936" y="727" type="line"/>
      <point x="913" y="893"/>
      <point x="825" y="1066"/>
      <point x="704" y="1191" type="curve"/>
      <point x="537" y="1050" type="line"/>
    </contour>
    <contour>
      <point x="914" y="604" type="curve"/>
      <point x="866" y="673"/>
      <point x="725" y="764"/>
      <point x="602" y="764" type="curve" smooth="yes"/>
      <point x="417" y="764"/>
      <point x="326" y="626"/>
      <point x="326" y="448" type="curve" smooth="yes"/>
      <point x="326" y="272"/>
      <point x="448" y="143"/>
      <point x="609" y="143" type="curve" smooth="yes"/>
      <point x="771" y="143"/>
      <point x="869" y="263"/>
      <point x="899" y="409" type="curve" smooth="yes"/>
      <point x="914" y="482"/>
      <point x="914" y="539"/>
    </contour>
  </outline>
</glyph>
<glyph name="divide" format="1">
  <advance width="1100"/>
  <unicode hex="00F7"/>
  <outline>
    <contour>
      <point x="441" y="307" type="qcurve" name="hr00"/>
      <point x="441" y="329"/>
      <point x="458" y="368"/>
      <point x="488" y="398"/>
      <point x="527" y="415"/>
      <point x="549" y="415" type="qcurve"/>
      <point x="571" y="415"/>
      <point x="610" y="398"/>
      <point x="640" y="368"/>
      <point x="657" y="329"/>
      <point x="657" y="307" type="qcurve"/>
      <point x="657" y="285"/>
      <point x="640" y="245"/>
      <point x="611" y="215"/>
      <point x="572" y="197"/>
      <point x="550" y="197" type="qcurve"/>
      <point x="528" y="197"/>
      <point x="488" y="215"/>
      <point x="458" y="245"/>
      <point x="441" y="285"/>
    </contour>
    <contour>
      <point x="441" y="920" type="qcurve"/>
      <point x="441" y="942"/>
      <point x="458" y="981"/>
      <point x="488" y="1011"/>
      <point x="527" y="1028"/>
      <point x="549" y="1028" type="qcurve"/>
      <point x="571" y="1028"/>
      <point x="610" y="1011"/>
      <point x="640" y="981"/>
      <point x="657" y="942"/>
      <point x="657" y="920" type="qcurve"/>
      <point x="657" y="898"/>
      <point x="640" y="858"/>
      <point x="611" y="828"/>
      <point x="572" y="810"/>
      <point x="550" y="810" type="qcurve"/>
      <point x="528" y="810"/>
      <point x="488" y="828"/>
      <point x="458" y="858"/>
      <point x="441" y="898"/>
    </contour>
    <component base="minus"/>
  </outline>
</glyph>
<glyph name="thorn" format="1">
  <advance width="1200"/>
  <unicode hex="00FE"/>
  <outline>
    <contour>
      <point x="609" y="-17" type="qcurve" name="hr00"/>
      <point x="498" y="-17"/>
      <point x="406" y="26" type="qcurve"/>
      <point x="348" y="54"/>
      <point x="300" y="95" type="qcurve"/>
      <point x="300" y="-400" type="line"/>
      <point x="100" y="-400" type="line"/>
      <point x="100" y="1500" type="line"/>
      <point x="300" y="1520" type="line"/>
      <point x="300" y="1010" type="line"/>
      <point x="346" y="1048"/>
      <point x="402" y="1074" type="qcurve"/>
      <point x="495" y="1117"/>
      <point x="609" y="1117" type="qcurve"/>
      <point x="720" y="1117"/>
      <point x="904" y="1032"/>
      <point x="1036" y="881"/>
      <point x="1110" y="674"/>
      <point x="1110" y="553" type="qcurve"/>
      <point x="1110" y="432"/>
      <point x="1039" y="223"/>
      <point x="909" y="70"/>
      <point x="723" y="-17"/>
    </contour>
    <contour>
      <point x="920" y="526" type="qcurve"/>
      <point x="920" y="607"/>
      <point x="885" y="763"/>
      <point x="809" y="886"/>
      <point x="689" y="962"/>
      <point x="605" y="962" type="qcurve"/>
      <point x="525" y="962"/>
      <point x="409" y="896"/>
      <point x="335" y="786"/>
      <point x="317" y="716" type="qcurve"/>
      <point x="301" y="653"/>
      <point x="300" y="586" type="qcurve"/>
      <point x="300" y="572" type="line"/>
      <point x="300" y="491"/>
      <point x="335" y="335"/>
      <point x="410" y="213"/>
      <point x="529" y="138"/>
      <point x="613" y="138" type="qcurve"/>
      <point x="692" y="138"/>
      <point x="808" y="204"/>
      <point x="884" y="313"/>
      <point x="920" y="453"/>
    </contour>
  </outline>
</glyph>
<glyph name="oe" format="1">
  <advance width="1900"/>
  <unicode hex="0153"/>
  <outline>
    <contour>
      <point x="1096" y="631" type="line"/>
      <point x="1221" y="650" type="line"/>
      <point x="1586" y="650" type="line"/>
      <point x="1587" y="665"/>
      <point x="1588" y="680"/>
      <point x="1588" y="694" type="curve" smooth="yes"/>
      <point x="1588" y="845"/>
      <point x="1521" y="958"/>
      <point x="1371" y="958" type="curve" smooth="yes"/>
      <point x="1193" y="958"/>
      <point x="1123" y="829"/>
      <point x="1095" y="732" type="curve"/>
      <point x="1043" y="623" type="line"/>
    </contour>
    <contour>
      <point x="896" y="572" type="curve" smooth="yes"/>
      <point x="896" y="769"/>
      <point x="828" y="962"/>
      <point x="595" y="962" type="curve" smooth="yes"/>
      <point x="381" y="962"/>
      <point x="290" y="769"/>
      <point x="290" y="572" type="curve" smooth="yes"/>
      <point x="290" y="355"/>
      <point x="373" y="138"/>
      <point x="594" y="138" type="curve" smooth="yes"/>
      <point x="819" y="138"/>
      <point x="896" y="355"/>
    </contour>
    <contour>
      <point x="1356" y="1117" type="curve" smooth="yes"/>
      <point x="1640" y="1117"/>
      <point x="1776" y="926"/>
      <point x="1776" y="638" type="curve" smooth="yes"/>
      <point x="1776" y="597"/>
      <point x="1773" y="544"/>
      <point x="1768" y="500" type="curve"/>
      <point x="1076" y="500" type="line"/>
      <point x="1076" y="466"/>
      <point x="1079" y="434"/>
      <point x="1085" y="403" type="curve" smooth="yes"/>
      <point x="1116" y="251"/>
      <point x="1218" y="143"/>
      <point x="1361" y="143" type="curve" smooth="yes"/>
      <point x="1531" y="143"/>
      <point x="1612" y="203"/>
      <point x="1643" y="225" type="curve"/>
      <point x="1752" y="129" type="line"/>
      <point x="1669" y="43"/>
      <point x="1560" y="-17"/>
      <point x="1381" y="-17" type="curve" smooth="yes"/>
      <point x="1216" y="-17"/>
      <point x="1098" y="41"/>
      <point x="1018" y="133" type="curve"/>
      <point x="986" y="215" type="line"/>
      <point x="954" y="136" type="line"/>
      <point x="868" y="40"/>
      <point x="746" y="-17"/>
      <point x="599" y="-17" type="curve" smooth="yes"/>
      <point x="304" y="-17"/>
      <point x="100" y="230"/>
      <point x="100" y="553" type="curve" smooth="yes"/>
      <point x="100" y="876"/>
      <point x="294" y="1117"/>
      <point x="599" y="1117" type="curve" smooth="yes"/>
      <point x="743" y="1117"/>
      <point x="866" y="1059"/>
      <point x="954" y="963" type="curve"/>
      <point x="985" y="885" type="line"/>
      <point x="1018" y="961" type="line"/>
      <point x="1094" y="1063"/>
      <point x="1219" y="1117"/>
    </contour>
  </outline>
</glyph>
<glyph name="florin" format="1">
  <advance width="1400"/>
  <unicode hex="0192"/>
  <outline>
    <contour>
      <point x="1258" y="1470" type="line"/>
      <point x="1201" y="1496"/>
      <point x="1156" y="1517"/>
      <point x="1034" y="1517" type="curve" smooth="yes"/>
      <point x="779" y="1517"/>
      <point x="759" y="1327"/>
      <point x="613" y="771" type="curve"/>
      <point x="563" y="828" type="line"/>
      <point x="346" y="828" type="line"/>
      <point x="306" y="674" type="line"/>
      <point x="306" y="674"/>
      <point x="435" y="674"/>
      <point x="587" y="674" type="curve"/>
      <point x="404" y="-21" type="line"/>
      <point x="374" y="-134"/>
      <point x="356" y="-278"/>
      <point x="222" y="-278" type="curve" smooth="yes"/>
      <point x="189" y="-278"/>
      <point x="138" y="-265"/>
      <point x="113" y="-251" type="curve"/>
      <point x="30" y="-384" type="line"/>
      <point x="87" y="-410"/>
      <point x="152" y="-431"/>
      <point x="274" y="-431" type="curve" smooth="yes"/>
      <point x="529" y="-431"/>
      <point x="547" y="-237"/>
      <point x="604" y="-21" type="curve" smooth="yes"/>
      <point x="802" y="730" type="line"/>
      <point x="844" y="674" type="line"/>
      <point x="977" y="674"/>
      <point x="1084" y="674"/>
      <point x="1084" y="674" type="curve"/>
      <point x="1124" y="828" type="line"/>
      <point x="828" y="828" type="line"/>
      <point x="904" y="1117" type="line" smooth="yes"/>
      <point x="934" y="1232"/>
      <point x="949" y="1374"/>
      <point x="1086" y="1374" type="curve" smooth="yes"/>
      <point x="1119" y="1374"/>
      <point x="1170" y="1361"/>
      <point x="1195" y="1347" type="curve"/>
    </contour>
  </outline>
</glyph>
<glyph name="caron" format="1">
  <advance width="1100"/>
  <unicode hex="02C7"/>
  <outline>
    <contour>
      <point x="780" y="1520" type="line" name="hr00"/>
      <point x="630" y="1520" type="line"/>
      <point x="520" y="1388" type="line"/>
      <point x="500" y="1310" type="line"/>
      <point x="480" y="1387" type="line"/>
      <point x="369" y="1520" type="line"/>
      <point x="219" y="1520" type="line"/>
      <point x="395" y="1240" type="line"/>
      <point x="595" y="1220" type="line"/>
    </contour>
  </outline>
</glyph>
<glyph name="ring" format="1">
  <advance width="1100"/>
  <unicode hex="02DA"/>
  <outline>
    <contour>
      <point x="500" y="1634" type="curve" smooth="yes"/>
      <point x="631" y="1634"/>
      <point x="737" y="1528"/>
      <point x="737" y="1397" type="curve" smooth="yes"/>
      <point x="737" y="1266"/>
      <point x="633" y="1156"/>
      <point x="502" y="1156" type="curve" smooth="yes"/>
      <point x="371" y="1156"/>
      <point x="262" y="1266"/>
      <point x="262" y="1397" type="curve" smooth="yes"/>
      <point x="262" y="1528"/>
      <point x="369" y="1634"/>
    </contour>
    <contour>
      <point x="501" y="1273" type="curve" smooth="yes"/>
      <point x="568" y="1273"/>
      <point x="621" y="1329"/>
      <point x="621" y="1396" type="curve" smooth="yes"/>
      <point x="621" y="1463"/>
      <point x="567" y="1517"/>
      <point x="500" y="1517" type="curve" smooth="yes"/>
      <point x="433" y="1517"/>
      <point x="379" y="1463"/>
      <point x="379" y="1396" type="curve" smooth="yes"/>
      <point x="379" y="1329"/>
      <point x="434" y="1273"/>
    </contour>
  </outline>
</glyph>
<glyph name="Sigma" format="1">
  <advance width="1200"/>
  <unicode hex="03A3"/>
  <outline>
    <contour>
      <point x="830" y="700" type="line" name="hr00"/>
      <point x="473" y="317" type="line"/>
      <point x="246" y="125" type="line"/>
      <point x="495" y="170" type="line"/>
      <point x="1101" y="170" type="line"/>
      <point x="1101" y="0" type="line"/>
      <point x="80" y="0" type="line"/>
      <point x="100" y="183" type="line"/>
      <point x="600" y="700" type="line"/>
      <point x="753" y="750" type="line"/>
      <point x="600" y="800" type="line"/>
      <point x="100" y="1317" type="line"/>
      <point x="80" y="1500" type="line"/>
      <point x="1101" y="1500" type="line"/>
      <point x="1101" y="1330" type="line"/>
      <point x="495" y="1330" type="line"/>
      <point x="246" y="1375" type="line"/>
      <point x="473" y="1183" type="line"/>
      <point x="830" y="800" type="line"/>
    </contour>
  </outline>
</glyph>
<glyph name="Omegagreek" format="1">
  <advance width="1600"/>
  <unicode hex="03A9"/>
  <outline>
    <contour>
      <point x="102" y="160" type="line" name="hr00"/>
      <point x="300" y="160" type="line"/>
      <point x="501" y="100" type="line"/>
      <point x="257" y="299" type="line"/>
      <point x="200" y="379"/>
      <point x="124" y="531"/>
      <point x="124" y="775" type="curve" smooth="yes"/>
      <point x="124" y="1215"/>
      <point x="370" y="1517"/>
      <point x="800" y="1517" type="curve" smooth="yes"/>
      <point x="1220" y="1517"/>
      <point x="1476" y="1215"/>
      <point x="1476" y="775" type="curve" smooth="yes"/>
      <point x="1476" y="532"/>
      <point x="1400" y="379"/>
      <point x="1349" y="304" type="curve"/>
      <point x="1099" y="100" type="line"/>
      <point x="1299" y="160" type="line"/>
      <point x="1497" y="160" type="line"/>
      <point x="1497" y="0" type="line"/>
      <point x="949" y="0" type="line"/>
      <point x="949" y="200" type="line"/>
      <point x="1137" y="282"/>
      <point x="1268" y="485"/>
      <point x="1268" y="744" type="curve" smooth="yes"/>
      <point x="1268" y="1063"/>
      <point x="1138" y="1347"/>
      <point x="794" y="1347" type="curve" smooth="yes"/>
      <point x="466" y="1347"/>
      <point x="332" y="1095"/>
      <point x="332" y="810" type="curve" smooth="yes"/>
      <point x="332" y="512"/>
      <point x="459" y="291"/>
      <point x="650" y="200" type="curve"/>
      <point x="650" y="0" type="line"/>
      <point x="102" y="0" type="line"/>
    </contour>
  </outline>
</glyph>
<glyph name="alpha" format="1">
  <advance width="1400"/>
  <unicode hex="03B1"/>
  <outline>
    <contour>
      <point x="1187" y="996" type="line"/>
      <point x="1110" y="939"/>
      <point x="1100" y="763"/>
      <point x="1100" y="552" type="qcurve"/>
      <point x="1100" y="338"/>
      <point x="1105" y="269" type="qcurve"/>
      <point x="1110" y="200"/>
      <point x="1174" y="121"/>
      <point x="1210" y="121" type="qcurve"/>
      <point x="1232" y="121"/>
      <point x="1254" y="124"/>
      <point x="1266" y="126" type="qcurve"/>
      <point x="1319" y="10" type="line"/>
      <point x="1263" y="-17"/>
      <point x="1200" y="-17" type="qcurve"/>
      <point x="1067" y="-17"/>
      <point x="999" y="52" type="qcurve"/>
      <point x="950" y="196" type="line"/>
      <point x="900" y="84" type="line"/>
      <point x="857" y="50"/>
      <point x="806" y="26" type="qcurve"/>
      <point x="713" y="-17"/>
      <point x="599" y="-17" type="qcurve"/>
      <point x="488" y="-17"/>
      <point x="305" y="70"/>
      <point x="173" y="223"/>
      <point x="100" y="432"/>
      <point x="100" y="553" type="qcurve"/>
      <point x="100" y="674"/>
      <point x="170" y="881"/>
      <point x="300" y="1032"/>
      <point x="485" y="1117"/>
      <point x="599" y="1117" type="qcurve"/>
      <point x="710" y="1117"/>
      <point x="802" y="1074" type="qcurve"/>
      <point x="857" y="1048"/>
      <point x="903" y="1011" type="qcurve"/>
      <point x="950" y="900" type="line"/>
      <point x="999" y="1038" type="line"/>
      <point x="1037" y="1072"/>
      <point x="1100" y="1100" type="qcurve"/>
    </contour>
    <contour>
      <point x="910" y="526" type="qcurve"/>
      <point x="910" y="607"/>
      <point x="875" y="763"/>
      <point x="799" y="886"/>
      <point x="679" y="962"/>
      <point x="595" y="962" type="qcurve"/>
      <point x="515" y="962"/>
      <point x="399" y="896"/>
      <point x="325" y="786"/>
      <point x="290" y="646"/>
      <point x="290" y="572" type="qcurve"/>
      <point x="290" y="491"/>
      <point x="325" y="335"/>
      <point x="400" y="213"/>
      <point x="519" y="138"/>
      <point x="603" y="138" type="qcurve"/>
      <point x="682" y="138"/>
      <point x="798" y="204"/>
      <point x="874" y="313"/>
      <point x="910" y="453"/>
    </contour>
  </outline>
</glyph>
<glyph name="beta" format="1">
  <advance width="1200"/>
  <unicode hex="03B2"/>
  <outline>
    <contour>
      <point x="622" y="-17" type="curve"/>
      <point x="681" y="-17"/>
      <point x="804" y="4"/>
      <point x="909" y="49"/>
      <point x="1010" y="122"/>
      <point x="1084" y="224"/>
      <point x="1128" y="358"/>
      <point x="1128" y="443" type="qcurve"/>
      <point x="1128" y="533"/>
      <point x="1083" y="645"/>
      <point x="1005" y="727"/>
      <point x="902" y="784"/>
      <point x="844" y="802" type="qcurve"/>
      <point x="704" y="816" type="line"/>
      <point x="850" y="860" type="line"/>
      <point x="932" y="902"/>
      <point x="1032" y="1060"/>
      <point x="1032" y="1169" type="qcurve" smooth="yes"/>
      <point x="1032" y="1280"/>
      <point x="993" y="1343"/>
      <point x="937" y="1405" type="curve" smooth="yes"/>
      <point x="869" y="1480"/>
      <point x="773" y="1517"/>
      <point x="644" y="1517" type="curve" smooth="yes"/>
      <point x="511" y="1517"/>
      <point x="384" y="1482"/>
      <point x="308" y="1412" type="curve" smooth="yes"/>
      <point x="231" y="1341"/>
      <point x="200" y="1242"/>
      <point x="200" y="1111" type="curve" smooth="yes"/>
      <point x="200" y="-500" type="line"/>
      <point x="400" y="-517" type="line"/>
      <point x="400" y="15" type="line"/>
      <point x="445" y="-1"/>
      <point x="531" y="-17"/>
    </contour>
    <contour>
      <point x="390" y="1160" type="line"/>
      <point x="390" y="1307"/>
      <point x="516" y="1369"/>
      <point x="641" y="1369" type="curve" smooth="yes"/>
      <point x="751" y="1369"/>
      <point x="850" y="1270"/>
      <point x="850" y="1148" type="curve"/>
      <point x="850" y="1077"/>
      <point x="795" y="977"/>
      <point x="705" y="914"/>
      <point x="549" y="885"/>
      <point x="470" y="885" type="qcurve"/>
      <point x="554" y="730" type="line"/>
      <point x="760" y="730"/>
      <point x="938" y="633"/>
      <point x="938" y="433" type="curve" smooth="yes"/>
      <point x="938" y="223"/>
      <point x="793" y="143"/>
      <point x="594" y="143" type="curve" smooth="yes"/>
      <point x="515" y="143"/>
      <point x="427" y="173"/>
      <point x="390" y="200" type="curve"/>
    </contour>
  </outline>
</glyph>
<glyph name="gamma" format="1">
  <advance width="1100"/>
  <unicode hex="03B3"/>
  <outline>
    <contour>
      <point x="0" y="1117" type="line"/>
      <point x="100" y="1117"/>
      <point x="223" y="1116"/>
      <point x="287" y="940" type="curve" smooth="yes"/>
      <point x="498" y="364" type="line"/>
      <point x="550" y="132" type="line"/>
      <point x="602" y="364" type="line"/>
      <point x="871" y="1100" type="line"/>
      <point x="1051" y="1117" type="line"/>
      <point x="643" y="-17" type="line"/>
      <point x="643" y="-500" type="line"/>
      <point x="643" y="-500"/>
      <point x="451" y="-500"/>
      <point x="451" y="-500" type="curve"/>
      <point x="451" y="-47" type="line"/>
      <point x="118" y="869" type="line" smooth="yes"/>
      <point x="75" y="987"/>
      <point x="0" y="987"/>
      <point x="0" y="987" type="curve"/>
    </contour>
  </outline>
</glyph>
<glyph name="epsilon" format="1">
  <advance width="1000"/>
  <unicode hex="03B5"/>
  <outline>
    <contour>
      <point x="720" y="633" type="line"/>
      <point x="700" y="500" type="line"/>
      <point x="446" y="500" type="line"/>
      <point x="349" y="500"/>
      <point x="260" y="417"/>
      <point x="260" y="312" type="curve" smooth="yes"/>
      <point x="260" y="208"/>
      <point x="367" y="137"/>
      <point x="515" y="137" type="curve" smooth="yes"/>
      <point x="672" y="137"/>
      <point x="755" y="200"/>
      <point x="755" y="200" type="curve"/>
      <point x="845" y="99" type="line"/>
      <point x="845" y="99"/>
      <point x="756" y="-17"/>
      <point x="475" y="-17" type="curve" smooth="yes"/>
      <point x="291" y="-17"/>
      <point x="70" y="90"/>
      <point x="70" y="313" type="curve" smooth="yes"/>
      <point x="70" y="427"/>
      <point x="121" y="511"/>
      <point x="199" y="564" type="curve"/>
      <point x="121" y="615"/>
      <point x="70" y="696"/>
      <point x="70" y="810" type="curve" smooth="yes"/>
      <point x="70" y="1033"/>
      <point x="291" y="1117"/>
      <point x="475" y="1117" type="curve" smooth="yes"/>
      <point x="625" y="1117"/>
      <point x="754" y="1064"/>
      <point x="754" y="1064" type="curve"/>
      <point x="698" y="944" type="line"/>
      <point x="698" y="944"/>
      <point x="615" y="963"/>
      <point x="515" y="963" type="curve" smooth="yes"/>
      <point x="367" y="963"/>
      <point x="260" y="885"/>
      <point x="260" y="791" type="curve" smooth="yes"/>
      <point x="260" y="705"/>
      <point x="347" y="633"/>
      <point x="446" y="633" type="curve"/>
    </contour>
  </outline>
</glyph>
<glyph name="eta" format="1">
  <advance width="1200"/>
  <unicode hex="03B7"/>
  <outline>
    <contour>
      <point x="390" y="0" type="line" name="hr00"/>
      <point x="200" y="0" type="line"/>
      <point x="200" y="1100" type="line"/>
      <point x="390" y="1120" type="line"/>
      <point x="390" y="937" type="line"/>
      <point x="451" y="1044" type="line"/>
      <point x="469" y="1056"/>
      <point x="525" y="1082"/>
      <point x="594" y="1103"/>
      <point x="674" y="1117"/>
      <point x="715" y="1117" type="qcurve"/>
      <point x="794" y="1117"/>
      <point x="903" y="1066"/>
      <point x="971" y="970"/>
      <point x="1000" y="834"/>
      <point x="1000" y="750" type="qcurve"/>
      <point x="1000" y="-500" type="line"/>
      <point x="810" y="-500" type="line"/>
      <point x="810" y="750" type="line"/>
      <point x="810" y="804"/>
      <point x="795" y="882"/>
      <point x="758" y="933"/>
      <point x="696" y="957"/>
      <point x="650" y="957" type="qcurve"/>
      <point x="616" y="957"/>
      <point x="546" y="936"/>
      <point x="479" y="903"/>
      <point x="416" y="863"/>
      <point x="390" y="844" type="qcurve"/>
    </contour>
  </outline>
</glyph>
<glyph name="theta" format="1">
  <advance width="1200"/>
  <unicode hex="03B8"/>
  <outline>
    <contour>
      <point x="600" y="-17" type="curve" smooth="yes" name="hr00"/>
      <point x="230" y="-17"/>
      <point x="100" y="400"/>
      <point x="100" y="750" type="curve" smooth="yes"/>
      <point x="100" y="1101"/>
      <point x="229" y="1517"/>
      <point x="600" y="1517" type="curve" smooth="yes"/>
      <point x="970" y="1517"/>
      <point x="1100" y="1101"/>
      <point x="1100" y="750" type="curve" smooth="yes"/>
      <point x="1100" y="401"/>
      <point x="970" y="-17"/>
    </contour>
    <contour>
      <point x="282" y="820" type="curve"/>
      <point x="918" y="820" type="line"/>
      <point x="906" y="1056"/>
      <point x="822" y="1354"/>
      <point x="600" y="1354" type="curve" smooth="yes"/>
      <point x="378" y="1354"/>
      <point x="294" y="1056"/>
    </contour>
    <contour>
      <point x="282" y="670" type="line"/>
      <point x="297" y="437"/>
      <point x="380" y="146"/>
      <point x="600" y="146" type="curve" smooth="yes"/>
      <point x="803" y="146"/>
      <point x="890" y="392"/>
      <point x="917" y="670" type="curve"/>
    </contour>
  </outline>
</glyph>
<glyph name="kappa" format="1">
  <advance width="1000"/>
  <unicode hex="03BA"/>
  <outline>
    <contour>
      <point x="200" y="0" type="line" name="dh01"/>
      <point x="200" y="919" type="line"/>
      <point x="180" y="1099" type="line"/>
      <point x="380" y="1119" type="line" name="sh01"/>
      <point x="380" y="644" type="line" name="iv01"/>
      <point x="750" y="1100" type="line"/>
      <point x="950" y="1121" type="line" name="av01"/>
      <point x="600" y="670" type="line"/>
      <point x="446" y="600" type="line" name="iv02"/>
      <point x="600" y="530" type="line"/>
      <point x="1000" y="0" type="line" name="ab01"/>
      <point x="800" y="0" type="line"/>
      <point x="380" y="554" type="line" name="iv03"/>
      <point x="380" y="0" type="line" name="dh02"/>
    </contour>
  </outline>
</glyph>
<glyph name="mugreek" format="1">
  <advance width="1200"/>
  <unicode hex="03BC"/>
  <outline>
    <contour>
      <point x="200" y="1100" type="line" name="hr00"/>
      <point x="390" y="1120" type="line"/>
      <point x="390" y="406" type="line"/>
      <point x="390" y="358"/>
      <point x="397" y="259"/>
      <point x="428" y="178"/>
      <point x="516" y="127"/>
      <point x="596" y="127" type="qcurve"/>
      <point x="656" y="127"/>
      <point x="767" y="173"/>
      <point x="810" y="222" type="qcurve"/>
      <point x="810" y="1100" type="line"/>
      <point x="1000" y="1120" type="line"/>
      <point x="1000" y="0" type="line"/>
      <point x="810" y="0" type="line"/>
      <point x="810" y="129" type="line"/>
      <point x="759" y="67"/>
      <point x="652" y="5"/>
      <point x="559" y="-15"/>
      <point x="510" y="-15" type="qcurve"/>
      <point x="473" y="-15"/>
      <point x="399" y="-2"/>
      <point x="370" y="11" type="qcurve"/>
      <point x="390" y="-150" type="line"/>
      <point x="390" y="-500" type="line"/>
      <point x="200" y="-500" type="line"/>
    </contour>
  </outline>
</glyph>
<glyph name="upsilon" format="1">
  <advance width="1200"/>
  <unicode hex="03C5"/>
  <outline>
    <contour>
      <point x="400" y="497" type="line"/>
      <point x="400" y="300"/>
      <point x="445" y="129"/>
      <point x="650" y="129" type="curve" smooth="yes"/>
      <point x="861" y="129"/>
      <point x="900" y="306"/>
      <point x="900" y="497" type="curve"/>
      <point x="900" y="732" type="line"/>
      <point x="900" y="946"/>
      <point x="762" y="1007"/>
      <point x="700" y="1007" type="curve"/>
      <point x="700" y="1117" type="line"/>
      <point x="921" y="1117"/>
      <point x="1090" y="983"/>
      <point x="1090" y="759" type="curve" smooth="yes"/>
      <point x="1090" y="495" type="line"/>
      <point x="1090" y="337"/>
      <point x="1079" y="-17"/>
      <point x="650" y="-17" type="curve" smooth="yes"/>
      <point x="238" y="-17"/>
      <point x="212" y="326"/>
      <point x="212" y="495" type="curve"/>
      <point x="212" y="845" type="line"/>
      <point x="212" y="925"/>
      <point x="186" y="974"/>
      <point x="124" y="974" type="curve" smooth="yes"/>
      <point x="59" y="974"/>
      <point x="15" y="925"/>
      <point x="15" y="845" type="curve"/>
      <point x="-99" y="845" type="line"/>
      <point x="-99" y="980"/>
      <point x="-17" y="1117"/>
      <point x="132" y="1117" type="curve" smooth="yes"/>
      <point x="291" y="1117"/>
      <point x="400" y="1007"/>
      <point x="400" y="845" type="curve"/>
    </contour>
  </outline>
</glyph>
<glyph name="omega" format="1">
  <advance width="1600"/>
  <unicode hex="03C9"/>
  <outline>
    <contour>
      <point x="700" y="745" type="line"/>
      <point x="700" y="482" type="line" smooth="yes"/>
      <point x="700" y="292"/>
      <point x="645" y="129"/>
      <point x="484" y="129" type="curve" smooth="yes"/>
      <point x="303" y="129"/>
      <point x="274" y="300"/>
      <point x="274" y="530" type="curve" smooth="yes"/>
      <point x="274" y="900"/>
      <point x="411" y="1007"/>
      <point x="473" y="1007" type="curve"/>
      <point x="473" y="1117" type="line"/>
      <point x="252" y="1117"/>
      <point x="84" y="860"/>
      <point x="84" y="560" type="curve" smooth="yes"/>
      <point x="84" y="360"/>
      <point x="95" y="-17"/>
      <point x="484" y="-17" type="curve" smooth="yes"/>
      <point x="638" y="-17"/>
      <point x="734" y="40"/>
      <point x="793" y="120" type="curve"/>
      <point x="852" y="40"/>
      <point x="948" y="-17"/>
      <point x="1103" y="-17" type="curve" smooth="yes"/>
      <point x="1492" y="-17"/>
      <point x="1503" y="360"/>
      <point x="1503" y="560" type="curve" smooth="yes"/>
      <point x="1503" y="860"/>
      <point x="1335" y="1117"/>
      <point x="1114" y="1117" type="curve"/>
      <point x="1114" y="1007" type="line"/>
      <point x="1176" y="1007"/>
      <point x="1313" y="900"/>
      <point x="1313" y="530" type="curve" smooth="yes"/>
      <point x="1313" y="300"/>
      <point x="1284" y="129"/>
      <point x="1103" y="129" type="curve" smooth="yes"/>
      <point x="942" y="129"/>
      <point x="887" y="292"/>
      <point x="887" y="482" type="curve" smooth="yes"/>
      <point x="887" y="725" type="line"/>
    </contour>
  </outline>
</glyph>
<glyph name="omega1" format="1">
  <advance width="1600"/>
  <unicode hex="03D6"/>
  <outline>
    <contour>
      <point x="1520" y="1100" type="line"/>
      <point x="100" y="1100" type="line"/>
      <point x="80" y="942" type="line"/>
      <point x="278" y="942" type="line"/>
      <point x="170" y="885" type="line"/>
      <point x="128" y="810"/>
      <point x="104" y="723"/>
      <point x="104" y="495" type="curve"/>
      <point x="104" y="337"/>
      <point x="135" y="-17"/>
      <point x="504" y="-17" type="curve" smooth="yes"/>
      <point x="658" y="-17"/>
      <point x="734" y="40"/>
      <point x="793" y="120" type="curve"/>
      <point x="852" y="40"/>
      <point x="928" y="-17"/>
      <point x="1083" y="-17" type="curve" smooth="yes"/>
      <point x="1452" y="-17"/>
      <point x="1483" y="337"/>
      <point x="1483" y="495" type="curve" smooth="yes"/>
      <point x="1483" y="723"/>
      <point x="1459" y="810"/>
      <point x="1417" y="885" type="curve"/>
      <point x="1309" y="942" type="line"/>
      <point x="1500" y="942" type="line"/>
    </contour>
    <contour>
      <point x="700" y="745" type="line"/>
      <point x="700" y="482" type="line" smooth="yes"/>
      <point x="700" y="292"/>
      <point x="665" y="129"/>
      <point x="504" y="129" type="curve" smooth="yes"/>
      <point x="343" y="129"/>
      <point x="294" y="306"/>
      <point x="294" y="497" type="curve" smooth="yes"/>
      <point x="294" y="785"/>
      <point x="348" y="889"/>
      <point x="404" y="942" type="curve"/>
      <point x="1182" y="942" type="line"/>
      <point x="1238" y="889"/>
      <point x="1293" y="785"/>
      <point x="1293" y="497" type="curve"/>
      <point x="1293" y="306"/>
      <point x="1244" y="129"/>
      <point x="1083" y="129" type="curve" smooth="yes"/>
      <point x="922" y="129"/>
      <point x="887" y="292"/>
      <point x="887" y="482" type="curve" smooth="yes"/>
      <point x="887" y="725" type="line"/>
    </contour>
  </outline>
</glyph>
<glyph name="emdash" format="1">
  <advance width="2100"/>
  <unicode hex="2014"/>
  <outline>
    <contour>
      <point x="0" y="446" type="line"/>
      <point x="1" y="446"/>
      <point x="2000" y="446"/>
      <point x="2000" y="446" type="curve"/>
      <point x="2000" y="600" type="line"/>
      <point x="2000" y="600"/>
      <point x="0" y="600"/>
      <point x="0" y="600" type="curve"/>
    </contour>
  </outline>
</glyph>
<glyph name="quotationdash" format="1">
  <advance width="1600"/>
  <unicode hex="2015"/>
  <outline>
    <contour>
      <point x="200" y="600" type="line"/>
      <point x="1400" y="600" type="line"/>
      <point x="1400" y="445" type="line"/>
      <point x="200" y="445" type="line"/>
    </contour>
  </outline>
</glyph>
<glyph name="dagger" format="1">
  <advance width="1100"/>
  <unicode hex="2020"/>
  <outline>
    <contour>
      <point x="100" y="1049" type="line" name="at02"/>
      <point x="400" y="1049" type="line" name="dh01"/>
      <point x="400" y="1500" type="line"/>
      <point x="600" y="1520" type="line" name="at01"/>
      <point x="600" y="1049" type="line" name="dh02"/>
      <point x="920" y="1049" type="line"/>
      <point x="900" y="900" type="line" name="sv01"/>
      <point x="600" y="900" type="line" name="sh01"/>
      <point x="600" y="-400" type="line" name="av01"/>
      <point x="400" y="-400" type="line" name="sh02"/>
      <point x="400" y="900" type="line" name="sv02"/>
      <point x="100" y="900" type="line" name="sv03"/>
    </contour>
  </outline>
</glyph>
<glyph name="bullet" format="1">
  <advance width="1200"/>
  <unicode hex="2022"/>
  <outline>
    <contour>
      <point x="298" y="807" type="curve" smooth="yes"/>
      <point x="298" y="646"/>
      <point x="434" y="508"/>
      <point x="595" y="508" type="curve" smooth="yes"/>
      <point x="755" y="508"/>
      <point x="886" y="646"/>
      <point x="886" y="807" type="curve" smooth="yes"/>
      <point x="886" y="967"/>
      <point x="752" y="1100"/>
      <point x="592" y="1100" type="curve" smooth="yes"/>
      <point x="432" y="1100"/>
      <point x="298" y="967"/>
    </contour>
  </outline>
</glyph>
<glyph name="pertenthousandsign" format="1">
  <advance width="3300"/>
  <unicode hex="2031"/>
  <outline>
    <contour>
      <point x="2100" y="-17" type="curve" smooth="yes"/>
      <point x="1904" y="-17"/>
      <point x="1767" y="147"/>
      <point x="1767" y="363" type="curve" smooth="yes"/>
      <point x="1767" y="577"/>
      <point x="1896" y="736"/>
      <point x="2100" y="736" type="curve" smooth="yes"/>
      <point x="2295" y="736"/>
      <point x="2432" y="577"/>
      <point x="2432" y="363" type="curve" smooth="yes"/>
      <point x="2432" y="147"/>
      <point x="2302" y="-17"/>
    </contour>
    <contour>
      <point x="2276" y="352" type="curve" smooth="yes"/>
      <point x="2276" y="473"/>
      <point x="2226" y="597"/>
      <point x="2099" y="597" type="curve" smooth="yes"/>
      <point x="1979" y="597"/>
      <point x="1928" y="489"/>
      <point x="1928" y="378" type="curve" smooth="yes"/>
      <point x="1928" y="256"/>
      <point x="1978" y="135"/>
      <point x="2104" y="135" type="curve" smooth="yes"/>
      <point x="2223" y="135"/>
      <point x="2276" y="243"/>
    </contour>
    <contour>
      <point x="2800" y="-17" type="curve" smooth="yes"/>
      <point x="2604" y="-17"/>
      <point x="2467" y="147"/>
      <point x="2467" y="363" type="curve" smooth="yes"/>
      <point x="2467" y="577"/>
      <point x="2596" y="736"/>
      <point x="2800" y="736" type="curve" smooth="yes"/>
      <point x="2995" y="736"/>
      <point x="3132" y="577"/>
      <point x="3132" y="363" type="curve" smooth="yes"/>
      <point x="3132" y="147"/>
      <point x="3002" y="-17"/>
    </contour>
    <contour>
      <point x="2976" y="352" type="curve" smooth="yes"/>
      <point x="2976" y="473"/>
      <point x="2926" y="597"/>
      <point x="2799" y="597" type="curve" smooth="yes"/>
      <point x="2679" y="597"/>
      <point x="2628" y="489"/>
      <point x="2628" y="378" type="curve" smooth="yes"/>
      <point x="2628" y="256"/>
      <point x="2678" y="135"/>
      <point x="2804" y="135" type="curve" smooth="yes"/>
      <point x="2923" y="135"/>
      <point x="2976" y="243"/>
    </contour>
    <component base="percent"/>
  </outline>
</glyph>
<glyph name="minute" format="1">
  <advance width="500"/>
  <unicode hex="2032"/>
  <outline>
    <contour>
      <point x="348" y="1245" type="line"/>
      <point x="184" y="885" type="line"/>
      <point x="99" y="885" type="line"/>
      <point x="169" y="1245" type="line"/>
      <point x="169" y="1517" type="line"/>
      <point x="348" y="1493" type="line"/>
    </contour>
  </outline>
</glyph>
<glyph name="guilsinglright" format="1">
  <advance width="900"/>
  <unicode hex="203A"/>
  <outline>
    <contour>
      <point x="700" y="617" type="line"/>
      <point x="700" y="478" type="line"/>
      <point x="232" y="66" type="line"/>
      <point x="178" y="201" type="line"/>
      <point x="506" y="490" type="line"/>
      <point x="643" y="550" type="line"/>
      <point x="505" y="610" type="line"/>
      <point x="180" y="901" type="line"/>
      <point x="230" y="1026" type="line"/>
    </contour>
  </outline>
</glyph>
<glyph name="fivesuperior" format="1">
  <advance width="600"/>
  <unicode hex="2075"/>
  <outline>
    <contour>
      <point x="204" y="1211" type="line" name="hr00"/>
      <point x="207" y="1213"/>
      <point x="225" y="1222"/>
      <point x="251" y="1231"/>
      <point x="284" y="1237"/>
      <point x="305" y="1237" type="qcurve"/>
      <point x="357" y="1237"/>
      <point x="438" y="1205"/>
      <point x="495" y="1148"/>
      <point x="524" y="1072"/>
      <point x="524" y="1029" type="qcurve"/>
      <point x="524" y="979"/>
      <point x="488" y="893"/>
      <point x="426" y="825"/>
      <point x="342" y="773"/>
      <point x="248" y="737"/>
      <point x="148" y="720"/>
      <point x="100" y="720" type="qcurve"/>
      <point x="100" y="800" type="line"/>
      <point x="137" y="801"/>
      <point x="214" y="817"/>
      <point x="286" y="845"/>
      <point x="348" y="884"/>
      <point x="395" y="931"/>
      <point x="422" y="987"/>
      <point x="422" y="1019" type="qcurve"/>
      <point x="422" y="1044"/>
      <point x="405" y="1092"/>
      <point x="373" y="1130"/>
      <point x="324" y="1153"/>
      <point x="291" y="1153" type="qcurve"/>
      <point x="266" y="1153"/>
      <point x="225" y="1146"/>
      <point x="192" y="1137"/>
      <point x="169" y="1125"/>
      <point x="162" y="1120" type="qcurve"/>
      <point x="100" y="1120" type="line"/>
      <point x="100" y="1470" type="line"/>
      <point x="476" y="1470" type="line"/>
      <point x="476" y="1390" type="line"/>
      <point x="204" y="1390" type="line"/>
    </contour>
  </outline>
</glyph>
<glyph name="sixsuperior" format="1">
  <advance width="600"/>
  <unicode hex="2076"/>
  <outline>
    <contour>
      <point x="464" y="1392" type="line" name="hr00"/>
      <point x="461" y="1393"/>
      <point x="447" y="1393"/>
      <point x="442" y="1393" type="qcurve"/>
      <point x="406" y="1393"/>
      <point x="338" y="1371"/>
      <point x="278" y="1330"/>
      <point x="227" y="1273"/>
      <point x="189" y="1204"/>
      <point x="164" y="1126"/>
      <point x="160" y="1085" type="qcurve"/>
      <point x="201" y="1143" type="line"/>
      <point x="214" y="1151"/>
      <point x="247" y="1166"/>
      <point x="284" y="1177"/>
      <point x="322" y="1183"/>
      <point x="339" y="1183" type="qcurve"/>
      <point x="383" y="1183"/>
      <point x="463" y="1159"/>
      <point x="526" y="1109"/>
      <point x="563" y="1031"/>
      <point x="563" y="976" type="qcurve"/>
      <point x="563" y="922"/>
      <point x="527" y="826"/>
      <point x="461" y="753"/>
      <point x="369" y="711"/>
      <point x="313" y="711" type="qcurve"/>
      <point x="264" y="711"/>
      <point x="188" y="743"/>
      <point x="132" y="795"/>
      <point x="95" y="862"/>
      <point x="71" y="932"/>
      <point x="61" y="1001"/>
      <point x="61" y="1030" type="qcurve"/>
      <point x="61" y="1089"/>
      <point x="86" y="1202"/>
      <point x="132" y="1302"/>
      <point x="199" y="1385"/>
      <point x="285" y="1445"/>
      <point x="387" y="1478"/>
      <point x="446" y="1478" type="qcurve"/>
      <point x="454" y="1478"/>
      <point x="472" y="1478"/>
      <point x="477" y="1477" type="qcurve"/>
    </contour>
    <contour>
      <point x="164" y="1018" type="qcurve"/>
      <point x="164" y="1004"/>
      <point x="165" y="981"/>
      <point x="167" y="959"/>
      <point x="171" y="937"/>
      <point x="175" y="923" type="qcurve"/>
      <point x="182" y="895"/>
      <point x="206" y="848"/>
      <point x="240" y="815"/>
      <point x="286" y="796"/>
      <point x="314" y="796" type="qcurve"/>
      <point x="354" y="796"/>
      <point x="409" y="826"/>
      <point x="444" y="876"/>
      <point x="461" y="939"/>
      <point x="461" y="971" type="qcurve"/>
      <point x="461" y="1003"/>
      <point x="442" y="1051"/>
      <point x="408" y="1082"/>
      <point x="361" y="1098"/>
      <point x="332" y="1098" type="qcurve"/>
      <point x="305" y="1098"/>
      <point x="254" y="1085"/>
      <point x="209" y="1063"/>
      <point x="175" y="1034"/>
    </contour>
  </outline>
</glyph>
<glyph name="sevensuperior" format="1">
  <advance width="600"/>
  <unicode hex="2077"/>
  <outline>
    <contour>
      <point x="100" y="1470" type="line" name="hr00"/>
      <point x="550" y="1470" type="line"/>
      <point x="550" y="1405" type="line"/>
      <point x="550" y="1383"/>
      <point x="517" y="1316"/>
      <point x="467" y="1232"/>
      <point x="408" y="1135"/>
      <point x="354" y="1034"/>
      <point x="314" y="932"/>
      <point x="309" y="884" type="qcurve"/>
      <point x="306" y="864"/>
      <point x="304" y="820"/>
      <point x="302" y="777"/>
      <point x="302" y="737"/>
      <point x="302" y="720" type="qcurve"/>
      <point x="200" y="720" type="line"/>
      <point x="200" y="735"/>
      <point x="200" y="785"/>
      <point x="202" y="841"/>
      <point x="207" y="896"/>
      <point x="211" y="916" type="qcurve"/>
      <point x="222" y="969"/>
      <point x="265" y="1073"/>
      <point x="316" y="1168"/>
      <point x="369" y="1253"/>
      <point x="412" y="1323"/>
      <point x="439" y="1375"/>
      <point x="439" y="1390" type="qcurve"/>
      <point x="100" y="1390" type="line"/>
    </contour>
  </outline>
</glyph>
<glyph name="nsuperior" format="1">
  <advance width="600"/>
  <unicode hex="207F"/>
  <outline>
    <contour>
      <point x="195" y="720" type="line" name="hr00"/>
      <point x="100" y="720" type="line"/>
      <point x="100" y="1270" type="line"/>
      <point x="195" y="1280" type="line"/>
      <point x="195" y="1188" type="line"/>
      <point x="225" y="1242" type="line"/>
      <point x="234" y="1248"/>
      <point x="262" y="1261"/>
      <point x="297" y="1271"/>
      <point x="337" y="1278"/>
      <point x="357" y="1278" type="qcurve"/>
      <point x="397" y="1278"/>
      <point x="451" y="1253"/>
      <point x="485" y="1205"/>
      <point x="500" y="1137"/>
      <point x="500" y="1095" type="qcurve"/>
      <point x="500" y="720" type="line"/>
      <point x="405" y="720" type="line"/>
      <point x="405" y="1095" type="line"/>
      <point x="405" y="1122"/>
      <point x="397" y="1161"/>
      <point x="379" y="1186"/>
      <point x="348" y="1198"/>
      <point x="325" y="1198" type="qcurve"/>
      <point x="308" y="1198"/>
      <point x="273" y="1188"/>
      <point x="239" y="1171"/>
      <point x="208" y="1151"/>
      <point x="195" y="1142" type="qcurve"/>
    </contour>
  </outline>
</glyph>
<glyph name="zeroinferior" format="1">
  <advance width="600"/>
  <unicode hex="2080"/>
  <outline>
    <contour>
      <point x="300" y="-509" type="qcurve" name="hr00"/>
      <point x="257" y="-509"/>
      <point x="186" y="-476"/>
      <point x="130" y="-420"/>
      <point x="87" y="-345"/>
      <point x="59" y="-260"/>
      <point x="45" y="-169"/>
      <point x="45" y="-125" type="qcurve"/>
      <point x="45" y="-80"/>
      <point x="57" y="12"/>
      <point x="83" y="97"/>
      <point x="123" y="171"/>
      <point x="180" y="226"/>
      <point x="253" y="258"/>
      <point x="300" y="258" type="qcurve"/>
      <point x="342" y="258"/>
      <point x="413" y="226"/>
      <point x="470" y="170"/>
      <point x="512" y="95"/>
      <point x="541" y="9"/>
      <point x="555" y="-82"/>
      <point x="555" y="-125" type="qcurve"/>
      <point x="555" y="-170"/>
      <point x="543" y="-262"/>
      <point x="517" y="-347"/>
      <point x="476" y="-422"/>
      <point x="420" y="-477"/>
      <point x="346" y="-509"/>
    </contour>
    <contour>
      <point x="148" y="-104" type="qcurve"/>
      <point x="148" y="-133"/>
      <point x="152" y="-202"/>
      <point x="164" y="-273"/>
      <point x="186" y="-339"/>
      <point x="220" y="-390"/>
      <point x="270" y="-421"/>
      <point x="304" y="-421" type="qcurve"/>
      <point x="334" y="-421"/>
      <point x="380" y="-398"/>
      <point x="413" y="-357"/>
      <point x="434" y="-304"/>
      <point x="446" y="-243"/>
      <point x="451" y="-178"/>
      <point x="451" y="-147" type="qcurve"/>
      <point x="451" y="-118"/>
      <point x="447" y="-48"/>
      <point x="435" y="22"/>
      <point x="414" y="88"/>
      <point x="379" y="139"/>
      <point x="330" y="170"/>
      <point x="296" y="170" type="qcurve"/>
      <point x="265" y="170"/>
      <point x="220" y="147"/>
      <point x="187" y="107"/>
      <point x="166" y="53"/>
      <point x="153" y="-8"/>
      <point x="148" y="-73"/>
    </contour>
  </outline>
</glyph>
<glyph name="oneinferior" format="1">
  <advance width="600"/>
  <unicode hex="2081"/>
  <outline>
    <contour>
      <point x="175" y="-500" type="line" name="hr00"/>
      <point x="175" y="-420" type="line"/>
      <point x="297" y="-420" type="line"/>
      <point x="297" y="63" type="line"/>
      <point x="326" y="176" type="line"/>
      <point x="258" y="83" type="line"/>
      <point x="152" y="-11" type="line"/>
      <point x="98" y="50" type="line"/>
      <point x="327" y="260" type="line"/>
      <point x="402" y="250" type="line"/>
      <point x="402" y="-420" type="line"/>
      <point x="525" y="-420" type="line"/>
      <point x="525" y="-500" type="line"/>
    </contour>
  </outline>
</glyph>
<glyph name="threeinferior" format="1">
  <advance width="600"/>
  <unicode hex="2083"/>
  <outline>
    <contour>
      <point x="107" y="170" type="line" name="hr00"/>
      <point x="115" y="250" type="line"/>
      <point x="480" y="250" type="line"/>
      <point x="480" y="180" type="line"/>
      <point x="474" y="160"/>
      <point x="445" y="116"/>
      <point x="407" y="72"/>
      <point x="361" y="29"/>
      <point x="338" y="9" type="qcurve"/>
      <point x="272" y="-28" type="line"/>
      <point x="277" y="-27"/>
      <point x="293" y="-26"/>
      <point x="300" y="-26" type="qcurve"/>
      <point x="348" y="-26"/>
      <point x="432" y="-50"/>
      <point x="493" y="-99"/>
      <point x="529" y="-173"/>
      <point x="529" y="-224" type="qcurve"/>
      <point x="529" y="-272"/>
      <point x="493" y="-351"/>
      <point x="430" y="-413"/>
      <point x="346" y="-457"/>
      <point x="251" y="-486"/>
      <point x="149" y="-500"/>
      <point x="100" y="-500" type="qcurve"/>
      <point x="100" y="-420" type="line"/>
      <point x="141" y="-419"/>
      <point x="221" y="-407"/>
      <point x="293" y="-385"/>
      <point x="354" y="-354"/>
      <point x="399" y="-313"/>
      <point x="424" y="-261"/>
      <point x="424" y="-229" type="qcurve"/>
      <point x="424" y="-193"/>
      <point x="393" y="-145"/>
      <point x="340" y="-117"/>
      <point x="269" y="-105"/>
      <point x="228" y="-105" type="qcurve"/>
      <point x="212" y="-105"/>
      <point x="174" y="-107"/>
      <point x="159" y="-108" type="qcurve"/>
      <point x="159" y="-30" type="line"/>
      <point x="180" y="-15"/>
      <point x="228" y="23"/>
      <point x="277" y="64"/>
      <point x="323" y="107"/>
      <point x="361" y="145"/>
      <point x="387" y="178"/>
      <point x="391" y="190" type="qcurve"/>
      <point x="315" y="170" type="line"/>
    </contour>
  </outline>
</glyph>
<glyph name="fourinferior" format="1">
  <advance width="600"/>
  <unicode hex="2084"/>
  <outline>
    <contour>
      <point x="542" y="-350" type="line" name="hr00"/>
      <point x="452" y="-350" type="line"/>
      <point x="452" y="-500" type="line"/>
      <point x="347" y="-500" type="line"/>
      <point x="347" y="-350" type="line"/>
      <point x="50" y="-350" type="line"/>
      <point x="50" y="-265" type="line"/>
      <point x="292" y="260" type="line"/>
      <point x="386" y="250" type="line"/>
      <point x="179" y="-200" type="line"/>
      <point x="132" y="-270" type="line"/>
      <point x="347" y="-270" type="line"/>
      <point x="347" y="-67" type="line"/>
      <point x="452" y="-75" type="line"/>
      <point x="452" y="-270" type="line"/>
      <point x="550" y="-270" type="line"/>
    </contour>
  </outline>
</glyph>
<glyph name="fiveinferior" format="1">
  <advance width="600"/>
  <unicode hex="2085"/>
  <outline>
    <contour>
      <point x="204" y="-9" type="line" name="hr00"/>
      <point x="207" y="-7"/>
      <point x="225" y="2"/>
      <point x="251" y="11"/>
      <point x="284" y="17"/>
      <point x="305" y="17" type="qcurve"/>
      <point x="357" y="17"/>
      <point x="438" y="-15"/>
      <point x="495" y="-72"/>
      <point x="524" y="-148"/>
      <point x="524" y="-191" type="qcurve"/>
      <point x="524" y="-241"/>
      <point x="488" y="-327"/>
      <point x="426" y="-395"/>
      <point x="342" y="-447"/>
      <point x="248" y="-483"/>
      <point x="148" y="-500"/>
      <point x="100" y="-500" type="qcurve"/>
      <point x="100" y="-420" type="line"/>
      <point x="137" y="-419"/>
      <point x="214" y="-403"/>
      <point x="286" y="-375"/>
      <point x="348" y="-336"/>
      <point x="395" y="-289"/>
      <point x="422" y="-233"/>
      <point x="422" y="-201" type="qcurve"/>
      <point x="422" y="-176"/>
      <point x="405" y="-128"/>
      <point x="373" y="-90"/>
      <point x="324" y="-67"/>
      <point x="291" y="-67" type="qcurve"/>
      <point x="266" y="-67"/>
      <point x="225" y="-74"/>
      <point x="192" y="-83"/>
      <point x="169" y="-95"/>
      <point x="162" y="-100" type="qcurve"/>
      <point x="100" y="-100" type="line"/>
      <point x="100" y="250" type="line"/>
      <point x="476" y="250" type="line"/>
      <point x="476" y="170" type="line"/>
      <point x="204" y="170" type="line"/>
    </contour>
  </outline>
</glyph>
<glyph name="seveninferior" format="1">
  <advance width="600"/>
  <unicode hex="2087"/>
  <outline>
    <contour>
      <point x="100" y="250" type="line" name="hr00"/>
      <point x="550" y="250" type="line"/>
      <point x="550" y="185" type="line"/>
      <point x="550" y="163"/>
      <point x="517" y="96"/>
      <point x="467" y="12"/>
      <point x="408" y="-85"/>
      <point x="354" y="-186"/>
      <point x="314" y="-288"/>
      <point x="309" y="-336" type="qcurve"/>
      <point x="306" y="-356"/>
      <point x="304" y="-400"/>
      <point x="302" y="-443"/>
      <point x="302" y="-483"/>
      <point x="302" y="-500" type="qcurve"/>
      <point x="200" y="-500" type="line"/>
      <point x="200" y="-485"/>
      <point x="200" y="-435"/>
      <point x="202" y="-379"/>
      <point x="207" y="-324"/>
      <point x="211" y="-304" type="qcurve"/>
      <point x="222" y="-251"/>
      <point x="265" y="-147"/>
      <point x="316" y="-52"/>
      <point x="369" y="33"/>
      <point x="412" y="103"/>
      <point x="439" y="155"/>
      <point x="439" y="170" type="qcurve"/>
      <point x="100" y="170" type="line"/>
    </contour>
  </outline>
</glyph>
<glyph name="heightinferior" format="1">
  <advance width="600"/>
  <unicode hex="2088"/>
  <outline>
    <contour>
      <point x="305" y="258" type="qcurve" name="hr00"/>
      <point x="351" y="258"/>
      <point x="429" y="233"/>
      <point x="485" y="186"/>
      <point x="517" y="119"/>
      <point x="517" y="77" type="qcurve"/>
      <point x="517" y="48"/>
      <point x="500" y="2"/>
      <point x="470" y="-35"/>
      <point x="430" y="-64"/>
      <point x="408" y="-77" type="qcurve"/>
      <point x="445" y="-94"/>
      <point x="504" y="-136"/>
      <point x="544" y="-190"/>
      <point x="566" y="-256"/>
      <point x="566" y="-295" type="qcurve"/>
      <point x="566" y="-351"/>
      <point x="522" y="-431"/>
      <point x="449" y="-484"/>
      <point x="357" y="-509"/>
      <point x="308" y="-509" type="qcurve"/>
      <point x="261" y="-509"/>
      <point x="173" y="-480"/>
      <point x="105" y="-425"/>
      <point x="64" y="-342"/>
      <point x="64" y="-288" type="qcurve"/>
      <point x="64" y="-248"/>
      <point x="87" y="-183"/>
      <point x="127" y="-131"/>
      <point x="182" y="-91"/>
      <point x="214" y="-75" type="qcurve"/>
      <point x="191" y="-61"/>
      <point x="150" y="-30"/>
      <point x="120" y="6"/>
      <point x="102" y="47"/>
      <point x="102" y="72" type="qcurve"/>
      <point x="102" y="120"/>
      <point x="141" y="191"/>
      <point x="201" y="236"/>
      <point x="272" y="258"/>
    </contour>
    <contour>
      <point x="300" y="-120" type="qcurve"/>
      <point x="268" y="-134"/>
      <point x="218" y="-166"/>
      <point x="182" y="-208"/>
      <point x="163" y="-260"/>
      <point x="163" y="-293" type="qcurve"/>
      <point x="163" y="-323"/>
      <point x="187" y="-372"/>
      <point x="228" y="-408"/>
      <point x="281" y="-427"/>
      <point x="309" y="-427" type="qcurve"/>
      <point x="341" y="-427"/>
      <point x="398" y="-409"/>
      <point x="442" y="-375"/>
      <point x="467" y="-325"/>
      <point x="467" y="-293" type="qcurve"/>
      <point x="467" y="-259"/>
      <point x="437" y="-207"/>
      <point x="390" y="-165"/>
      <point x="330" y="-133"/>
    </contour>
    <contour>
      <point x="320" y="-39" type="qcurve"/>
      <point x="366" y="-18"/>
      <point x="421" y="40"/>
      <point x="421" y="81" type="qcurve"/>
      <point x="421" y="106"/>
      <point x="400" y="142"/>
      <point x="369" y="165"/>
      <point x="332" y="176"/>
      <point x="315" y="176" type="qcurve"/>
      <point x="292" y="176"/>
      <point x="250" y="162"/>
      <point x="218" y="137"/>
      <point x="199" y="103"/>
      <point x="199" y="83" type="qcurve"/>
      <point x="199" y="60"/>
      <point x="218" y="25"/>
      <point x="252" y="-4"/>
      <point x="296" y="-28"/>
    </contour>
  </outline>
</glyph>
<glyph name="Euro" format="1">
  <advance width="1400"/>
  <unicode hex="20AC"/>
  <outline>
    <contour>
      <point x="369" y="596" type="line"/>
      <point x="402" y="685" type="line"/>
      <point x="399" y="715"/>
      <point x="398" y="744"/>
      <point x="398" y="773" type="curve" smooth="yes"/>
      <point x="398" y="799"/>
      <point x="398" y="825"/>
      <point x="400" y="850" type="curve"/>
      <point x="952" y="850" type="line"/>
      <point x="1030" y="1000" type="line"/>
      <point x="473" y="1000" type="line"/>
      <point x="415" y="963" type="line"/>
      <point x="460" y="1185"/>
      <point x="591" y="1348"/>
      <point x="847" y="1348" type="curve" smooth="yes"/>
      <point x="970" y="1348"/>
      <point x="1078" y="1312"/>
      <point x="1161" y="1252" type="curve"/>
      <point x="1224" y="1373" type="line"/>
      <point x="1128" y="1465"/>
      <point x="984" y="1517"/>
      <point x="831" y="1517" type="curve" smooth="yes"/>
      <point x="478" y="1517"/>
      <point x="278" y="1295"/>
      <point x="213" y="1000" type="curve"/>
      <point x="48" y="1000" type="line"/>
      <point x="48" y="850" type="line"/>
      <point x="192" y="850" type="line"/>
      <point x="190" y="823"/>
      <point x="189" y="797"/>
      <point x="189" y="770" type="curve" smooth="yes"/>
      <point x="189" y="729"/>
      <point x="191" y="690"/>
      <point x="195" y="651" type="curve"/>
      <point x="48" y="651" type="line"/>
      <point x="48" y="500" type="line"/>
      <point x="222" y="500" type="line"/>
      <point x="299" y="200"/>
      <point x="507" y="-17"/>
      <point x="808" y="-17" type="curve" smooth="yes"/>
      <point x="964" y="-17"/>
      <point x="1097" y="17"/>
      <point x="1206" y="104" type="curve"/>
      <point x="1129" y="230" type="line"/>
      <point x="1025" y="172"/>
      <point x="954" y="153"/>
      <point x="834" y="153" type="curve" smooth="yes"/>
      <point x="625" y="153"/>
      <point x="499" y="312"/>
      <point x="439" y="500" type="curve"/>
      <point x="771" y="500" type="line"/>
      <point x="850" y="651" type="line"/>
      <point x="453" y="651" type="line"/>
    </contour>
  </outline>
</glyph>
<glyph name="Ifraktur" format="1">
  <advance width="1100"/>
  <unicode hex="2111"/>
  <outline>
    <contour>
      <point x="248" y="1400" type="curve"/>
      <point x="958" y="1400" type="line"/>
      <point x="932" y="1216" type="line"/>
      <point x="829" y="1155"/>
      <point x="720" y="1022"/>
      <point x="720" y="926" type="curve" smooth="yes"/>
      <point x="720" y="750"/>
      <point x="1000" y="520"/>
      <point x="1000" y="251" type="curve" smooth="yes"/>
      <point x="1000" y="54"/>
      <point x="795" y="-17"/>
      <point x="662" y="-17" type="curve" smooth="yes"/>
      <point x="525" y="-17"/>
      <point x="382" y="55"/>
      <point x="318" y="102" type="curve"/>
      <point x="300" y="200" type="line"/>
      <point x="150" y="66" type="line"/>
      <point x="31" y="156" type="line"/>
      <point x="260" y="353" type="line"/>
      <point x="364" y="255"/>
      <point x="569" y="164"/>
      <point x="678" y="164" type="curve" smooth="yes"/>
      <point x="736" y="164"/>
      <point x="790" y="189"/>
      <point x="790" y="252" type="curve" smooth="yes"/>
      <point x="790" y="401"/>
      <point x="500" y="700"/>
      <point x="500" y="900" type="curve" smooth="yes"/>
      <point x="500" y="970"/>
      <point x="558" y="1104"/>
      <point x="724" y="1216" type="curve"/>
      <point x="300" y="1216" type="line"/>
      <point x="269" y="1185"/>
      <point x="261" y="1147"/>
      <point x="261" y="1107" type="curve" smooth="yes"/>
      <point x="261" y="1061"/>
      <point x="290" y="1007"/>
      <point x="290" y="1007" type="curve"/>
      <point x="184" y="947" type="line"/>
      <point x="145" y="1002"/>
      <point x="125" y="1060"/>
      <point x="125" y="1121" type="curve" smooth="yes"/>
      <point x="125" y="1208"/>
      <point x="166" y="1301"/>
    </contour>
  </outline>
</glyph>
<glyph name="weierstrass" format="1">
  <advance width="1667"/>
  <unicode hex="2118"/>
  <outline>
    <contour>
      <point x="339" y="-358" type="curve" smooth="yes"/>
      <point x="406" y="-358"/>
      <point x="446" y="-253"/>
      <point x="446" y="-161" type="curve" smooth="yes"/>
      <point x="446" y="-64"/>
      <point x="413" y="84"/>
      <point x="382" y="168" type="curve"/>
      <point x="382" y="254" type="line"/>
      <point x="297" y="110"/>
      <point x="229" y="-71"/>
      <point x="229" y="-236" type="curve" smooth="yes"/>
      <point x="229" y="-314"/>
      <point x="272" y="-358"/>
    </contour>
    <contour>
      <point x="720" y="1031" type="line"/>
      <point x="555" y="999"/>
      <point x="371" y="857"/>
      <point x="371" y="620" type="curve" smooth="yes"/>
      <point x="371" y="592"/>
      <point x="375" y="560"/>
      <point x="382" y="528" type="curve"/>
      <point x="382" y="406" type="line"/>
      <point x="572" y="703"/>
      <point x="819" y="997"/>
      <point x="1143" y="997" type="curve" smooth="yes"/>
      <point x="1346" y="997"/>
      <point x="1477" y="885"/>
      <point x="1477" y="630" type="curve" smooth="yes"/>
      <point x="1477" y="249"/>
      <point x="1270" y="-17"/>
      <point x="955" y="-17" type="curve" smooth="yes"/>
      <point x="832" y="-17"/>
      <point x="698" y="72"/>
      <point x="698" y="221" type="curve" smooth="yes"/>
      <point x="698" y="520"/>
      <point x="970" y="600"/>
      <point x="1035" y="610" type="curve"/>
      <point x="1065" y="470" type="line"/>
      <point x="999" y="442"/>
      <point x="827" y="365"/>
      <point x="827" y="194" type="curve" smooth="yes"/>
      <point x="827" y="128"/>
      <point x="882" y="91"/>
      <point x="945" y="91" type="curve" smooth="yes"/>
      <point x="1211" y="91"/>
      <point x="1295" y="431"/>
      <point x="1295" y="633" type="curve" smooth="yes"/>
      <point x="1295" y="748"/>
      <point x="1257" y="860"/>
      <point x="1119" y="860" type="curve" smooth="yes"/>
      <point x="825" y="860"/>
      <point x="589" y="557"/>
      <point x="446" y="353" type="curve"/>
      <point x="527" y="179"/>
      <point x="600" y="19"/>
      <point x="600" y="-154" type="curve" smooth="yes"/>
      <point x="600" y="-317"/>
      <point x="532" y="-514"/>
      <point x="314" y="-514" type="curve" smooth="yes"/>
      <point x="157" y="-514"/>
      <point x="101" y="-397"/>
      <point x="101" y="-266" type="curve" smooth="yes"/>
      <point x="101" y="-45"/>
      <point x="210" y="152"/>
      <point x="313" y="299" type="curve"/>
      <point x="272" y="389"/>
      <point x="223" y="510"/>
      <point x="223" y="605" type="curve" smooth="yes"/>
      <point x="223" y="919"/>
      <point x="500" y="1117"/>
      <point x="700" y="1117" type="curve"/>
    </contour>
  </outline>
</glyph>
<glyph name="Rfraktur" format="1">
  <advance width="1600"/>
  <unicode hex="211C"/>
  <outline>
    <contour>
      <point x="751" y="588" type="line"/>
      <point x="831" y="660" type="line"/>
      <point x="955" y="689" type="line" smooth="yes"/>
      <point x="1079" y="719"/>
      <point x="1160" y="964"/>
      <point x="1160" y="1076" type="curve" smooth="yes"/>
      <point x="1160" y="1162"/>
      <point x="1112" y="1232"/>
      <point x="1112" y="1232" type="curve"/>
      <point x="769" y="1232"/>
      <point x="751" y="1073"/>
      <point x="751" y="953" type="curve" smooth="yes"/>
    </contour>
    <contour>
      <point x="1192" y="1400" type="line"/>
      <point x="1296" y="1332"/>
      <point x="1378" y="1199"/>
      <point x="1378" y="1083" type="curve" smooth="yes"/>
      <point x="1378" y="972"/>
      <point x="1303" y="687"/>
      <point x="1209" y="629" type="curve"/>
      <point x="1259" y="579"/>
      <point x="1266" y="525"/>
      <point x="1266" y="447" type="curve"/>
      <point x="1266" y="290" type="line"/>
      <point x="1266" y="244"/>
      <point x="1279" y="191"/>
      <point x="1314" y="168" type="curve"/>
      <point x="1467" y="221" type="line"/>
      <point x="1520" y="125" type="line"/>
      <point x="1270" y="-17" type="line"/>
      <point x="1175" y="8"/>
      <point x="1040" y="49"/>
      <point x="1040" y="200" type="curve"/>
      <point x="1040" y="371" type="line"/>
      <point x="1040" y="480"/>
      <point x="1040" y="510"/>
      <point x="1007" y="556" type="curve"/>
      <point x="751" y="493" type="line"/>
      <point x="751" y="300" type="line" smooth="yes"/>
      <point x="751" y="154"/>
      <point x="689" y="-17"/>
      <point x="500" y="-17" type="curve" smooth="yes"/>
      <point x="410" y="-17"/>
      <point x="318" y="57"/>
      <point x="318" y="57" type="curve"/>
      <point x="297" y="157" type="line"/>
      <point x="150" y="26" type="line"/>
      <point x="31" y="116" type="line"/>
      <point x="261" y="313" type="line"/>
      <point x="458" y="169" type="line"/>
      <point x="519" y="200"/>
      <point x="528" y="262"/>
      <point x="528" y="300" type="curve" smooth="yes"/>
      <point x="528" y="953" type="line" smooth="yes"/>
      <point x="528" y="1026"/>
      <point x="564" y="1144"/>
      <point x="768" y="1216" type="curve"/>
      <point x="301" y="1216" type="line"/>
      <point x="271" y="1189"/>
      <point x="261" y="1152"/>
      <point x="261" y="1112" type="curve" smooth="yes"/>
      <point x="261" y="1061"/>
      <point x="290" y="1007"/>
      <point x="290" y="1007" type="curve"/>
      <point x="184" y="947" type="line"/>
      <point x="136" y="1009"/>
      <point x="125" y="1064"/>
      <point x="125" y="1130" type="curve" smooth="yes"/>
      <point x="125" y="1229"/>
      <point x="183" y="1327"/>
      <point x="248" y="1400" type="curve"/>
    </contour>
  </outline>
</glyph>
<glyph name="trademark" format="1">
  <advance width="1700"/>
  <unicode hex="2122"/>
  <outline>
    <contour>
      <point x="400" y="900" type="line"/>
      <point x="400" y="1433" type="line"/>
      <point x="200" y="1433" type="line"/>
      <point x="200" y="1500" type="line"/>
      <point x="700" y="1500" type="line"/>
      <point x="700" y="1433" type="line"/>
      <point x="500" y="1433" type="line"/>
      <point x="500" y="900" type="line"/>
    </contour>
    <contour>
      <point x="1300" y="900" type="line"/>
      <point x="1300" y="1470" type="line"/>
      <point x="1250" y="1300" type="line"/>
      <point x="1120" y="1000" type="line"/>
      <point x="1080" y="1000" type="line"/>
      <point x="950" y="1300" type="line"/>
      <point x="900" y="1470" type="line"/>
      <point x="900" y="900" type="line"/>
      <point x="800" y="900" type="line"/>
      <point x="800" y="1500" type="line"/>
      <point x="940" y="1500" type="line"/>
      <point x="1060" y="1250" type="line"/>
      <point x="1100" y="1100" type="line"/>
      <point x="1140" y="1250" type="line"/>
      <point x="1260" y="1500" type="line"/>
      <point x="1400" y="1500" type="line"/>
      <point x="1400" y="900" type="line"/>
    </contour>
  </outline>
</glyph>
<glyph name="scriptsmallo" format="1">
  <advance width="1100"/>
  <unicode hex="2134"/>
  <outline>
    <contour>
      <point x="367" y="-17" type="curve" smooth="yes" name="hr00"/>
      <point x="181" y="-17"/>
      <point x="78" y="106"/>
      <point x="78" y="284" type="curve" smooth="yes"/>
      <point x="78" y="580"/>
      <point x="302" y="885"/>
      <point x="626" y="885" type="curve" smooth="yes"/>
      <point x="811" y="885"/>
      <point x="918" y="767"/>
      <point x="918" y="590" type="curve" smooth="yes"/>
      <point x="918" y="296"/>
      <point x="690" y="-17"/>
    </contour>
    <contour>
      <point x="748" y="558" type="curve" smooth="yes"/>
      <point x="748" y="663"/>
      <point x="712" y="746"/>
      <point x="593" y="746" type="curve" smooth="yes"/>
      <point x="378" y="746"/>
      <point x="246" y="500"/>
      <point x="246" y="310" type="curve" smooth="yes"/>
      <point x="246" y="204"/>
      <point x="283" y="123"/>
      <point x="401" y="123" type="curve" smooth="yes"/>
      <point x="616" y="123"/>
      <point x="748" y="353"/>
    </contour>
  </outline>
</glyph>
<glyph name="arrowupdn" format="1">
  <advance width="1000"/>
  <unicode hex="2195"/>
  <outline>
    <contour>
      <point x="600" y="467" type="line"/>
      <point x="588" y="363" type="line"/>
      <point x="663" y="420" type="line"/>
      <point x="900" y="420" type="line"/>
      <point x="600" y="119" type="line"/>
      <point x="500" y="0" type="line"/>
      <point x="400" y="120" type="line"/>
      <point x="100" y="420" type="line"/>
      <point x="335" y="420" type="line"/>
      <point x="410" y="363" type="line"/>
      <point x="400" y="467" type="line"/>
      <point x="400" y="1053" type="line"/>
      <point x="410" y="1157" type="line"/>
      <point x="335" y="1100" type="line"/>
      <point x="100" y="1100" type="line"/>
      <point x="400" y="1400" type="line"/>
      <point x="500" y="1520" type="line"/>
      <point x="600" y="1401" type="line"/>
      <point x="900" y="1100" type="line"/>
      <point x="663" y="1100" type="line"/>
      <point x="588" y="1157" type="line"/>
      <point x="600" y="1053" type="line"/>
    </contour>
  </outline>
</glyph>
<glyph name="arrowupright" format="1">
  <advance width="1200"/>
  <unicode hex="2197"/>
  <outline>
    <contour>
      <point x="713" y="754" type="line"/>
      <point x="794" y="819" type="line"/>
      <point x="700" y="831" type="line"/>
      <point x="534" y="1000" type="line"/>
      <point x="938" y="1000" type="line"/>
      <point x="1120" y="1020" type="line"/>
      <point x="1100" y="838" type="line"/>
      <point x="1100" y="434" type="line"/>
      <point x="932" y="599" type="line"/>
      <point x="921" y="692" type="line"/>
      <point x="854" y="613" type="line"/>
      <point x="251" y="10" type="line"/>
      <point x="110" y="151" type="line"/>
    </contour>
  </outline>
</glyph>
<glyph name="undo" format="1">
  <advance width="1600"/>
  <unicode hex="21B6"/>
  <outline>
    <contour>
      <point x="406" y="381" type="line"/>
      <point x="487" y="446" type="line"/>
      <point x="666" y="591"/>
      <point x="824" y="751"/>
      <point x="1013" y="751" type="curve" smooth="yes"/>
      <point x="1185" y="751"/>
      <point x="1330" y="660"/>
      <point x="1330" y="500" type="curve"/>
      <point x="1500" y="500" type="line"/>
      <point x="1496" y="815"/>
      <point x="1300" y="951"/>
      <point x="1000" y="951" type="curve" smooth="yes"/>
      <point x="740" y="951"/>
      <point x="555" y="802"/>
      <point x="346" y="587" type="curve"/>
      <point x="279" y="508" type="line"/>
      <point x="268" y="601" type="line"/>
      <point x="100" y="766" type="line"/>
      <point x="100" y="362" type="line"/>
      <point x="80" y="180" type="line"/>
      <point x="262" y="200" type="line"/>
      <point x="666" y="200" type="line"/>
      <point x="500" y="369" type="line"/>
    </contour>
  </outline>
</glyph>
<glyph name="shift" format="1">
  <advance width="1200"/>
  <unicode hex="21E7"/>
  <outline>
    <contour>
      <point x="600" y="1430" type="line"/>
      <point x="691" y="1323" type="line"/>
      <point x="1073" y="957" type="line"/>
      <point x="1073" y="855" type="line"/>
      <point x="918" y="855" type="line"/>
      <point x="910" y="755" type="line"/>
      <point x="910" y="0" type="line"/>
      <point x="290" y="0" type="line"/>
      <point x="290" y="755" type="line"/>
      <point x="281" y="855" type="line"/>
      <point x="127" y="855" type="line"/>
      <point x="127" y="957" type="line"/>
      <point x="509" y="1323" type="line"/>
    </contour>
    <contour>
      <point x="400" y="662" type="line"/>
      <point x="400" y="100" type="line"/>
      <point x="800" y="100" type="line"/>
      <point x="800" y="662" type="line"/>
      <point x="821" y="937" type="line"/>
      <point x="933" y="937" type="line"/>
      <point x="600" y="1273" type="line"/>
      <point x="267" y="937" type="line"/>
      <point x="380" y="937" type="line"/>
    </contour>
  </outline>
</glyph>
<glyph name="universal" format="1">
  <advance width="1400"/>
  <unicode hex="2200"/>
  <outline>
    <contour>
      <point x="1141" y="1300" type="line" name="hr00"/>
      <point x="1331" y="1300" type="line"/>
      <point x="742" y="-20" type="line"/>
      <point x="599" y="0" type="line"/>
      <point x="561" y="160" type="line"/>
      <point x="72" y="1300" type="line"/>
      <point x="249" y="1300" type="line"/>
      <point x="379" y="1000" type="line"/>
      <point x="1010" y="1000" type="line"/>
    </contour>
    <contour>
      <point x="640" y="400" type="line"/>
      <point x="694" y="112" type="line"/>
      <point x="748" y="400" type="line"/>
      <point x="944" y="850" type="line"/>
      <point x="444" y="850" type="line"/>
    </contour>
  </outline>
</glyph>
<glyph name="complement" format="1">
  <advance width="1200"/>
  <unicode hex="2201"/>
  <outline>
    <contour>
      <point x="600" y="143" type="curve" smooth="yes" name="hr00"/>
      <point x="800" y="143"/>
      <point x="900" y="228"/>
      <point x="900" y="416" type="curve"/>
      <point x="1074" y="400" type="line"/>
      <point x="1074" y="166"/>
      <point x="923" y="-17"/>
      <point x="600" y="-17" type="curve" smooth="yes"/>
      <point x="200" y="-17"/>
      <point x="100" y="300"/>
      <point x="100" y="650" type="curve"/>
      <point x="100" y="1000"/>
      <point x="200" y="1317"/>
      <point x="600" y="1317" type="curve" smooth="yes"/>
      <point x="909" y="1317"/>
      <point x="1074" y="1135"/>
      <point x="1074" y="900" type="curve"/>
      <point x="900" y="885" type="line"/>
      <point x="900" y="1059"/>
      <point x="805" y="1157"/>
      <point x="600" y="1157" type="curve" smooth="yes"/>
      <point x="330" y="1157"/>
      <point x="290" y="900"/>
      <point x="290" y="650" type="curve" smooth="yes"/>
      <point x="290" y="400"/>
      <point x="330" y="143"/>
    </contour>
  </outline>
</glyph>
<glyph name="theredoesnotexist" format="1">
  <advance width="1300"/>
  <unicode hex="2204"/>
  <outline>
    <contour>
      <point x="420" y="-200" type="line"/>
      <point x="265" y="-200" type="line"/>
      <point x="874" y="1500" type="line"/>
      <point x="1020" y="1500" type="line"/>
    </contour>
    <component base="existential"/>
  </outline>
</glyph>
<glyph name="gradient" format="1">
  <advance width="1600"/>
  <unicode hex="2207"/>
  <outline>
    <contour>
      <point x="65" y="1500" type="line" name="at01"/>
      <point x="1537" y="1500" type="line"/>
      <point x="914" y="0" type="line" name="ab01"/>
      <point x="687" y="0" type="line"/>
    </contour>
    <contour>
      <point x="392" y="1340" type="line"/>
      <point x="269" y="1392" type="line" name="iv01"/>
      <point x="351" y="1300" type="line"/>
      <point x="767" y="242" type="line"/>
      <point x="802" y="75" type="line" name="iv02"/>
      <point x="837" y="242" type="line"/>
      <point x="1253" y="1300" type="line"/>
      <point x="1338" y="1392" type="line" name="iv03"/>
      <point x="1212" y="1340" type="line"/>
    </contour>
  </outline>
</glyph>
<glyph name="doesnotcontainasmember" format="1">
  <advance width="1500"/>
  <unicode hex="220C"/>
  <outline>
    <contour>
      <point x="420" y="-200" type="line"/>
      <point x="265" y="-200" type="line"/>
      <point x="874" y="1500" type="line"/>
      <point x="1020" y="1500" type="line"/>
    </contour>
    <component base="suchthat"/>
  </outline>
</glyph>
<glyph name="radical" format="1">
  <advance width="1600"/>
  <unicode hex="221A"/>
  <outline>
    <contour>
      <point x="1500" y="1300" type="line" name="dv02"/>
      <point x="1480" y="1150" type="line" name="dv01"/>
      <point x="1210" y="1150" type="line"/>
      <point x="1010" y="1170" type="line"/>
      <point x="676" y="-20" type="line" name="ab01"/>
      <point x="418" y="0" type="line"/>
      <point x="265" y="550" type="line"/>
      <point x="188" y="750" type="line"/>
      <point x="373" y="770" type="line"/>
      <point x="504" y="300" type="line"/>
      <point x="550" y="60" type="line"/>
      <point x="596" y="300" type="line"/>
      <point x="878" y="1300" type="line"/>
    </contour>
  </outline>
</glyph>
<glyph name="logicaland" format="1">
  <advance width="1300"/>
  <unicode hex="2227"/>
  <outline>
    <contour>
      <point x="780" y="1320" type="line" name="hr00"/>
      <point x="1222" y="0" type="line"/>
      <point x="1058" y="0" type="line"/>
      <point x="722" y="980" type="line"/>
      <point x="657" y="1220" type="line"/>
      <point x="592" y="980" type="line"/>
      <point x="255" y="0" type="line"/>
      <point x="93" y="0" type="line"/>
      <point x="522" y="1300" type="line"/>
    </contour>
  </outline>
</glyph>
<glyph name="intersection" format="1">
  <advance width="1500"/>
  <unicode hex="2229"/>
  <outline>
    <contour>
      <point x="750" y="1140" type="qcurve" name="dv01"/>
      <point x="664" y="1140"/>
      <point x="528" y="1092"/>
      <point x="424" y="1009"/>
      <point x="349" y="897"/>
      <point x="301" y="771"/>
      <point x="279" y="637"/>
      <point x="279" y="573" type="qcurve"/>
      <point x="279" y="0" type="line" name="sh02"/>
      <point x="100" y="0" type="line" name="sh01"/>
      <point x="100" y="538" type="line"/>
      <point x="100" y="709"/>
      <point x="181" y="990"/>
      <point x="344" y="1190"/>
      <point x="588" y="1300"/>
      <point x="750" y="1300" type="qcurve" name="dv02"/>
      <point x="912" y="1300"/>
      <point x="1155" y="1190"/>
      <point x="1318" y="990"/>
      <point x="1399" y="709"/>
      <point x="1399" y="538" type="qcurve"/>
      <point x="1399" y="0" type="line" name="sh03"/>
      <point x="1220" y="0" type="line" name="ah01"/>
      <point x="1220" y="573" type="line"/>
      <point x="1220" y="637"/>
      <point x="1198" y="771"/>
      <point x="1150" y="897"/>
      <point x="1076" y="1009"/>
      <point x="971" y="1092"/>
      <point x="835" y="1140"/>
    </contour>
  </outline>
</glyph>
<glyph name="union" format="1">
  <advance width="1500"/>
  <unicode hex="222A"/>
  <outline>
    <contour>
      <point x="749" y="143" type="qcurve" name="sv01"/>
      <point x="835" y="143"/>
      <point x="971" y="191"/>
      <point x="1075" y="274"/>
      <point x="1150" y="386"/>
      <point x="1198" y="512"/>
      <point x="1220" y="646"/>
      <point x="1220" y="710" type="qcurve" name="ah01"/>
      <point x="1220" y="1280" type="line"/>
      <point x="1399" y="1300" type="line" name="av01"/>
      <point x="1399" y="745" type="line" name="sh01"/>
      <point x="1399" y="574"/>
      <point x="1318" y="293"/>
      <point x="1155" y="93"/>
      <point x="911" y="-17"/>
      <point x="749" y="-17" type="qcurve" name="ab01"/>
      <point x="587" y="-17"/>
      <point x="344" y="93"/>
      <point x="181" y="293"/>
      <point x="100" y="574"/>
      <point x="100" y="745" type="qcurve" name="sh02"/>
      <point x="100" y="1280" type="line"/>
      <point x="279" y="1300" type="line" name="av02"/>
      <point x="279" y="710" type="line" name="sh03"/>
      <point x="279" y="646"/>
      <point x="301" y="512"/>
      <point x="349" y="386"/>
      <point x="423" y="274"/>
      <point x="528" y="191"/>
      <point x="664" y="143"/>
    </contour>
  </outline>
</glyph>
<glyph name="contourintegral" format="1">
  <advance width="1100"/>
  <unicode hex="222E"/>
  <outline>
    <contour>
      <point x="500" y="1117" type="line"/>
      <point x="500" y="1202"/>
      <point x="531" y="1348"/>
      <point x="607" y="1456"/>
      <point x="734" y="1517"/>
      <point x="830" y="1517" type="qcurve"/>
      <point x="876" y="1517"/>
      <point x="941" y="1510"/>
      <point x="992" y="1497"/>
      <point x="1033" y="1480"/>
      <point x="1054" y="1470" type="qcurve"/>
      <point x="991" y="1347" type="line"/>
      <point x="972" y="1358"/>
      <point x="907" y="1374"/>
      <point x="882" y="1374" type="qcurve"/>
      <point x="858" y="1374"/>
      <point x="801" y="1365"/>
      <point x="742" y="1325"/>
      <point x="710" y="1261"/>
      <point x="700" y="1172"/>
      <point x="700" y="1117" type="qcurve"/>
      <point x="700" y="874" type="line"/>
      <point x="858" y="834"/>
      <point x="973" y="702"/>
      <point x="973" y="546" type="curve" smooth="yes"/>
      <point x="973" y="390"/>
      <point x="858" y="258"/>
      <point x="700" y="217" type="curve"/>
      <point x="700" y="-21" type="line"/>
      <point x="700" y="-106"/>
      <point x="669" y="-252"/>
      <point x="593" y="-360"/>
      <point x="466" y="-421"/>
      <point x="370" y="-421" type="qcurve"/>
      <point x="324" y="-421"/>
      <point x="253" y="-414"/>
      <point x="195" y="-401"/>
      <point x="147" y="-384"/>
      <point x="126" y="-374" type="qcurve"/>
      <point x="209" y="-251" type="line"/>
      <point x="228" y="-262"/>
      <point x="293" y="-278"/>
      <point x="318" y="-278" type="qcurve"/>
      <point x="326" y="-278"/>
      <point x="399" y="-269"/>
      <point x="458" y="-229"/>
      <point x="490" y="-165"/>
      <point x="500" y="-76"/>
      <point x="500" y="-21" type="qcurve"/>
      <point x="500" y="217" type="line"/>
      <point x="341" y="257"/>
      <point x="225" y="390"/>
      <point x="225" y="546" type="curve" smooth="yes"/>
      <point x="225" y="703"/>
      <point x="341" y="835"/>
      <point x="500" y="875" type="curve"/>
    </contour>
    <contour>
      <point x="357" y="546" type="curve" smooth="yes"/>
      <point x="357" y="446"/>
      <point x="415" y="361"/>
      <point x="500" y="324" type="curve"/>
      <point x="500" y="768" type="line"/>
      <point x="415" y="730"/>
      <point x="357" y="645"/>
    </contour>
    <contour>
      <point x="841" y="546" type="curve" smooth="yes"/>
      <point x="841" y="644"/>
      <point x="783" y="729"/>
      <point x="700" y="767" type="curve"/>
      <point x="700" y="325" type="line"/>
      <point x="783" y="363"/>
      <point x="841" y="447"/>
    </contour>
  </outline>
</glyph>
<glyph name="asymptoticallyequal" format="1">
  <advance width="1000"/>
  <unicode hex="2243"/>
  <outline>
    <contour>
      <point x="100" y="400" type="line"/>
      <point x="900" y="400" type="line"/>
      <point x="900" y="260" type="line"/>
      <point x="100" y="260" type="line"/>
    </contour>
    <component base="similar" yOffset="100"/>
  </outline>
</glyph>
<glyph name="notequal" format="1">
  <advance width="1000"/>
  <unicode hex="2260"/>
  <outline>
    <contour>
      <point x="391" y="0" type="line"/>
      <point x="236" y="0" type="line"/>
      <point x="597" y="1000" type="line"/>
      <point x="743" y="1000" type="line"/>
    </contour>
    <component base="equal"/>
  </outline>
</glyph>
<glyph name="equivalence" format="1">
  <advance width="1000"/>
  <unicode hex="2261"/>
  <outline>
    <contour>
      <point x="100" y="600" type="line"/>
      <point x="900" y="600" type="line"/>
      <point x="900" y="460" type="line"/>
      <point x="100" y="460" type="line"/>
    </contour>
    <contour>
      <point x="100" y="300" type="line"/>
      <point x="900" y="300" type="line"/>
      <point x="900" y="160" type="line"/>
      <point x="100" y="160" type="line"/>
    </contour>
    <contour>
      <point x="100" y="900" type="line"/>
      <point x="900" y="900" type="line"/>
      <point x="900" y="760" type="line"/>
      <point x="100" y="760" type="line"/>
    </contour>
  </outline>
</glyph>
<glyph name="reflexsubset" format="1">
  <advance width="1498"/>
  <unicode hex="2286"/>
  <outline>
    <contour>
      <point x="200" y="155" type="line" name="hr00"/>
      <point x="1400" y="155" type="line"/>
      <point x="1420" y="1" type="line"/>
      <point x="200" y="1" type="line"/>
    </contour>
    <contour>
      <point x="1420" y="300" type="line"/>
      <point x="843" y="300" type="line"/>
      <point x="672" y="300"/>
      <point x="397" y="381"/>
      <point x="204" y="544"/>
      <point x="100" y="788"/>
      <point x="100" y="900" type="qcurve"/>
      <point x="100" y="1012"/>
      <point x="204" y="1256"/>
      <point x="397" y="1419"/>
      <point x="672" y="1500"/>
      <point x="843" y="1500" type="qcurve"/>
      <point x="1420" y="1500" type="line"/>
      <point x="1400" y="1346" type="line"/>
      <point x="847" y="1346" type="line"/>
      <point x="716" y="1346"/>
      <point x="506" y="1287"/>
      <point x="359" y="1165"/>
      <point x="320" y="1071" type="qcurve"/>
      <point x="292" y="1006"/>
      <point x="292" y="793"/>
      <point x="320" y="728" type="qcurve"/>
      <point x="359" y="634"/>
      <point x="506" y="512"/>
      <point x="716" y="453"/>
      <point x="847" y="453" type="qcurve"/>
      <point x="1400" y="453" type="line"/>
    </contour>
  </outline>
</glyph>
<glyph name="circleplus" format="1">
  <advance width="1700"/>
  <unicode hex="2295"/>
  <outline>
    <contour>
      <point x="83" y="750" type="curve" smooth="yes"/>
      <point x="83" y="327"/>
      <point x="427" y="-17"/>
      <point x="850" y="-17" type="curve" smooth="yes"/>
      <point x="1273" y="-17"/>
      <point x="1617" y="327"/>
      <point x="1617" y="750" type="curve" smooth="yes"/>
      <point x="1617" y="1173"/>
      <point x="1273" y="1517"/>
      <point x="850" y="1517" type="curve" smooth="yes"/>
      <point x="427" y="1517"/>
      <point x="83" y="1173"/>
    </contour>
    <contour>
      <point x="236" y="675" type="curve"/>
      <point x="775" y="675" type="line"/>
      <point x="775" y="136" type="line"/>
      <point x="494" y="170"/>
      <point x="270" y="394"/>
    </contour>
    <contour>
      <point x="775" y="1362" type="curve"/>
      <point x="775" y="825" type="line"/>
      <point x="236" y="825" type="line"/>
      <point x="270" y="1106"/>
      <point x="494" y="1328"/>
    </contour>
    <contour>
      <point x="925" y="136" type="curve"/>
      <point x="925" y="675" type="line"/>
      <point x="1462" y="675" type="line"/>
      <point x="1428" y="394"/>
      <point x="1206" y="170"/>
    </contour>
    <contour>
      <point x="1462" y="825" type="curve"/>
      <point x="925" y="825" type="line"/>
      <point x="925" y="1362" type="line"/>
      <point x="1206" y="1328"/>
      <point x="1428" y="1106"/>
    </contour>
  </outline>
</glyph>
<glyph name="circlemultiply" format="1">
  <advance width="1700"/>
  <unicode hex="2297"/>
  <outline>
    <contour>
      <point x="83" y="750" type="curve" smooth="yes"/>
      <point x="83" y="327"/>
      <point x="427" y="-17"/>
      <point x="850" y="-17" type="curve" smooth="yes"/>
      <point x="1273" y="-17"/>
      <point x="1617" y="327"/>
      <point x="1617" y="750" type="curve" smooth="yes"/>
      <point x="1617" y="1173"/>
      <point x="1273" y="1517"/>
      <point x="850" y="1517" type="curve" smooth="yes"/>
      <point x="427" y="1517"/>
      <point x="83" y="1173"/>
    </contour>
    <contour>
      <point x="232" y="750" type="curve" smooth="yes"/>
      <point x="232" y="893"/>
      <point x="281" y="1025"/>
      <point x="363" y="1130" type="curve"/>
      <point x="744" y="750" type="line"/>
      <point x="363" y="369" type="line"/>
      <point x="281" y="474"/>
      <point x="232" y="606"/>
    </contour>
    <contour>
      <point x="850" y="132" type="curve" smooth="yes"/>
      <point x="706" y="132"/>
      <point x="574" y="181"/>
      <point x="469" y="263" type="curve"/>
      <point x="850" y="644" type="line"/>
      <point x="1230" y="263" type="line"/>
      <point x="1125" y="181"/>
      <point x="993" y="132"/>
    </contour>
    <contour>
      <point x="850" y="1367" type="curve" smooth="yes"/>
      <point x="993" y="1367"/>
      <point x="1125" y="1318"/>
      <point x="1230" y="1236" type="curve"/>
      <point x="850" y="856" type="line"/>
      <point x="470" y="1236" type="line"/>
      <point x="575" y="1318"/>
      <point x="706" y="1367"/>
    </contour>
    <contour>
      <point x="1467" y="750" type="curve" smooth="yes"/>
      <point x="1467" y="606"/>
      <point x="1418" y="475"/>
      <point x="1336" y="370" type="curve"/>
      <point x="956" y="750" type="line"/>
      <point x="1336" y="1130" type="line"/>
      <point x="1418" y="1025"/>
      <point x="1467" y="893"/>
    </contour>
  </outline>
</glyph>
<glyph name="topleftcorner" format="1">
  <advance width="1000"/>
  <unicode hex="231C"/>
  <outline>
    <contour>
      <point x="300" y="750" type="line" name="hr00"/>
      <point x="100" y="750" type="line"/>
      <point x="100" y="1500" type="line"/>
      <point x="850" y="1500" type="line"/>
      <point x="850" y="1350" type="line"/>
      <point x="300" y="1350" type="line"/>
    </contour>
  </outline>
</glyph>
<glyph name="blackrightpointingsmall" format="1">
  <advance width="900"/>
  <unicode hex="25B8"/>
  <outline>
    <contour>
      <point x="216" y="700" type="line"/>
      <point x="199" y="410" type="line"/>
      <point x="700" y="700" type="line"/>
      <point x="199" y="991" type="line"/>
    </contour>
  </outline>
</glyph>
<glyph name="whitedownpointingtriangle" format="1">
  <advance width="1300"/>
  <unicode hex="25BD"/>
  <outline>
    <contour>
      <point x="320" y="980" type="line"/>
      <point x="980" y="980" type="line"/>
      <point x="650" y="410" type="line"/>
    </contour>
    <contour>
      <point x="650" y="200" type="line"/>
      <point x="1200" y="1100" type="line"/>
      <point x="100" y="1100" type="line"/>
    </contour>
  </outline>
</glyph>
<glyph name="circlewithlefthalfblack" format="1">
  <advance width="1000"/>
  <unicode hex="25D0"/>
  <outline>
    <contour>
      <point x="84" y="701" type="curve" smooth="yes"/>
      <point x="84" y="471"/>
      <point x="270" y="285"/>
      <point x="500" y="285" type="curve" smooth="yes"/>
      <point x="730" y="285"/>
      <point x="916" y="471"/>
      <point x="916" y="701" type="curve" smooth="yes"/>
      <point x="916" y="931"/>
      <point x="730" y="1117"/>
      <point x="500" y="1117" type="curve" smooth="yes"/>
      <point x="270" y="1117"/>
      <point x="84" y="931"/>
    </contour>
    <contour>
      <point x="800" y="701" type="curve" smooth="yes"/>
      <point x="800" y="535"/>
      <point x="666" y="401"/>
      <point x="500" y="401" type="curve"/>
      <point x="500" y="1001" type="line"/>
      <point x="666" y="1001"/>
      <point x="800" y="867"/>
    </contour>
  </outline>
</glyph>
<glyph name="circlewithrighthalfblack" format="1">
  <advance width="1000"/>
  <unicode hex="25D1"/>
  <outline>
    <contour>
      <point x="84" y="701" type="curve" smooth="yes"/>
      <point x="84" y="471"/>
      <point x="270" y="285"/>
      <point x="500" y="285" type="curve" smooth="yes"/>
      <point x="730" y="285"/>
      <point x="916" y="471"/>
      <point x="916" y="701" type="curve" smooth="yes"/>
      <point x="916" y="931"/>
      <point x="730" y="1117"/>
      <point x="500" y="1117" type="curve" smooth="yes"/>
      <point x="270" y="1117"/>
      <point x="84" y="931"/>
    </contour>
    <contour>
      <point x="200" y="701" type="curve" smooth="yes"/>
      <point x="200" y="867"/>
      <point x="334" y="1001"/>
      <point x="500" y="1001" type="curve"/>
      <point x="500" y="401" type="line"/>
      <point x="334" y="401"/>
      <point x="200" y="535"/>
    </contour>
  </outline>
</glyph>
<glyph name="circlewithupperhalfblack" format="1">
  <advance width="1000"/>
  <unicode hex="25D3"/>
  <outline>
    <contour>
      <point x="500" y="285" type="curve" smooth="yes"/>
      <point x="730" y="285"/>
      <point x="916" y="471"/>
      <point x="916" y="701" type="curve" smooth="yes"/>
      <point x="916" y="931"/>
      <point x="730" y="1117"/>
      <point x="500" y="1117" type="curve" smooth="yes"/>
      <point x="270" y="1117"/>
      <point x="84" y="931"/>
      <point x="84" y="701" type="curve" smooth="yes"/>
      <point x="84" y="471"/>
      <point x="270" y="285"/>
    </contour>
    <contour>
      <point x="500" y="401" type="curve" smooth="yes"/>
      <point x="334" y="401"/>
      <point x="200" y="535"/>
      <point x="200" y="701" type="curve"/>
      <point x="800" y="701" type="line"/>
      <point x="800" y="535"/>
      <point x="666" y="401"/>
    </contour>
  </outline>
</glyph>
<glyph name="day" format="1">
  <advance width="1800"/>
  <unicode hex="2600"/>
  <outline>
    <contour>
      <point x="1675" y="477" type="line"/>
      <point x="1675" y="509" type="line"/>
      <point x="1436" y="564" type="line"/>
      <point x="1435" y="602"/>
      <point x="1430" y="640"/>
      <point x="1423" y="676" type="curve"/>
      <point x="1605" y="776" type="line"/>
      <point x="1594" y="811" type="line"/>
      <point x="1388" y="784" type="line"/>
      <point x="1365" y="837"/>
      <point x="1334" y="885"/>
      <point x="1297" y="929" type="curve"/>
      <point x="1383" y="1070" type="line"/>
      <point x="1353" y="1100" type="line"/>
      <point x="1214" y="1009" type="line"/>
      <point x="1184" y="1033"/>
      <point x="1153" y="1053"/>
      <point x="1120" y="1070" type="curve"/>
      <point x="1176" y="1310" type="line"/>
      <point x="1146" y="1322" type="line"/>
      <point x="1021" y="1110" type="line"/>
      <point x="985" y="1121"/>
      <point x="947" y="1128"/>
      <point x="909" y="1132" type="curve"/>
      <point x="871" y="1337" type="line"/>
      <point x="833" y="1337" type="line"/>
      <point x="795" y="1132" type="line"/>
      <point x="737" y="1126"/>
      <point x="682" y="1113"/>
      <point x="630" y="1092" type="curve"/>
      <point x="522" y="1216" type="line"/>
      <point x="484" y="1197" type="line"/>
      <point x="528" y="1037" type="line"/>
      <point x="497" y="1016"/>
      <point x="467" y="992"/>
      <point x="441" y="966" type="curve"/>
      <point x="231" y="1094" type="line"/>
      <point x="210" y="1069" type="line"/>
      <point x="372" y="884" type="line"/>
      <point x="350" y="853"/>
      <point x="331" y="819"/>
      <point x="316" y="784" type="curve"/>
      <point x="110" y="811" type="line"/>
      <point x="99" y="776" type="line"/>
      <point x="281" y="676" type="line"/>
      <point x="272" y="636"/>
      <point x="268" y="594"/>
      <point x="268" y="551" type="curve" smooth="yes"/>
      <point x="268" y="535"/>
      <point x="269" y="521"/>
      <point x="269" y="507" type="curve"/>
      <point x="117" y="442" type="line"/>
      <point x="124" y="400" type="line"/>
      <point x="289" y="393" type="line"/>
      <point x="299" y="356"/>
      <point x="313" y="321"/>
      <point x="330" y="287" type="curve"/>
      <point x="143" y="127" type="line"/>
      <point x="160" y="100" type="line"/>
      <point x="386" y="197" type="line"/>
      <point x="409" y="167"/>
      <point x="436" y="139"/>
      <point x="464" y="114" type="curve"/>
      <point x="375" y="-75" type="line"/>
      <point x="405" y="-96" type="line"/>
      <point x="556" y="47" type="line"/>
      <point x="605" y="19"/>
      <point x="658" y="-3"/>
      <point x="713" y="-18" type="curve"/>
      <point x="727" y="-182" type="line"/>
      <point x="770" y="-188" type="line"/>
      <point x="829" y="-33" type="line"/>
      <point x="837" y="-34"/>
      <point x="844" y="-34"/>
      <point x="852" y="-34" type="curve" smooth="yes"/>
      <point x="882" y="-34"/>
      <point x="912" y="-31"/>
      <point x="941" y="-27" type="curve"/>
      <point x="1036" y="-254" type="line"/>
      <point x="1067" y="-247" type="line"/>
      <point x="1045" y="-1" type="line"/>
      <point x="1081" y="11"/>
      <point x="1115" y="28"/>
      <point x="1147" y="47" type="curve"/>
      <point x="1298" y="-96" type="line"/>
      <point x="1329" y="-75" type="line"/>
      <point x="1239" y="114" type="line"/>
      <point x="1282" y="152"/>
      <point x="1319" y="195"/>
      <point x="1350" y="244" type="curve"/>
      <point x="1510" y="206" type="line"/>
      <point x="1528" y="245" type="line"/>
      <point x="1400" y="347" type="line"/>
      <point x="1413" y="383"/>
      <point x="1423" y="419"/>
      <point x="1429" y="456" type="curve"/>
    </contour>
  </outline>
</glyph>
<glyph name="boxwithacheck" format="1">
  <advance width="1100"/>
  <unicode hex="2611"/>
  <outline>
    <contour>
      <point x="580" y="400" type="line"/>
      <point x="590" y="600" type="line"/>
      <point x="710" y="941"/>
      <point x="952" y="1231"/>
      <point x="1057" y="1317" type="curve"/>
      <point x="1188" y="1300" type="line"/>
      <point x="1008" y="1100"/>
      <point x="719" y="631"/>
      <point x="687" y="263" type="curve"/>
      <point x="465" y="280" type="line"/>
      <point x="260" y="800" type="line"/>
      <point x="428" y="820" type="line"/>
    </contour>
    <contour>
      <point x="165" y="165" type="line"/>
      <point x="935" y="165" type="line"/>
      <point x="935" y="554" type="line"/>
      <point x="968" y="685"/>
      <point x="1023" y="824"/>
      <point x="1100" y="950" type="curve"/>
      <point x="1100" y="0" type="line"/>
      <point x="0" y="0" type="line"/>
      <point x="0" y="1100" type="line"/>
      <point x="703" y="1100" type="line"/>
      <point x="664" y="1061"/>
      <point x="608" y="993"/>
      <point x="580" y="935" type="curve"/>
      <point x="165" y="935" type="line"/>
    </contour>
  </outline>
</glyph>
<glyph name="boxwithaX" format="1">
  <advance width="1100"/>
  <unicode hex="2612"/>
  <outline>
    <contour>
      <point x="1100" y="0" type="line" name="hr00"/>
      <point x="0" y="0" type="line"/>
      <point x="0" y="1100" type="line"/>
      <point x="1100" y="1100" type="line"/>
    </contour>
    <contour>
      <point x="165" y="165" type="line"/>
      <point x="935" y="165" type="line"/>
      <point x="935" y="935" type="line"/>
      <point x="165" y="935" type="line"/>
    </contour>
    <contour>
      <point x="701" y="230" type="line"/>
      <point x="570" y="400" type="line"/>
      <point x="562" y="468" type="line"/>
      <point x="405" y="230" type="line"/>
      <point x="226" y="230" type="line"/>
      <point x="448" y="558" type="line"/>
      <point x="227" y="844" type="line"/>
      <point x="422" y="869" type="line"/>
      <point x="515" y="733" type="line"/>
      <point x="528" y="631" type="line"/>
      <point x="668" y="853" type="line"/>
      <point x="859" y="870" type="line"/>
      <point x="655" y="569" type="line"/>
      <point x="896" y="230" type="line"/>
    </contour>
  </outline>
</glyph>
<glyph name="club" format="1">
  <advance width="1400"/>
  <unicode hex="2663"/>
  <outline>
    <contour>
      <point x="965" y="273" type="line"/>
      <point x="1154" y="273"/>
      <point x="1325" y="300"/>
      <point x="1325" y="570" type="curve"/>
      <point x="1325" y="731"/>
      <point x="1187" y="851"/>
      <point x="1077" y="851" type="curve"/>
      <point x="800" y="700" type="line"/>
      <point x="1000" y="900"/>
      <point x="1000" y="956"/>
      <point x="1000" y="975" type="curve" smooth="yes"/>
      <point x="1000" y="1123"/>
      <point x="972" y="1300"/>
      <point x="700" y="1300" type="curve" smooth="yes"/>
      <point x="429" y="1300"/>
      <point x="400" y="1124"/>
      <point x="400" y="976" type="curve" smooth="yes"/>
      <point x="400" y="956"/>
      <point x="400" y="900"/>
      <point x="600" y="700" type="curve"/>
      <point x="323" y="851" type="line"/>
      <point x="207" y="851"/>
      <point x="76" y="727"/>
      <point x="76" y="570" type="curve" smooth="yes"/>
      <point x="76" y="300"/>
      <point x="248" y="276"/>
      <point x="437" y="273" type="curve"/>
      <point x="636" y="441" type="line"/>
      <point x="636" y="280"/>
      <point x="600" y="106"/>
      <point x="280" y="106" type="curve"/>
      <point x="280" y="0" type="line"/>
      <point x="1120" y="0" type="line"/>
      <point x="1120" y="106" type="line"/>
      <point x="800" y="106"/>
      <point x="763" y="280"/>
      <point x="763" y="441" type="curve"/>
    </contour>
  </outline>
</glyph>
<glyph name="flag1" format="1">
  <advance width="1000"/>
  <unicode hex="2690"/>
  <outline>
    <contour>
      <point x="832" y="1121" type="line"/>
      <point x="806" y="1102"/>
      <point x="776" y="1089"/>
      <point x="741" y="1089" type="curve" smooth="yes"/>
      <point x="688" y="1089"/>
      <point x="624" y="1117"/>
      <point x="548" y="1191" type="curve" smooth="yes"/>
      <point x="452" y="1285"/>
      <point x="348" y="1310"/>
      <point x="262" y="1310" type="curve" smooth="yes"/>
      <point x="178" y="1310"/>
      <point x="112" y="1286"/>
      <point x="87" y="1277" type="curve" smooth="yes"/>
      <point x="85" y="1276"/>
      <point x="83" y="1275"/>
      <point x="82" y="1275" type="curve"/>
      <point x="100" y="1040" type="line"/>
      <point x="100" y="-20" type="line"/>
      <point x="200" y="0" type="line"/>
      <point x="200" y="673" type="line"/>
      <point x="214" y="678"/>
      <point x="227" y="680"/>
      <point x="239" y="680" type="curve" smooth="yes"/>
      <point x="318" y="680"/>
      <point x="386" y="619"/>
      <point x="500" y="535" type="curve" smooth="yes"/>
      <point x="577" y="478"/>
      <point x="638" y="469"/>
      <point x="700" y="469" type="curve" smooth="yes"/>
      <point x="792" y="469"/>
      <point x="868" y="503"/>
      <point x="900" y="541" type="curve"/>
      <point x="900" y="1100" type="line"/>
    </contour>
    <contour>
      <point x="800" y="600" type="line"/>
      <point x="781" y="582"/>
      <point x="742" y="564"/>
      <point x="700" y="564" type="curve" smooth="yes"/>
      <point x="647" y="564"/>
      <point x="585" y="592"/>
      <point x="500" y="668" type="curve" smooth="yes"/>
      <point x="426" y="734"/>
      <point x="329" y="800"/>
      <point x="200" y="800" type="curve"/>
      <point x="215" y="900" type="line"/>
      <point x="200" y="1200" type="line"/>
      <point x="225" y="1205"/>
      <point x="249" y="1208"/>
      <point x="272" y="1208" type="curve" smooth="yes"/>
      <point x="342" y="1208"/>
      <point x="410" y="1181"/>
      <point x="500" y="1100" type="curve" smooth="yes"/>
      <point x="577" y="1031"/>
      <point x="655" y="989"/>
      <point x="733" y="989" type="curve" smooth="yes"/>
      <point x="755" y="989"/>
      <point x="778" y="993"/>
      <point x="800" y="1000" type="curve"/>
    </contour>
  </outline>
</glyph>
<glyph name="flag2" format="1">
  <advance width="1000"/>
  <unicode hex="2691"/>
  <outline>
    <contour>
      <point x="832" y="1121" type="line"/>
      <point x="806" y="1102"/>
      <point x="776" y="1089"/>
      <point x="741" y="1089" type="curve" smooth="yes"/>
      <point x="688" y="1089"/>
      <point x="624" y="1117"/>
      <point x="548" y="1191" type="curve" smooth="yes"/>
      <point x="452" y="1285"/>
      <point x="348" y="1310"/>
      <point x="262" y="1310" type="curve" smooth="yes"/>
      <point x="178" y="1310"/>
      <point x="112" y="1286"/>
      <point x="87" y="1277" type="curve" smooth="yes"/>
      <point x="85" y="1276"/>
      <point x="83" y="1275"/>
      <point x="82" y="1275" type="curve"/>
      <point x="100" y="1040" type="line"/>
      <point x="100" y="-20" type="line"/>
      <point x="200" y="0" type="line"/>
      <point x="200" y="673" type="line"/>
      <point x="214" y="678"/>
      <point x="227" y="680"/>
      <point x="239" y="680" type="curve" smooth="yes"/>
      <point x="318" y="680"/>
      <point x="386" y="619"/>
      <point x="500" y="535" type="curve" smooth="yes"/>
      <point x="577" y="478"/>
      <point x="638" y="469"/>
      <point x="700" y="469" type="curve" smooth="yes"/>
      <point x="792" y="469"/>
      <point x="868" y="503"/>
      <point x="900" y="541" type="curve"/>
      <point x="900" y="1100" type="line"/>
    </contour>
  </outline>
</glyph>
<glyph name="warning" format="1">
  <advance width="1900"/>
  <unicode hex="26A0"/>
  <outline>
    <contour>
      <point x="1774" y="261" type="curve"/>
      <point x="1101" y="1410" type="line" smooth="yes"/>
      <point x="1060" y="1480"/>
      <point x="1003" y="1517"/>
      <point x="951" y="1517" type="curve" smooth="yes"/>
      <point x="895" y="1517"/>
      <point x="842" y="1481"/>
      <point x="801" y="1410" type="curve" smooth="yes"/>
      <point x="127" y="261" type="line"/>
      <point x="103" y="220"/>
      <point x="92" y="180"/>
      <point x="92" y="145" type="curve" smooth="yes"/>
      <point x="92" y="59"/>
      <point x="160" y="0"/>
      <point x="276" y="0" type="curve" smooth="yes"/>
      <point x="1623" y="0" type="line" smooth="yes"/>
      <point x="1740" y="0"/>
      <point x="1809" y="60"/>
      <point x="1809" y="146" type="curve" smooth="yes"/>
      <point x="1809" y="181"/>
      <point x="1798" y="220"/>
    </contour>
    <contour>
      <point x="204" y="123" type="line"/>
      <point x="951" y="1409" type="line"/>
      <point x="1703" y="123" type="line"/>
    </contour>
    <contour>
      <point x="1026" y="1100" type="line"/>
      <point x="1026" y="573" type="line"/>
      <point x="876" y="560" type="line"/>
      <point x="876" y="1100" type="line"/>
    </contour>
    <contour>
      <point x="864" y="351" type="qcurve"/>
      <point x="864" y="369"/>
      <point x="878" y="400"/>
      <point x="901" y="423"/>
      <point x="932" y="438"/>
      <point x="950" y="438" type="qcurve"/>
      <point x="969" y="438"/>
      <point x="999" y="423"/>
      <point x="1023" y="400"/>
      <point x="1037" y="369"/>
      <point x="1037" y="351" type="qcurve"/>
      <point x="1037" y="333"/>
      <point x="1023" y="301"/>
      <point x="1000" y="278"/>
      <point x="969" y="263"/>
      <point x="951" y="263" type="qcurve"/>
      <point x="933" y="263"/>
      <point x="901" y="278"/>
      <point x="878" y="301"/>
      <point x="864" y="333"/>
    </contour>
  </outline>
</glyph>
<glyph name="plane" format="1">
  <advance width="1800"/>
  <unicode hex="2708"/>
  <outline>
    <contour>
      <point x="795" y="0" type="line"/>
      <point x="1140" y="647" type="line"/>
      <point x="1540" y="662" type="line" smooth="yes"/>
      <point x="1599" y="664"/>
      <point x="1700" y="692"/>
      <point x="1700" y="750" type="curve" smooth="yes"/>
      <point x="1700" y="808"/>
      <point x="1599" y="836"/>
      <point x="1540" y="838" type="curve" smooth="yes"/>
      <point x="1140" y="853" type="line"/>
      <point x="795" y="1500" type="line"/>
      <point x="696" y="1520" type="line"/>
      <point x="788" y="1069" type="line"/>
      <point x="813" y="858" type="line"/>
      <point x="600" y="858" type="line" smooth="yes"/>
      <point x="400" y="858"/>
      <point x="293" y="827"/>
      <point x="293" y="827" type="curve"/>
      <point x="140" y="1043" type="line"/>
      <point x="77" y="1047" type="line"/>
      <point x="109" y="795" type="line"/>
      <point x="30" y="759" type="line"/>
      <point x="30" y="741" type="line"/>
      <point x="109" y="705" type="line"/>
      <point x="77" y="453" type="line"/>
      <point x="140" y="457" type="line"/>
      <point x="293" y="673" type="line"/>
      <point x="293" y="673"/>
      <point x="400" y="642"/>
      <point x="600" y="642" type="curve" smooth="yes"/>
      <point x="813" y="642" type="line"/>
      <point x="788" y="431" type="line"/>
      <point x="696" y="-20" type="line"/>
    </contour>
  </outline>
</glyph>
<glyph name="whitecircledseven" format="1">
  <advance width="1700"/>
  <unicode hex="2786"/>
  <outline>
    <contour>
      <point x="83" y="750" type="curve" smooth="yes"/>
      <point x="83" y="327"/>
      <point x="427" y="-17"/>
      <point x="850" y="-17" type="curve" smooth="yes"/>
      <point x="1273" y="-17"/>
      <point x="1617" y="327"/>
      <point x="1617" y="750" type="curve" smooth="yes"/>
      <point x="1617" y="1173"/>
      <point x="1273" y="1517"/>
      <point x="850" y="1517" type="curve" smooth="yes"/>
      <point x="427" y="1517"/>
      <point x="83" y="1173"/>
    </contour>
    <contour>
      <point x="201" y="750" type="curve" smooth="yes"/>
      <point x="201" y="1108"/>
      <point x="492" y="1398"/>
      <point x="850" y="1398" type="curve" smooth="yes"/>
      <point x="1208" y="1398"/>
      <point x="1498" y="1108"/>
      <point x="1498" y="750" type="curve" smooth="yes"/>
      <point x="1498" y="392"/>
      <point x="1208" y="101"/>
      <point x="850" y="101" type="curve" smooth="yes"/>
      <point x="492" y="101"/>
      <point x="201" y="392"/>
    </contour>
    <component base="seven" xScale="0.6" yScale="0.6" xOffset="490" yOffset="300"/>
  </outline>
</glyph>
<glyph name="blackcircledeight" format="1">
  <advance width="1700"/>
  <unicode hex="2791"/>
  <outline>
    <contour>
      <point x="83" y="750" type="curve" smooth="yes"/>
      <point x="83" y="327"/>
      <point x="427" y="-17"/>
      <point x="850" y="-17" type="curve" smooth="yes"/>
      <point x="1273" y="-17"/>
      <point x="1617" y="327"/>
      <point x="1617" y="750" type="curve" smooth="yes"/>
      <point x="1617" y="1173"/>
      <point x="1273" y="1517"/>
      <point x="850" y="1517" type="curve" smooth="yes"/>
      <point x="427" y="1517"/>
      <point x="83" y="1173"/>
    </contour>
    <component base="eight" xScale="0.6" yScale="0.6" xOffset="470" yOffset="300"/>
  </outline>
</glyph>
<glyph name="landing" format="1">
  <advance width="2600"/>
  <unicode hex="E004"/>
  <outline>
    <contour>
      <point x="2400" y="-200" type="curve"/>
      <point x="2403" y="-200"/>
      <point x="600" y="-200"/>
      <point x="600" y="-200" type="curve"/>
      <point x="600" y="-200"/>
      <point x="600" y="0"/>
      <point x="600" y="0" type="curve"/>
      <point x="600" y="0"/>
      <point x="2400" y="0"/>
      <point x="2400" y="0" type="curve"/>
      <point x="2400" y="0"/>
      <point x="2400" y="-200"/>
    </contour>
    <contour>
      <point x="200" y="-200" type="curve"/>
      <point x="203" y="-200"/>
      <point x="80" y="-200"/>
      <point x="80" y="-200" type="curve"/>
      <point x="80" y="-200"/>
      <point x="100" y="0"/>
      <point x="100" y="0" type="curve"/>
      <point x="100" y="0"/>
      <point x="200" y="0"/>
      <point x="200" y="0" type="curve"/>
      <point x="200" y="0"/>
      <point x="200" y="-200"/>
    </contour>
    <contour>
      <point x="500" y="-200" type="curve"/>
      <point x="503" y="-200"/>
      <point x="300" y="-200"/>
      <point x="300" y="-200" type="curve"/>
      <point x="300" y="-200"/>
      <point x="300" y="0"/>
      <point x="300" y="0" type="curve"/>
      <point x="300" y="0"/>
      <point x="500" y="0"/>
      <point x="500" y="0" type="curve"/>
      <point x="500" y="0"/>
      <point x="500" y="-200"/>
    </contour>
    <component base="descent" xOffset="-16" yOffset="118"/>
  </outline>
</glyph>
<glyph name="fog" format="1">
  <advance width="1800"/>
  <unicode hex="E027"/>
  <outline>
    <contour>
      <point x="1200" y="175" type="line"/>
      <point x="1200" y="300" type="line"/>
      <point x="1577" y="300" type="line"/>
      <point x="1575" y="388"/>
      <point x="1491" y="434"/>
      <point x="1381" y="496" type="curve"/>
      <point x="1394" y="514"/>
      <point x="1404" y="546"/>
      <point x="1404" y="580" type="curve" smooth="yes"/>
      <point x="1404" y="650"/>
      <point x="1348" y="710"/>
      <point x="1274" y="710" type="curve" smooth="yes"/>
      <point x="1225" y="710"/>
      <point x="1181" y="683"/>
      <point x="1162" y="660" type="curve"/>
      <point x="1028" y="767" type="line"/>
      <point x="993" y="881"/>
      <point x="916" y="939"/>
      <point x="802" y="939" type="curve" smooth="yes"/>
      <point x="636" y="939"/>
      <point x="518" y="841"/>
      <point x="518" y="680" type="curve"/>
      <point x="549" y="557" type="line"/>
      <point x="427" y="557" type="line"/>
      <point x="328" y="519"/>
      <point x="261" y="444"/>
      <point x="261" y="365" type="curve"/>
      <point x="261" y="300" type="line"/>
      <point x="1000" y="300" type="line"/>
      <point x="1000" y="175" type="line"/>
      <point x="100" y="175" type="line"/>
      <point x="100" y="365" type="line"/>
      <point x="100" y="516"/>
      <point x="200" y="634"/>
      <point x="357" y="697" type="curve"/>
      <point x="358" y="941"/>
      <point x="573" y="1101"/>
      <point x="802" y="1101" type="curve" smooth="yes"/>
      <point x="982" y="1101"/>
      <point x="1117" y="1008"/>
      <point x="1175" y="837" type="curve"/>
      <point x="1207" y="849"/>
      <point x="1244" y="855"/>
      <point x="1280" y="855" type="curve" smooth="yes"/>
      <point x="1414" y="855"/>
      <point x="1547" y="758"/>
      <point x="1547" y="619" type="curve" smooth="yes"/>
      <point x="1547" y="605"/>
      <point x="1546" y="591"/>
      <point x="1544" y="576" type="curve"/>
      <point x="1544" y="576"/>
      <point x="1740" y="500"/>
      <point x="1740" y="298" type="curve" smooth="yes"/>
      <point x="1740" y="175" type="line"/>
    </contour>
    <contour>
      <point x="600" y="-125" type="line"/>
      <point x="600" y="0" type="line"/>
      <point x="1600" y="0" type="line"/>
      <point x="1600" y="-125" type="line"/>
    </contour>
    <contour>
      <point x="300" y="-425" type="line"/>
      <point x="300" y="-300" type="line"/>
      <point x="1200" y="-300" type="line"/>
      <point x="1200" y="-425" type="line"/>
    </contour>
    <contour>
      <point x="100" y="-125" type="line"/>
      <point x="100" y="0" type="line"/>
      <point x="400" y="0" type="line"/>
      <point x="400" y="-125" type="line"/>
    </contour>
    <contour>
      <point x="1400" y="-425" type="line"/>
      <point x="1400" y="-300" type="line"/>
      <point x="1700" y="-300" type="line"/>
      <point x="1700" y="-425" type="line"/>
    </contour>
  </outline>
</glyph>
